{"glyphs":{"0":{"ha":979,"x_min":0,"x_max":0,"o":"m 490 -27 b 52 492 221 -27 52 168 b 490 1006 52 817 223 1006 b 927 492 756 1006 927 818 b 490 -27 927 170 758 -27 m 490 194 b 634 492 578 194 634 287 b 490 785 634 697 578 785 b 345 492 401 785 345 697 b 490 194 345 287 401 194 "},"1":{"ha":718,"x_min":0,"x_max":0,"o":"m 298 732 l 293 732 l 53 574 l 53 814 l 298 979 l 586 979 l 586 0 l 298 0 "},"2":{"ha":889,"x_min":0,"x_max":0,"o":"m 42 666 b 435 1006 42 871 199 1006 b 825 708 673 1006 825 886 b 605 376 825 576 757 508 l 427 222 l 427 217 l 836 217 l 836 0 l 59 0 l 59 196 l 407 494 b 548 689 524 594 548 635 b 435 793 548 751 500 793 b 304 666 360 793 304 745 l 42 666 "},"3":{"ha":927,"x_min":0,"x_max":0,"o":"m 332 596 l 433 596 b 574 698 522 596 574 635 b 455 796 574 762 525 796 b 324 690 377 796 330 754 l 65 690 b 455 1006 73 884 228 1006 b 838 739 672 1006 838 913 b 637 512 838 612 745 534 l 637 507 b 879 279 787 491 879 409 b 456 -27 879 92 718 -27 b 41 295 217 -27 51 99 l 315 295 b 456 196 321 239 370 196 b 587 300 532 196 587 237 b 433 407 587 370 533 407 l 332 407 "},"4":{"ha":959,"x_min":0,"x_max":0,"o":"m 526 155 l 45 155 l 45 387 b 400 979 132 557 231 720 l 798 979 l 798 376 l 918 376 l 918 155 l 798 155 l 798 0 l 526 0 m 280 364 l 534 364 l 534 787 l 529 787 b 280 372 431 643 359 529 "},"5":{"ha":924,"x_min":0,"x_max":0,"o":"m 474 -27 b 76 294 241 -27 77 106 l 334 294 b 474 190 347 229 403 190 b 613 326 557 190 613 246 b 473 462 613 407 557 462 b 340 387 408 462 361 427 l 92 387 l 131 979 l 819 979 l 819 762 l 356 762 l 341 539 l 347 539 b 566 650 382 605 462 650 b 882 333 750 650 882 517 b 474 -27 882 117 719 -27 "},"6":{"ha":954,"x_min":0,"x_max":0,"o":"m 494 -26 b 49 490 206 -26 49 179 b 487 1006 49 808 218 1006 b 890 708 701 1006 866 881 l 610 708 b 487 789 592 760 549 789 b 323 492 366 789 317 660 l 329 492 b 589 647 366 585 457 647 b 902 333 781 647 902 515 b 494 -26 902 121 730 -26 m 490 190 b 627 320 566 190 626 247 b 492 452 627 398 568 452 b 355 324 414 452 355 399 b 490 190 355 248 414 190 "},"7":{"ha":829,"x_min":0,"x_max":0,"o":"m 504 756 l 504 762 l 35 762 l 35 979 l 787 979 l 787 762 l 406 0 l 104 0 "},"8":{"ha":980,"x_min":0,"x_max":0,"o":"m 490 -27 b 52 265 229 -27 52 90 b 298 513 52 401 157 490 l 298 518 b 87 736 175 542 87 626 b 490 1006 87 892 250 1006 b 892 735 730 1006 892 892 b 683 518 892 627 804 542 l 683 513 b 928 264 824 490 928 400 b 490 -27 928 90 749 -27 m 490 596 b 609 706 559 596 609 641 b 490 815 609 771 558 815 b 371 706 421 815 371 771 b 490 596 371 641 420 596 m 490 164 b 625 286 570 164 625 216 b 490 406 625 355 570 406 b 355 286 409 406 355 355 b 490 164 355 216 409 164 "},"9":{"ha":960,"x_min":0,"x_max":0,"o":"m 470 -27 b 67 268 256 -27 91 97 l 347 268 b 470 190 364 218 408 190 b 633 488 599 190 640 328 l 628 488 b 380 331 599 396 513 331 b 55 646 204 331 55 450 b 463 1006 55 858 227 1006 b 908 490 720 1006 908 833 b 470 -27 908 171 739 -27 m 465 528 b 602 655 543 528 602 580 b 467 789 602 732 543 789 b 330 659 391 789 330 733 b 465 528 330 581 389 528 "},"":{"ha":0,"x_min":0,"x_max":0,"o":""}," ":{"ha":264,"x_min":0,"x_max":0,"o":""}," ":{"ha":264,"x_min":0,"x_max":0,"o":""}," ":{"ha":694,"x_min":0,"x_max":0,"o":""}," ":{"ha":1389,"x_min":0,"x_max":0,"o":""}," ":{"ha":872,"x_min":0,"x_max":0,"o":""}," ":{"ha":1331,"x_min":0,"x_max":0,"o":""}," ":{"ha":463,"x_min":0,"x_max":0,"o":""}," ":{"ha":347,"x_min":0,"x_max":0,"o":""}," ":{"ha":231,"x_min":0,"x_max":0,"o":""}," ":{"ha":958,"x_min":0,"x_max":0,"o":""}," ":{"ha":419,"x_min":0,"x_max":0,"o":""}," ":{"ha":278,"x_min":0,"x_max":0,"o":""}," ":{"ha":77,"x_min":0,"x_max":0,"o":""},"​":{"ha":0,"x_min":0,"x_max":0,"o":""},"‌":{"ha":0,"x_min":0,"x_max":0,"o":""},"‍":{"ha":0,"x_min":0,"x_max":0,"o":""}," ":{"ha":278,"x_min":0,"x_max":0,"o":""}," ":{"ha":347,"x_min":0,"x_max":0,"o":""},"A":{"ha":1040,"x_min":0,"x_max":0,"o":"m 663 195 l 364 195 l 313 0 l 20 0 l 340 979 l 701 979 l 1020 0 l 713 0 m 416 397 l 610 397 l 516 753 l 511 753 "},"À":{"ha":1040,"x_min":0,"x_max":0,"o":"m 288 1272 l 516 1272 l 610 1055 l 433 1055 m 663 195 l 364 195 l 313 0 l 20 0 l 340 979 l 701 979 l 1020 0 l 713 0 m 416 397 l 610 397 l 516 753 l 511 753 "},"Á":{"ha":1040,"x_min":0,"x_max":0,"o":"m 430 1055 l 524 1272 l 752 1272 l 608 1055 m 663 195 l 364 195 l 313 0 l 20 0 l 340 979 l 701 979 l 1020 0 l 713 0 m 416 397 l 610 397 l 516 753 l 511 753 "},"Ä":{"ha":1040,"x_min":0,"x_max":0,"o":"m 362 1044 b 241 1163 294 1044 241 1098 b 362 1282 241 1228 294 1282 b 486 1163 431 1282 486 1228 b 362 1044 486 1098 431 1044 m 677 1044 b 555 1163 609 1044 555 1098 b 677 1282 555 1228 609 1282 b 800 1163 746 1282 800 1228 b 677 1044 800 1098 746 1044 m 663 195 l 364 195 l 313 0 l 20 0 l 340 979 l 701 979 l 1020 0 l 713 0 m 416 397 l 610 397 l 516 753 l 511 753 "},"Ǟ":{"ha":1040,"x_min":0,"x_max":0,"o":"m 774 1438 l 774 1316 l 267 1316 l 267 1438 m 370 1245 b 477 1143 432 1245 477 1200 b 370 1042 477 1088 432 1042 b 262 1143 307 1042 262 1088 b 370 1245 262 1200 307 1245 m 671 1245 b 778 1143 733 1245 778 1200 b 671 1042 778 1088 733 1042 b 564 1143 608 1042 564 1088 b 671 1245 564 1200 608 1245 m 663 195 l 364 195 l 313 0 l 20 0 l 340 979 l 701 979 l 1020 0 l 713 0 m 416 397 l 610 397 l 516 753 l 511 753 "},"Å":{"ha":1040,"x_min":0,"x_max":0,"o":"m 520 1031 b 371 1175 439 1031 371 1093 b 520 1320 371 1257 439 1320 b 669 1175 601 1320 669 1257 b 520 1031 669 1093 601 1031 m 520 1123 b 574 1175 549 1123 574 1145 b 520 1227 574 1206 549 1227 b 466 1175 491 1227 466 1206 b 520 1123 466 1145 491 1123 m 663 195 l 364 195 l 313 0 l 20 0 l 340 979 l 701 979 l 1020 0 l 713 0 m 416 397 l 610 397 l 516 753 l 511 753 "},"Ǻ":{"ha":1040,"x_min":0,"x_max":0,"o":"m 724 1493 l 614 1356 l 427 1356 l 505 1493 m 520 1029 b 375 1168 436 1029 375 1088 b 520 1308 375 1249 436 1308 b 665 1168 604 1308 665 1249 b 520 1029 665 1088 604 1029 m 520 1121 b 568 1168 547 1121 568 1141 b 520 1216 568 1196 547 1216 b 473 1168 493 1216 473 1196 b 520 1121 473 1141 493 1121 m 663 195 l 364 195 l 313 0 l 20 0 l 340 979 l 701 979 l 1020 0 l 713 0 m 416 397 l 610 397 l 516 753 l 511 753 "},"Ã":{"ha":1040,"x_min":0,"x_max":0,"o":"m 620 1051 b 437 1132 517 1051 488 1132 b 385 1058 406 1132 385 1107 l 252 1058 b 418 1270 252 1201 326 1270 b 604 1189 522 1270 556 1189 b 655 1264 641 1189 655 1217 l 789 1264 b 620 1051 787 1126 713 1051 m 663 195 l 364 195 l 313 0 l 20 0 l 340 979 l 701 979 l 1020 0 l 713 0 m 416 397 l 610 397 l 516 753 l 511 753 "},"Ằ":{"ha":1040,"x_min":0,"x_max":0,"o":"m 432 1305 l 271 1496 l 489 1496 l 626 1305 m 788 1255 b 520 1042 787 1146 691 1042 b 252 1255 349 1042 254 1146 l 412 1255 b 520 1168 415 1210 454 1168 b 628 1255 587 1168 625 1210 l 788 1255 m 663 195 l 364 195 l 313 0 l 20 0 l 340 979 l 701 979 l 1020 0 l 713 0 m 416 397 l 610 397 l 516 753 l 511 753 "},"Ǡ":{"ha":1040,"x_min":0,"x_max":0,"o":"m 774 1316 l 267 1316 l 267 1438 l 774 1438 m 520 1042 b 413 1143 458 1042 413 1088 b 520 1245 413 1199 458 1245 b 627 1143 583 1245 627 1199 b 520 1042 627 1088 583 1042 m 663 195 l 364 195 l 313 0 l 20 0 l 340 979 l 701 979 l 1020 0 l 713 0 m 416 397 l 610 397 l 516 753 l 511 753 "},"Ḁ":{"ha":1040,"x_min":0,"x_max":0,"o":"m 663 195 l 364 195 l 313 0 l 20 0 l 340 979 l 701 979 l 1020 0 l 713 0 m 416 397 l 610 397 l 516 753 l 511 753 m 520 -361 b 355 -201 431 -361 355 -289 b 520 -41 355 -113 431 -41 b 685 -201 610 -41 685 -113 b 520 -361 685 -289 610 -361 m 520 -258 b 580 -201 552 -258 580 -233 b 520 -143 580 -170 552 -143 b 460 -201 488 -143 460 -170 b 520 -258 460 -233 488 -258 "},"Â":{"ha":1040,"x_min":0,"x_max":0,"o":"m 627 1272 l 793 1055 l 606 1055 l 523 1175 l 517 1175 l 435 1055 l 248 1055 l 414 1272 m 663 195 l 364 195 l 313 0 l 20 0 l 340 979 l 701 979 l 1020 0 l 713 0 m 416 397 l 610 397 l 516 753 l 511 753 "},"Ậ":{"ha":1040,"x_min":0,"x_max":0,"o":"m 627 1272 l 793 1055 l 606 1055 l 523 1175 l 517 1175 l 435 1055 l 248 1055 l 414 1272 m 663 195 l 364 195 l 313 0 l 20 0 l 340 979 l 701 979 l 1020 0 l 713 0 m 416 397 l 610 397 l 516 753 l 511 753 m 519 -330 b 387 -201 445 -330 387 -271 b 519 -71 387 -130 445 -71 b 651 -201 593 -71 651 -130 b 519 -330 651 -271 593 -330 "},"Ấ":{"ha":1040,"x_min":0,"x_max":0,"o":"m 687 1496 l 905 1496 l 744 1305 l 550 1305 m 625 1249 l 798 1042 l 608 1042 l 523 1154 l 517 1154 l 432 1042 l 242 1042 l 415 1249 m 663 195 l 364 195 l 313 0 l 20 0 l 340 979 l 701 979 l 1020 0 l 713 0 m 416 397 l 610 397 l 516 753 l 511 753 "},"Ẫ":{"ha":1040,"x_min":0,"x_max":0,"o":"m 619 1297 b 435 1379 520 1297 482 1379 b 389 1311 404 1379 391 1347 l 252 1311 b 421 1510 252 1438 329 1510 b 605 1428 520 1510 558 1428 b 652 1499 636 1428 650 1457 l 788 1499 b 619 1297 788 1373 711 1297 m 625 1249 l 798 1042 l 608 1042 l 523 1154 l 517 1154 l 432 1042 l 242 1042 l 415 1249 m 663 195 l 364 195 l 313 0 l 20 0 l 340 979 l 701 979 l 1020 0 l 713 0 m 416 397 l 610 397 l 516 753 l 511 753 "},"Ầ":{"ha":1040,"x_min":0,"x_max":0,"o":"m 581 1305 l 420 1496 l 638 1496 l 775 1305 m 625 1249 l 798 1042 l 608 1042 l 523 1154 l 517 1154 l 432 1042 l 242 1042 l 415 1249 m 663 195 l 364 195 l 313 0 l 20 0 l 340 979 l 701 979 l 1020 0 l 713 0 m 416 397 l 610 397 l 516 753 l 511 753 "},"Ẩ":{"ha":1040,"x_min":0,"x_max":0,"o":"m 595 1480 b 707 1500 620 1493 664 1500 b 895 1343 824 1500 895 1441 b 768 1168 895 1274 849 1203 l 695 1260 b 743 1326 733 1276 743 1302 b 671 1379 743 1360 716 1379 b 595 1367 649 1379 614 1374 m 625 1249 l 798 1042 l 608 1042 l 523 1154 l 517 1154 l 432 1042 l 242 1042 l 415 1249 m 663 195 l 364 195 l 313 0 l 20 0 l 340 979 l 701 979 l 1020 0 l 713 0 m 416 397 l 610 397 l 516 753 l 511 753 "},"Ă":{"ha":1040,"x_min":0,"x_max":0,"o":"m 412 1272 b 520 1173 415 1209 452 1173 b 628 1272 588 1173 625 1209 l 788 1272 b 520 1046 784 1143 691 1046 b 252 1272 349 1046 256 1143 m 663 195 l 364 195 l 313 0 l 20 0 l 340 979 l 701 979 l 1020 0 l 713 0 m 416 397 l 610 397 l 516 753 l 511 753 "},"Ắ":{"ha":1040,"x_min":0,"x_max":0,"o":"m 551 1496 l 770 1496 l 608 1305 l 414 1305 m 412 1255 b 520 1168 415 1210 454 1168 b 628 1255 587 1168 625 1210 l 788 1255 b 520 1042 787 1146 691 1042 b 252 1255 349 1042 254 1146 m 663 195 l 364 195 l 313 0 l 20 0 l 340 979 l 701 979 l 1020 0 l 713 0 m 416 397 l 610 397 l 516 753 l 511 753 "},"Ẵ":{"ha":1040,"x_min":0,"x_max":0,"o":"m 619 1297 b 435 1379 520 1297 482 1379 b 389 1318 404 1379 391 1347 l 252 1318 b 421 1510 252 1438 329 1510 b 605 1428 520 1510 558 1428 b 652 1499 636 1428 650 1457 l 788 1499 b 619 1297 788 1373 711 1297 m 412 1255 b 520 1168 415 1210 454 1168 b 628 1255 587 1168 625 1210 l 788 1255 b 520 1042 787 1146 691 1042 b 252 1255 349 1042 254 1146 m 663 195 l 364 195 l 313 0 l 20 0 l 340 979 l 701 979 l 1020 0 l 713 0 m 416 397 l 610 397 l 516 753 l 511 753 "},"Ẳ":{"ha":1040,"x_min":0,"x_max":0,"o":"m 371 1495 b 479 1513 392 1504 443 1513 b 648 1384 583 1513 648 1463 b 509 1221 648 1321 585 1246 l 446 1293 b 509 1358 486 1309 509 1333 b 439 1402 509 1385 481 1402 b 371 1389 415 1402 391 1398 m 412 1255 b 520 1168 416 1204 460 1168 b 628 1255 580 1168 625 1204 l 788 1255 b 520 1042 787 1132 673 1042 b 252 1255 367 1042 254 1132 m 663 195 l 364 195 l 313 0 l 20 0 l 340 979 l 701 979 l 1020 0 l 713 0 m 416 397 l 610 397 l 516 753 l 511 753 "},"Ặ":{"ha":1040,"x_min":0,"x_max":0,"o":"m 412 1272 b 520 1173 415 1209 452 1173 b 628 1272 588 1173 625 1209 l 788 1272 b 520 1046 784 1143 691 1046 b 252 1272 349 1046 256 1143 m 663 195 l 364 195 l 313 0 l 20 0 l 340 979 l 701 979 l 1020 0 l 713 0 m 416 397 l 610 397 l 516 753 l 511 753 m 519 -330 b 387 -201 445 -330 387 -271 b 519 -71 387 -130 445 -71 b 651 -201 593 -71 651 -130 b 519 -330 651 -271 593 -330 "},"Ȃ":{"ha":1040,"x_min":0,"x_max":0,"o":"m 628 1046 b 520 1146 625 1109 588 1146 b 412 1046 452 1146 415 1109 l 252 1046 b 520 1272 256 1175 349 1272 b 788 1046 691 1272 784 1175 m 663 195 l 364 195 l 313 0 l 20 0 l 340 979 l 701 979 l 1020 0 l 713 0 m 416 397 l 610 397 l 516 753 l 511 753 "},"Ǎ":{"ha":1040,"x_min":0,"x_max":0,"o":"m 414 1055 l 248 1272 l 435 1272 l 517 1152 l 523 1152 l 606 1272 l 793 1272 l 627 1055 m 663 195 l 364 195 l 313 0 l 20 0 l 340 979 l 701 979 l 1020 0 l 713 0 m 416 397 l 610 397 l 516 753 l 511 753 "},"Ȧ":{"ha":1040,"x_min":0,"x_max":0,"o":"m 519 1034 b 387 1163 445 1034 387 1093 b 519 1293 387 1234 445 1293 b 651 1163 593 1293 651 1234 b 519 1034 651 1093 593 1034 m 663 195 l 364 195 l 313 0 l 20 0 l 340 979 l 701 979 l 1020 0 l 713 0 m 416 397 l 610 397 l 516 753 l 511 753 "},"Ạ":{"ha":1040,"x_min":0,"x_max":0,"o":"m 663 195 l 364 195 l 313 0 l 20 0 l 340 979 l 701 979 l 1020 0 l 713 0 m 416 397 l 610 397 l 516 753 l 511 753 m 519 -330 b 387 -201 445 -330 387 -271 b 519 -71 387 -130 445 -71 b 651 -201 593 -71 651 -130 b 519 -330 651 -271 593 -330 "},"Ả":{"ha":1040,"x_min":0,"x_max":0,"o":"m 378 1338 b 490 1358 404 1349 456 1358 b 678 1197 605 1358 678 1295 b 532 1015 678 1126 625 1061 l 458 1100 b 526 1183 508 1126 526 1147 b 448 1239 526 1217 495 1239 b 378 1227 423 1239 397 1234 m 663 195 l 364 195 l 313 0 l 20 0 l 340 979 l 701 979 l 1020 0 l 713 0 m 416 397 l 610 397 l 516 753 l 511 753 "},"Ȁ":{"ha":1040,"x_min":0,"x_max":0,"o":"m 585 1055 l 491 1272 l 693 1272 l 743 1055 m 311 1055 l 167 1272 l 389 1272 l 484 1055 m 663 195 l 364 195 l 313 0 l 20 0 l 340 979 l 701 979 l 1020 0 l 713 0 m 416 397 l 610 397 l 516 753 l 511 753 "},"Ā":{"ha":1040,"x_min":0,"x_max":0,"o":"m 759 1101 l 281 1101 l 281 1236 l 759 1236 m 663 195 l 364 195 l 313 0 l 20 0 l 340 979 l 701 979 l 1020 0 l 713 0 m 416 397 l 610 397 l 516 753 l 511 753 "},"Ą":{"ha":1040,"x_min":0,"x_max":0,"o":"m 831 -335 b 620 -169 688 -335 620 -256 b 713 0 620 -112 648 -49 l 663 195 l 364 195 l 313 0 l 20 0 l 340 979 l 701 979 l 1020 0 l 987 0 b 810 -119 865 0 810 -62 b 895 -193 810 -149 825 -193 b 943 -188 909 -193 924 -192 l 943 -319 b 831 -335 904 -330 866 -335 m 416 397 l 610 397 l 516 753 l 511 753 "},"B":{"ha":937,"x_min":0,"x_max":0,"o":"m 68 0 l 68 979 l 549 979 b 866 734 749 979 866 887 b 667 523 866 622 781 537 l 667 517 b 910 285 800 514 910 414 b 565 0 910 113 774 0 m 355 587 l 467 587 b 587 684 541 587 587 625 b 471 781 587 745 543 781 l 355 781 m 478 197 b 618 311 567 197 618 237 b 480 422 618 381 566 422 l 355 422 l 355 197 "},"Ḇ":{"ha":937,"x_min":0,"x_max":0,"o":"m 68 0 l 68 979 l 549 979 b 866 734 749 979 866 887 b 667 523 866 622 781 537 l 667 517 b 910 285 800 514 910 414 b 565 0 910 113 774 0 m 355 587 l 467 587 b 587 684 541 587 587 625 b 471 781 587 745 543 781 l 355 781 m 478 197 b 618 311 567 197 618 237 b 480 422 618 381 566 422 l 355 422 l 355 197 m 707 -268 l 230 -268 l 230 -134 l 707 -134 "},"Ḅ":{"ha":937,"x_min":0,"x_max":0,"o":"m 68 0 l 68 979 l 549 979 b 866 734 749 979 866 887 b 667 523 866 622 781 537 l 667 517 b 910 285 800 514 910 414 b 565 0 910 113 774 0 m 355 587 l 467 587 b 587 684 541 587 587 625 b 471 781 587 745 543 781 l 355 781 m 478 197 b 618 311 567 197 618 237 b 480 422 618 381 566 422 l 355 422 l 355 197 m 467 -330 b 335 -201 393 -330 335 -271 b 467 -71 335 -130 393 -71 b 600 -201 541 -71 600 -130 b 467 -330 600 -271 541 -330 "},"Ḃ":{"ha":937,"x_min":0,"x_max":0,"o":"m 467 1034 b 335 1163 393 1034 335 1093 b 467 1293 335 1234 393 1293 b 600 1163 541 1293 600 1234 b 467 1034 600 1093 541 1034 m 68 0 l 68 979 l 549 979 b 866 734 749 979 866 887 b 667 523 866 622 781 537 l 667 517 b 910 285 800 514 910 414 b 565 0 910 113 774 0 m 355 587 l 467 587 b 587 684 541 587 587 625 b 471 781 587 745 543 781 l 355 781 m 478 197 b 618 311 567 197 618 237 b 480 422 618 381 566 422 l 355 422 l 355 197 "},"C":{"ha":1026,"x_min":0,"x_max":0,"o":"m 530 -17 b 44 490 230 -17 44 167 b 530 996 44 812 231 996 b 984 585 788 996 983 827 l 709 585 b 530 770 702 696 629 770 b 337 490 412 770 337 665 b 530 209 337 313 411 209 b 710 395 629 209 701 281 l 985 395 b 530 -17 984 151 793 -17 "},"Ć":{"ha":1026,"x_min":0,"x_max":0,"o":"m 425 1055 l 519 1272 l 747 1272 l 602 1055 m 530 -17 b 44 490 230 -17 44 167 b 530 996 44 812 231 996 b 984 585 788 996 983 827 l 709 585 b 530 770 702 696 629 770 b 337 490 412 770 337 665 b 530 209 337 313 411 209 b 710 395 629 209 701 281 l 985 395 b 530 -17 984 151 793 -17 "},"Č":{"ha":1026,"x_min":0,"x_max":0,"o":"m 408 1055 l 242 1272 l 429 1272 l 512 1152 l 517 1152 l 600 1272 l 787 1272 l 621 1055 m 530 -17 b 44 490 230 -17 44 167 b 530 996 44 812 231 996 b 984 585 788 996 983 827 l 709 585 b 530 770 702 696 629 770 b 337 490 412 770 337 665 b 530 209 337 313 411 209 b 710 395 629 209 701 281 l 985 395 b 530 -17 984 151 793 -17 "},"Ĉ":{"ha":1026,"x_min":0,"x_max":0,"o":"m 621 1272 l 787 1055 l 600 1055 l 517 1175 l 512 1175 l 429 1055 l 242 1055 l 408 1272 m 530 -17 b 44 490 230 -17 44 167 b 530 996 44 812 231 996 b 984 585 788 996 983 827 l 709 585 b 530 770 702 696 629 770 b 337 490 412 770 337 665 b 530 209 337 313 411 209 b 710 395 629 209 701 281 l 985 395 b 530 -17 984 151 793 -17 "},"Ċ":{"ha":1026,"x_min":0,"x_max":0,"o":"m 513 1034 b 381 1163 439 1034 381 1093 b 513 1293 381 1234 439 1293 b 646 1163 587 1293 646 1234 b 513 1034 646 1093 587 1034 m 530 -17 b 44 490 230 -17 44 167 b 530 996 44 812 231 996 b 984 585 788 996 983 827 l 709 585 b 530 770 702 696 629 770 b 337 490 412 770 337 665 b 530 209 337 313 411 209 b 710 395 629 209 701 281 l 985 395 b 530 -17 984 151 793 -17 "},"Ç":{"ha":1026,"x_min":0,"x_max":0,"o":"m 429 -66 l 458 -14 b 44 490 201 14 44 193 b 530 996 44 812 231 996 b 984 585 788 996 983 827 l 709 585 b 530 770 702 696 629 770 b 337 490 412 770 337 665 b 530 209 337 313 411 209 b 710 395 629 209 701 281 l 985 395 b 586 -14 984 168 820 8 l 562 -60 b 672 -174 627 -60 672 -105 b 494 -307 672 -262 612 -307 b 404 -296 456 -307 421 -303 l 404 -201 b 471 -209 420 -206 446 -209 b 534 -184 515 -209 534 -201 b 467 -153 534 -160 517 -153 l 429 -153 "},"Ḉ":{"ha":1026,"x_min":0,"x_max":0,"o":"m 425 1055 l 519 1272 l 747 1272 l 602 1055 m 429 -66 l 458 -14 b 44 490 201 14 44 193 b 530 996 44 812 231 996 b 984 585 788 996 983 827 l 709 585 b 530 770 702 696 629 770 b 337 490 412 770 337 665 b 530 209 337 313 411 209 b 710 395 629 209 701 281 l 985 395 b 586 -14 984 168 820 8 l 562 -60 b 672 -174 627 -60 672 -105 b 494 -307 672 -262 612 -307 b 404 -296 456 -307 421 -303 l 404 -201 b 471 -209 420 -206 446 -209 b 534 -184 515 -209 534 -201 b 467 -153 534 -160 517 -153 l 429 -153 "},"D":{"ha":1002,"x_min":0,"x_max":0,"o":"m 486 979 b 958 496 783 979 958 810 b 486 0 958 183 783 0 l 68 0 l 68 979 m 355 229 l 446 229 b 665 496 589 229 665 316 b 446 750 665 661 583 750 l 355 750 "},"Ḋ":{"ha":1002,"x_min":0,"x_max":0,"o":"m 446 1034 b 314 1163 372 1034 314 1093 b 446 1293 314 1234 372 1293 b 578 1163 520 1293 578 1234 b 446 1034 578 1093 520 1034 m 486 979 b 958 496 783 979 958 810 b 486 0 958 183 783 0 l 68 0 l 68 979 m 355 229 l 446 229 b 665 496 589 229 665 316 b 446 750 665 661 583 750 l 355 750 "},"Ḓ":{"ha":1002,"x_min":0,"x_max":0,"o":"m 486 979 b 958 496 783 979 958 810 b 486 0 958 183 783 0 l 68 0 l 68 979 m 355 229 l 446 229 b 665 496 589 229 665 316 b 446 750 665 661 583 750 l 355 750 m 554 -94 l 720 -311 l 533 -311 l 450 -191 l 445 -191 l 362 -311 l 175 -311 l 341 -94 "},"Ḑ":{"ha":1002,"x_min":0,"x_max":0,"o":"m 486 979 b 958 496 783 979 958 810 b 486 0 958 183 783 0 l 68 0 l 68 979 m 355 229 l 446 229 b 665 496 589 229 665 316 b 446 750 665 661 583 750 l 355 750 m 249 -314 l 325 -94 l 570 -94 l 438 -314 "},"Ḏ":{"ha":1002,"x_min":0,"x_max":0,"o":"m 486 979 b 958 496 783 979 958 810 b 486 0 958 183 783 0 l 68 0 l 68 979 m 355 229 l 446 229 b 665 496 589 229 665 316 b 446 750 665 661 583 750 l 355 750 m 686 -268 l 209 -268 l 209 -134 l 686 -134 "},"Ď":{"ha":1002,"x_min":0,"x_max":0,"o":"m 341 1055 l 175 1272 l 362 1272 l 445 1152 l 450 1152 l 533 1272 l 720 1272 l 554 1055 m 486 979 b 958 496 783 979 958 810 b 486 0 958 183 783 0 l 68 0 l 68 979 m 355 229 l 446 229 b 665 496 589 229 665 316 b 446 750 665 661 583 750 l 355 750 "},"Ḍ":{"ha":1002,"x_min":0,"x_max":0,"o":"m 486 979 b 958 496 783 979 958 810 b 486 0 958 183 783 0 l 68 0 l 68 979 m 355 229 l 446 229 b 665 496 589 229 665 316 b 446 750 665 661 583 750 l 355 750 m 446 -330 b 314 -201 372 -330 314 -271 b 446 -71 314 -130 372 -71 b 578 -201 520 -71 578 -130 b 446 -330 578 -271 520 -330 "},"Đ":{"ha":1002,"x_min":0,"x_max":0,"o":"m 0 585 l 68 585 l 68 979 l 486 979 b 958 496 783 979 958 810 b 486 0 958 183 783 0 l 68 0 l 68 394 l 0 394 m 355 585 l 490 585 l 490 394 l 355 394 l 355 229 l 446 229 b 665 496 589 229 665 316 b 446 750 665 661 583 750 l 355 750 "},"E":{"ha":825,"x_min":0,"x_max":0,"o":"m 758 0 l 68 0 l 68 979 l 758 979 l 758 750 l 355 750 l 355 592 l 733 592 l 733 386 l 355 386 l 355 229 l 758 229 "},"È":{"ha":825,"x_min":0,"x_max":0,"o":"m 181 1272 l 409 1272 l 503 1055 l 326 1055 m 758 0 l 68 0 l 68 979 l 758 979 l 758 750 l 355 750 l 355 592 l 733 592 l 733 386 l 355 386 l 355 229 l 758 229 "},"Ȅ":{"ha":825,"x_min":0,"x_max":0,"o":"m 478 1055 l 384 1272 l 586 1272 l 636 1055 m 204 1055 l 60 1272 l 282 1272 l 376 1055 m 758 0 l 68 0 l 68 979 l 758 979 l 758 750 l 355 750 l 355 592 l 733 592 l 733 386 l 355 386 l 355 229 l 758 229 "},"É":{"ha":825,"x_min":0,"x_max":0,"o":"m 323 1055 l 417 1272 l 645 1272 l 500 1055 m 758 0 l 68 0 l 68 979 l 758 979 l 758 750 l 355 750 l 355 592 l 733 592 l 733 386 l 355 386 l 355 229 l 758 229 "},"Ê":{"ha":825,"x_min":0,"x_max":0,"o":"m 519 1272 l 686 1055 l 498 1055 l 416 1175 l 410 1175 l 328 1055 l 140 1055 l 307 1272 m 758 0 l 68 0 l 68 979 l 758 979 l 758 750 l 355 750 l 355 592 l 733 592 l 733 386 l 355 386 l 355 229 l 758 229 "},"Ể":{"ha":825,"x_min":0,"x_max":0,"o":"m 488 1480 b 600 1500 513 1493 557 1500 b 788 1343 717 1500 788 1441 b 661 1168 788 1274 742 1203 l 588 1260 b 635 1326 626 1276 635 1302 b 564 1379 635 1360 609 1379 b 488 1367 542 1379 507 1374 m 518 1249 l 691 1042 l 501 1042 l 416 1154 l 410 1154 l 325 1042 l 135 1042 l 308 1249 m 758 0 l 68 0 l 68 979 l 758 979 l 758 750 l 355 750 l 355 592 l 733 592 l 733 386 l 355 386 l 355 229 l 758 229 "},"Ề":{"ha":825,"x_min":0,"x_max":0,"o":"m 474 1305 l 313 1496 l 531 1496 l 668 1305 m 518 1249 l 691 1042 l 501 1042 l 416 1154 l 410 1154 l 325 1042 l 135 1042 l 308 1249 m 758 0 l 68 0 l 68 979 l 758 979 l 758 750 l 355 750 l 355 592 l 733 592 l 733 386 l 355 386 l 355 229 l 758 229 "},"Ễ":{"ha":825,"x_min":0,"x_max":0,"o":"m 512 1297 b 328 1379 413 1297 375 1379 b 281 1311 297 1379 283 1347 l 145 1311 b 314 1510 145 1438 222 1510 b 498 1428 413 1510 451 1428 b 545 1499 529 1428 543 1457 l 681 1499 b 512 1297 681 1373 604 1297 m 518 1249 l 691 1042 l 501 1042 l 416 1154 l 410 1154 l 325 1042 l 135 1042 l 308 1249 m 758 0 l 68 0 l 68 979 l 758 979 l 758 750 l 355 750 l 355 592 l 733 592 l 733 386 l 355 386 l 355 229 l 758 229 "},"Ệ":{"ha":825,"x_min":0,"x_max":0,"o":"m 519 1272 l 686 1055 l 498 1055 l 416 1175 l 410 1175 l 328 1055 l 140 1055 l 307 1272 m 758 0 l 68 0 l 68 979 l 758 979 l 758 750 l 355 750 l 355 592 l 733 592 l 733 386 l 355 386 l 355 229 l 758 229 m 412 -330 b 279 -201 338 -330 279 -271 b 412 -71 279 -130 338 -71 b 544 -201 486 -71 544 -130 b 412 -330 544 -271 486 -330 "},"Ế":{"ha":825,"x_min":0,"x_max":0,"o":"m 580 1496 l 798 1496 l 637 1305 l 443 1305 m 518 1249 l 691 1042 l 501 1042 l 416 1154 l 410 1154 l 325 1042 l 135 1042 l 308 1249 m 758 0 l 68 0 l 68 979 l 758 979 l 758 750 l 355 750 l 355 592 l 733 592 l 733 386 l 355 386 l 355 229 l 758 229 "},"Ë":{"ha":825,"x_min":0,"x_max":0,"o":"m 255 1044 b 134 1163 186 1044 134 1098 b 255 1282 134 1228 186 1282 b 378 1163 323 1282 378 1228 b 255 1044 378 1098 323 1044 m 570 1044 b 448 1163 502 1044 448 1098 b 570 1282 448 1228 502 1282 b 692 1163 639 1282 692 1228 b 570 1044 692 1098 639 1044 m 758 0 l 68 0 l 68 979 l 758 979 l 758 750 l 355 750 l 355 592 l 733 592 l 733 386 l 355 386 l 355 229 l 758 229 "},"Ẹ":{"ha":825,"x_min":0,"x_max":0,"o":"m 758 0 l 68 0 l 68 979 l 758 979 l 758 750 l 355 750 l 355 592 l 733 592 l 733 386 l 355 386 l 355 229 l 758 229 m 412 -330 b 279 -201 338 -330 279 -271 b 412 -71 279 -130 338 -71 b 544 -201 486 -71 544 -130 b 412 -330 544 -271 486 -330 "},"Ȇ":{"ha":825,"x_min":0,"x_max":0,"o":"m 521 1046 b 413 1146 518 1109 481 1146 b 305 1046 345 1146 308 1109 l 145 1046 b 413 1272 149 1175 242 1272 b 681 1046 584 1272 677 1175 m 758 0 l 68 0 l 68 979 l 758 979 l 758 750 l 355 750 l 355 592 l 733 592 l 733 386 l 355 386 l 355 229 l 758 229 "},"Ẻ":{"ha":825,"x_min":0,"x_max":0,"o":"m 271 1338 b 383 1358 296 1349 349 1358 b 571 1197 498 1358 571 1295 b 425 1015 571 1126 518 1061 l 351 1100 b 418 1183 401 1126 418 1147 b 340 1239 418 1217 388 1239 b 271 1227 316 1239 290 1234 m 758 0 l 68 0 l 68 979 l 758 979 l 758 750 l 355 750 l 355 592 l 733 592 l 733 386 l 355 386 l 355 229 l 758 229 "},"Ě":{"ha":825,"x_min":0,"x_max":0,"o":"m 307 1055 l 140 1272 l 328 1272 l 410 1152 l 416 1152 l 498 1272 l 686 1272 l 519 1055 m 758 0 l 68 0 l 68 979 l 758 979 l 758 750 l 355 750 l 355 592 l 733 592 l 733 386 l 355 386 l 355 229 l 758 229 "},"Ē":{"ha":825,"x_min":0,"x_max":0,"o":"m 652 1101 l 174 1101 l 174 1236 l 652 1236 m 758 0 l 68 0 l 68 979 l 758 979 l 758 750 l 355 750 l 355 592 l 733 592 l 733 386 l 355 386 l 355 229 l 758 229 "},"Ḕ":{"ha":825,"x_min":0,"x_max":0,"o":"m 325 1305 l 163 1496 l 382 1496 l 519 1305 m 159 1211 l 667 1211 l 667 1089 l 159 1089 m 758 0 l 68 0 l 68 979 l 758 979 l 758 750 l 355 750 l 355 592 l 733 592 l 733 386 l 355 386 l 355 229 l 758 229 "},"Ḗ":{"ha":825,"x_min":0,"x_max":0,"o":"m 444 1496 l 663 1496 l 501 1305 l 307 1305 m 159 1089 l 159 1211 l 667 1211 l 667 1089 m 758 0 l 68 0 l 68 979 l 758 979 l 758 750 l 355 750 l 355 592 l 733 592 l 733 386 l 355 386 l 355 229 l 758 229 "},"Ẽ":{"ha":825,"x_min":0,"x_max":0,"o":"m 513 1051 b 330 1132 410 1051 380 1132 b 278 1058 298 1132 278 1107 l 144 1058 b 311 1270 144 1201 219 1270 b 496 1189 414 1270 449 1189 b 548 1264 534 1189 548 1217 l 682 1264 b 513 1051 680 1126 606 1051 m 758 0 l 68 0 l 68 979 l 758 979 l 758 750 l 355 750 l 355 592 l 733 592 l 733 386 l 355 386 l 355 229 l 758 229 "},"Ḙ":{"ha":825,"x_min":0,"x_max":0,"o":"m 758 0 l 68 0 l 68 979 l 758 979 l 758 750 l 355 750 l 355 592 l 733 592 l 733 386 l 355 386 l 355 229 l 758 229 m 692 -315 l 500 -315 l 416 -199 l 410 -199 l 326 -315 l 134 -315 l 307 -94 l 519 -94 "},"Ĕ":{"ha":825,"x_min":0,"x_max":0,"o":"m 305 1272 b 413 1173 308 1209 345 1173 b 521 1272 481 1173 518 1209 l 681 1272 b 413 1046 677 1143 584 1046 b 145 1272 242 1046 149 1143 m 758 0 l 68 0 l 68 979 l 758 979 l 758 750 l 355 750 l 355 592 l 733 592 l 733 386 l 355 386 l 355 229 l 758 229 "},"Ḛ":{"ha":825,"x_min":0,"x_max":0,"o":"m 758 0 l 68 0 l 68 979 l 758 979 l 758 750 l 355 750 l 355 592 l 733 592 l 733 386 l 355 386 l 355 229 l 758 229 m 513 -310 b 330 -229 410 -310 380 -229 b 278 -303 298 -229 278 -254 l 144 -303 b 311 -92 144 -160 219 -92 b 496 -172 414 -92 449 -172 b 548 -97 534 -172 548 -144 l 682 -97 b 513 -310 680 -235 606 -310 "},"Ė":{"ha":825,"x_min":0,"x_max":0,"o":"m 412 1034 b 279 1163 338 1034 279 1093 b 412 1293 279 1234 338 1293 b 544 1163 486 1293 544 1234 b 412 1034 544 1093 486 1034 m 758 0 l 68 0 l 68 979 l 758 979 l 758 750 l 355 750 l 355 592 l 733 592 l 733 386 l 355 386 l 355 229 l 758 229 "},"Ȩ":{"ha":825,"x_min":0,"x_max":0,"o":"m 327 -66 l 363 0 l 68 0 l 68 979 l 758 979 l 758 750 l 355 750 l 355 592 l 733 592 l 733 386 l 355 386 l 355 229 l 758 229 l 758 0 l 492 0 l 460 -60 b 570 -174 526 -60 570 -105 b 392 -307 570 -262 511 -307 b 302 -296 355 -307 319 -303 l 302 -201 b 369 -209 319 -206 345 -209 b 433 -184 414 -209 433 -201 b 365 -153 433 -160 416 -153 l 327 -153 "},"Ḝ":{"ha":825,"x_min":0,"x_max":0,"o":"m 305 1272 b 413 1173 308 1209 345 1173 b 521 1272 481 1173 518 1209 l 681 1272 b 413 1046 677 1143 584 1046 b 145 1272 242 1046 149 1143 m 327 -66 l 363 0 l 68 0 l 68 979 l 758 979 l 758 750 l 355 750 l 355 592 l 733 592 l 733 386 l 355 386 l 355 229 l 758 229 l 758 0 l 492 0 l 460 -60 b 570 -174 526 -60 570 -105 b 392 -307 570 -262 511 -307 b 302 -296 355 -307 319 -303 l 302 -201 b 369 -209 319 -206 345 -209 b 433 -184 414 -209 433 -201 b 365 -153 433 -160 416 -153 l 327 -153 "},"Ę":{"ha":825,"x_min":0,"x_max":0,"o":"m 602 -335 b 391 -169 460 -335 391 -256 b 484 0 391 -113 420 -49 l 68 0 l 68 979 l 758 979 l 758 750 l 355 750 l 355 592 l 733 592 l 733 386 l 355 386 l 355 229 l 758 229 l 758 0 b 581 -119 637 0 581 -62 b 667 -193 581 -149 597 -193 b 714 -188 680 -193 696 -192 l 714 -319 b 602 -335 675 -330 637 -335 "},"F":{"ha":789,"x_min":0,"x_max":0,"o":"m 68 0 l 68 979 l 755 979 l 755 750 l 355 750 l 355 562 l 718 562 l 718 347 l 355 347 l 355 0 "},"Ḟ":{"ha":789,"x_min":0,"x_max":0,"o":"m 410 1034 b 278 1163 336 1034 278 1093 b 410 1293 278 1234 336 1293 b 543 1163 484 1293 543 1234 b 410 1034 543 1093 484 1034 m 68 0 l 68 979 l 755 979 l 755 750 l 355 750 l 355 562 l 718 562 l 718 347 l 355 347 l 355 0 "},"G":{"ha":1038,"x_min":0,"x_max":0,"o":"m 991 416 b 538 -17 991 149 823 -17 b 44 490 228 -17 44 165 b 530 996 44 811 228 996 b 980 650 775 996 958 851 l 697 650 b 531 769 678 722 614 769 b 337 494 409 769 337 669 b 545 210 337 316 419 210 b 713 340 639 210 705 262 l 715 354 l 566 354 l 566 545 l 991 545 l 991 416 "},"Ǵ":{"ha":1038,"x_min":0,"x_max":0,"o":"m 427 1055 l 521 1272 l 749 1272 l 604 1055 m 991 416 b 538 -17 991 149 823 -17 b 44 490 228 -17 44 165 b 530 996 44 811 228 996 b 980 650 775 996 958 851 l 697 650 b 531 769 678 722 614 769 b 337 494 409 769 337 669 b 545 210 337 316 419 210 b 713 340 639 210 705 262 l 715 354 l 566 354 l 566 545 l 991 545 l 991 416 "},"Ǧ":{"ha":1038,"x_min":0,"x_max":0,"o":"m 410 1055 l 244 1272 l 431 1272 l 514 1152 l 519 1152 l 602 1272 l 789 1272 l 623 1055 m 991 416 b 538 -17 991 149 823 -17 b 44 490 228 -17 44 165 b 530 996 44 811 228 996 b 980 650 775 996 958 851 l 697 650 b 531 769 678 722 614 769 b 337 494 409 769 337 669 b 545 210 337 316 419 210 b 713 340 639 210 705 262 l 715 354 l 566 354 l 566 545 l 991 545 l 991 416 "},"Ĝ":{"ha":1038,"x_min":0,"x_max":0,"o":"m 623 1272 l 789 1055 l 602 1055 l 519 1175 l 514 1175 l 431 1055 l 244 1055 l 410 1272 m 991 416 b 538 -17 991 149 823 -17 b 44 490 228 -17 44 165 b 530 996 44 811 228 996 b 980 650 775 996 958 851 l 697 650 b 531 769 678 722 614 769 b 337 494 409 769 337 669 b 545 210 337 316 419 210 b 713 340 639 210 705 262 l 715 354 l 566 354 l 566 545 l 991 545 l 991 416 "},"Ğ":{"ha":1038,"x_min":0,"x_max":0,"o":"m 409 1272 b 517 1173 412 1209 449 1173 b 625 1272 585 1173 622 1209 l 785 1272 b 517 1046 781 1143 688 1046 b 249 1272 346 1046 253 1143 m 991 416 b 538 -17 991 149 823 -17 b 44 490 228 -17 44 165 b 530 996 44 811 228 996 b 980 650 775 996 958 851 l 697 650 b 531 769 678 722 614 769 b 337 494 409 769 337 669 b 545 210 337 316 419 210 b 713 340 639 210 705 262 l 715 354 l 566 354 l 566 545 l 991 545 l 991 416 "},"Ḡ":{"ha":1038,"x_min":0,"x_max":0,"o":"m 755 1101 l 278 1101 l 278 1236 l 755 1236 m 991 416 b 538 -17 991 149 823 -17 b 44 490 228 -17 44 165 b 530 996 44 811 228 996 b 980 650 775 996 958 851 l 697 650 b 531 769 678 722 614 769 b 337 494 409 769 337 669 b 545 210 337 316 419 210 b 713 340 639 210 705 262 l 715 354 l 566 354 l 566 545 l 991 545 l 991 416 "},"Ġ":{"ha":1038,"x_min":0,"x_max":0,"o":"m 515 1034 b 383 1163 441 1034 383 1093 b 515 1293 383 1234 441 1293 b 648 1163 589 1293 648 1234 b 515 1034 648 1093 589 1034 m 991 416 b 538 -17 991 149 823 -17 b 44 490 228 -17 44 165 b 530 996 44 811 228 996 b 980 650 775 996 958 851 l 697 650 b 531 769 678 722 614 769 b 337 494 409 769 337 669 b 545 210 337 316 419 210 b 713 340 639 210 705 262 l 715 354 l 566 354 l 566 545 l 991 545 l 991 416 "},"Ģ":{"ha":1038,"x_min":0,"x_max":0,"o":"m 991 416 b 538 -17 991 149 823 -17 b 44 490 228 -17 44 165 b 530 996 44 811 228 996 b 980 650 775 996 958 851 l 697 650 b 531 769 678 722 614 769 b 337 494 409 769 337 669 b 545 210 337 316 419 210 b 713 340 639 210 705 262 l 715 354 l 566 354 l 566 545 l 991 545 l 991 416 m 318 -314 l 394 -94 l 640 -94 l 507 -314 "},"H":{"ha":1055,"x_min":0,"x_max":0,"o":"m 700 0 l 700 378 l 355 378 l 355 0 l 68 0 l 68 979 l 355 979 l 355 607 l 700 607 l 700 979 l 987 979 l 987 0 "},"Ḧ":{"ha":1055,"x_min":0,"x_max":0,"o":"m 370 1044 b 248 1163 301 1044 248 1098 b 370 1282 248 1228 301 1282 b 493 1163 438 1282 493 1228 b 370 1044 493 1098 438 1044 m 685 1044 b 562 1163 616 1044 562 1098 b 685 1282 562 1228 616 1282 b 807 1163 753 1282 807 1228 b 685 1044 807 1098 753 1044 m 700 0 l 700 378 l 355 378 l 355 0 l 68 0 l 68 979 l 355 979 l 355 607 l 700 607 l 700 979 l 987 979 l 987 0 "},"Ȟ":{"ha":1055,"x_min":0,"x_max":0,"o":"m 421 1055 l 255 1272 l 442 1272 l 525 1152 l 530 1152 l 613 1272 l 800 1272 l 634 1055 m 700 0 l 700 378 l 355 378 l 355 0 l 68 0 l 68 979 l 355 979 l 355 607 l 700 607 l 700 979 l 987 979 l 987 0 "},"Ĥ":{"ha":1055,"x_min":0,"x_max":0,"o":"m 634 1272 l 800 1055 l 613 1055 l 530 1175 l 525 1175 l 442 1055 l 255 1055 l 421 1272 m 700 0 l 700 378 l 355 378 l 355 0 l 68 0 l 68 979 l 355 979 l 355 607 l 700 607 l 700 979 l 987 979 l 987 0 "},"Ḥ":{"ha":1055,"x_min":0,"x_max":0,"o":"m 700 0 l 700 378 l 355 378 l 355 0 l 68 0 l 68 979 l 355 979 l 355 607 l 700 607 l 700 979 l 987 979 l 987 0 m 526 -330 b 394 -201 452 -330 394 -271 b 526 -71 394 -130 452 -71 b 659 -201 600 -71 659 -130 b 526 -330 659 -271 600 -330 "},"Ḣ":{"ha":1055,"x_min":0,"x_max":0,"o":"m 526 1034 b 394 1163 452 1034 394 1093 b 526 1293 394 1234 452 1293 b 659 1163 600 1293 659 1234 b 526 1034 659 1093 600 1034 m 700 0 l 700 378 l 355 378 l 355 0 l 68 0 l 68 979 l 355 979 l 355 607 l 700 607 l 700 979 l 987 979 l 987 0 "},"Ḫ":{"ha":1055,"x_min":0,"x_max":0,"o":"m 700 0 l 700 378 l 355 378 l 355 0 l 68 0 l 68 979 l 355 979 l 355 607 l 700 607 l 700 979 l 987 979 l 987 0 m 420 -87 b 528 -189 422 -145 460 -189 b 635 -87 595 -189 633 -145 l 795 -87 b 528 -315 791 -209 699 -315 b 260 -87 357 -315 264 -209 "},"Ḩ":{"ha":1055,"x_min":0,"x_max":0,"o":"m 191 -66 l 227 0 l 68 0 l 68 979 l 355 979 l 355 607 l 700 607 l 700 979 l 987 979 l 987 0 l 700 0 l 700 378 l 355 378 l 355 0 l 324 -60 b 434 -174 389 -60 434 -105 b 256 -307 434 -262 374 -307 b 165 -296 218 -307 183 -303 l 165 -201 b 233 -209 182 -206 208 -209 b 296 -184 277 -209 296 -201 b 229 -153 296 -160 279 -153 l 191 -153 "},"Ħ":{"ha":1055,"x_min":0,"x_max":0,"o":"m -47 889 l 68 889 l 68 979 l 355 979 l 355 889 l 700 889 l 700 979 l 987 979 l 987 889 l 1103 889 l 1103 698 l 987 698 l 987 0 l 700 0 l 700 378 l 355 378 l 355 0 l 68 0 l 68 698 l -47 698 m 700 607 l 700 698 l 355 698 l 355 607 "},"I":{"ha":423,"x_min":0,"x_max":0,"o":"m 68 0 l 68 979 l 355 979 l 355 0 "},"İ":{"ha":423,"x_min":0,"x_max":0,"o":"m 210 1034 b 78 1163 136 1034 78 1093 b 210 1293 78 1234 136 1293 b 342 1163 284 1293 342 1234 b 210 1034 342 1093 284 1034 m 68 0 l 68 979 l 355 979 l 355 0 "},"Ì":{"ha":423,"x_min":0,"x_max":0,"o":"m -20 1272 l 208 1272 l 302 1055 l 124 1055 m 68 0 l 68 979 l 355 979 l 355 0 "},"Ȉ":{"ha":423,"x_min":0,"x_max":0,"o":"m 277 1055 l 182 1272 l 385 1272 l 435 1055 m 3 1055 l -142 1272 l 81 1272 l 175 1055 m 68 0 l 68 979 l 355 979 l 355 0 "},"Í":{"ha":423,"x_min":0,"x_max":0,"o":"m 121 1055 l 216 1272 l 444 1272 l 299 1055 m 68 0 l 68 979 l 355 979 l 355 0 "},"Î":{"ha":423,"x_min":0,"x_max":0,"o":"m 318 1272 l 484 1055 l 297 1055 l 214 1175 l 209 1175 l 126 1055 l -61 1055 l 105 1272 m 68 0 l 68 979 l 355 979 l 355 0 "},"Ǐ":{"ha":423,"x_min":0,"x_max":0,"o":"m 105 1055 l -61 1272 l 126 1272 l 209 1152 l 214 1152 l 297 1272 l 484 1272 l 318 1055 m 68 0 l 68 979 l 355 979 l 355 0 "},"Ï":{"ha":423,"x_min":0,"x_max":0,"o":"m 54 1044 b -68 1163 -15 1044 -68 1098 b 54 1282 -68 1228 -15 1282 b 177 1163 122 1282 177 1228 b 54 1044 177 1098 122 1044 m 369 1044 b 246 1163 300 1044 246 1098 b 369 1282 246 1228 300 1282 b 491 1163 437 1282 491 1228 b 369 1044 491 1098 437 1044 m 68 0 l 68 979 l 355 979 l 355 0 "},"Ḯ":{"ha":423,"x_min":0,"x_max":0,"o":"m 243 1496 l 461 1496 l 300 1305 l 106 1305 m 61 1042 b -46 1143 -1 1042 -46 1088 b 61 1245 -46 1200 -1 1245 b 168 1143 123 1245 168 1200 b 61 1042 168 1088 123 1042 m 362 1042 b 255 1143 300 1042 255 1088 b 362 1245 255 1200 300 1245 b 469 1143 425 1245 469 1200 b 362 1042 469 1088 425 1042 m 68 0 l 68 979 l 355 979 l 355 0 "},"Ĭ":{"ha":423,"x_min":0,"x_max":0,"o":"m 104 1272 b 212 1173 106 1209 144 1173 b 319 1272 279 1173 317 1209 l 479 1272 b 212 1046 475 1143 382 1046 b -56 1272 41 1046 -52 1143 m 68 0 l 68 979 l 355 979 l 355 0 "},"Ị":{"ha":423,"x_min":0,"x_max":0,"o":"m 68 0 l 68 979 l 355 979 l 355 0 m 210 -330 b 78 -201 136 -330 78 -271 b 210 -71 78 -130 136 -71 b 342 -201 284 -71 342 -130 b 210 -330 342 -271 284 -330 "},"Ȋ":{"ha":423,"x_min":0,"x_max":0,"o":"m 319 1046 b 212 1146 317 1109 279 1146 b 104 1046 144 1146 106 1109 l -56 1046 b 212 1272 -52 1175 41 1272 b 479 1046 382 1272 475 1175 m 68 0 l 68 979 l 355 979 l 355 0 "},"Ī":{"ha":423,"x_min":0,"x_max":0,"o":"m 450 1101 l -27 1101 l -27 1236 l 450 1236 m 68 0 l 68 979 l 355 979 l 355 0 "},"Ḭ":{"ha":423,"x_min":0,"x_max":0,"o":"m 68 0 l 68 979 l 355 979 l 355 0 m 311 -310 b 129 -229 209 -310 179 -229 b 77 -303 97 -229 77 -254 l -57 -303 b 110 -92 -57 -160 18 -92 b 295 -172 213 -92 248 -172 b 347 -97 332 -172 347 -144 l 480 -97 b 311 -310 478 -235 404 -310 "},"Ỉ":{"ha":423,"x_min":0,"x_max":0,"o":"m 70 1338 b 182 1358 95 1349 148 1358 b 370 1197 296 1358 370 1295 b 223 1015 370 1126 317 1061 l 150 1100 b 217 1183 199 1126 217 1147 b 139 1239 217 1217 186 1239 b 70 1227 115 1239 89 1234 m 68 0 l 68 979 l 355 979 l 355 0 "},"Ĩ":{"ha":423,"x_min":0,"x_max":0,"o":"m 311 1051 b 129 1132 209 1051 179 1132 b 77 1058 97 1132 77 1107 l -57 1058 b 110 1270 -57 1201 18 1270 b 295 1189 213 1270 248 1189 b 347 1264 332 1189 347 1217 l 480 1264 b 311 1051 478 1126 404 1051 m 68 0 l 68 979 l 355 979 l 355 0 "},"Į":{"ha":423,"x_min":0,"x_max":0,"o":"m 342 0 b 165 -119 220 0 165 -62 b 250 -193 165 -149 180 -193 b 298 -188 264 -193 279 -192 l 298 -319 b 186 -335 259 -330 221 -335 b -25 -169 43 -335 -25 -256 b 68 0 -25 -113 3 -49 l 68 979 l 355 979 l 355 0 "},"J":{"ha":862,"x_min":0,"x_max":0,"o":"m 289 347 b 395 224 289 270 329 224 b 492 342 458 224 492 264 l 492 979 l 779 979 l 779 340 b 399 -17 779 110 637 -17 b 14 347 161 -17 14 120 "},"Ĵ":{"ha":862,"x_min":0,"x_max":0,"o":"m 742 1272 l 908 1055 l 721 1055 l 638 1175 l 633 1175 l 550 1055 l 363 1055 l 529 1272 m 289 347 b 395 224 289 270 329 224 b 492 342 458 224 492 264 l 492 979 l 779 979 l 779 340 b 399 -17 779 110 637 -17 b 14 347 161 -17 14 120 "},"K":{"ha":980,"x_min":0,"x_max":0,"o":"m 68 0 l 68 979 l 355 979 l 355 564 l 361 564 l 663 979 l 965 979 l 643 544 l 980 0 l 646 0 l 432 359 l 355 256 l 355 0 "},"Ḱ":{"ha":980,"x_min":0,"x_max":0,"o":"m 400 1055 l 494 1272 l 722 1272 l 578 1055 m 68 0 l 68 979 l 355 979 l 355 564 l 361 564 l 663 979 l 965 979 l 643 544 l 980 0 l 646 0 l 432 359 l 355 256 l 355 0 "},"Ǩ":{"ha":980,"x_min":0,"x_max":0,"o":"m 384 1055 l 218 1272 l 405 1272 l 488 1152 l 493 1152 l 576 1272 l 763 1272 l 597 1055 m 68 0 l 68 979 l 355 979 l 355 564 l 361 564 l 663 979 l 965 979 l 643 544 l 980 0 l 646 0 l 432 359 l 355 256 l 355 0 "},"Ḳ":{"ha":980,"x_min":0,"x_max":0,"o":"m 68 0 l 68 979 l 355 979 l 355 564 l 361 564 l 663 979 l 965 979 l 643 544 l 980 0 l 646 0 l 432 359 l 355 256 l 355 0 m 489 -330 b 357 -201 415 -330 357 -271 b 489 -71 357 -130 415 -71 b 621 -201 563 -71 621 -130 b 489 -330 621 -271 563 -330 "},"Ḵ":{"ha":980,"x_min":0,"x_max":0,"o":"m 68 0 l 68 979 l 355 979 l 355 564 l 361 564 l 663 979 l 965 979 l 643 544 l 980 0 l 646 0 l 432 359 l 355 256 l 355 0 m 729 -268 l 252 -268 l 252 -134 l 729 -134 "},"Ķ":{"ha":980,"x_min":0,"x_max":0,"o":"m 68 0 l 68 979 l 355 979 l 355 564 l 361 564 l 663 979 l 965 979 l 643 544 l 980 0 l 646 0 l 432 359 l 355 256 l 355 0 m 292 -314 l 368 -94 l 613 -94 l 481 -314 "},"L":{"ha":780,"x_min":0,"x_max":0,"o":"m 739 0 l 68 0 l 68 979 l 355 979 l 355 229 l 739 229 "},"Ĺ":{"ha":780,"x_min":0,"x_max":0,"o":"m 121 1055 l 216 1272 l 444 1272 l 299 1055 m 739 0 l 68 0 l 68 979 l 355 979 l 355 229 l 739 229 "},"Ḽ":{"ha":780,"x_min":0,"x_max":0,"o":"m 739 0 l 68 0 l 68 979 l 355 979 l 355 229 l 739 229 m 683 -315 l 490 -315 l 406 -199 l 401 -199 l 317 -315 l 124 -315 l 297 -94 l 510 -94 "},"Ŀ":{"ha":780,"x_min":0,"x_max":0,"o":"m 739 0 l 68 0 l 68 979 l 355 979 l 355 229 l 739 229 m 545 349 b 404 490 467 349 404 412 b 545 631 404 568 467 631 b 686 490 623 631 686 568 b 545 349 686 412 623 349 "},"Ḷ":{"ha":780,"x_min":0,"x_max":0,"o":"m 739 0 l 68 0 l 68 979 l 355 979 l 355 229 l 739 229 m 402 -330 b 270 -201 328 -330 270 -271 b 402 -71 270 -130 328 -71 b 534 -201 476 -71 534 -130 b 402 -330 534 -271 476 -330 "},"Ḹ":{"ha":780,"x_min":0,"x_max":0,"o":"m 450 1101 l -27 1101 l -27 1236 l 450 1236 m 739 0 l 68 0 l 68 979 l 355 979 l 355 229 l 739 229 m 402 -330 b 270 -201 328 -330 270 -271 b 402 -71 270 -130 328 -71 b 534 -201 476 -71 534 -130 b 402 -330 534 -271 476 -330 "},"Ḻ":{"ha":780,"x_min":0,"x_max":0,"o":"m 739 0 l 68 0 l 68 979 l 355 979 l 355 229 l 739 229 m 642 -268 l 165 -268 l 165 -134 l 642 -134 "},"Ļ":{"ha":780,"x_min":0,"x_max":0,"o":"m 739 0 l 68 0 l 68 979 l 355 979 l 355 229 l 739 229 m 205 -314 l 281 -94 l 526 -94 l 394 -314 "},"Ľ":{"ha":780,"x_min":0,"x_max":0,"o":"m 720 1066 l 672 721 l 515 721 l 515 1066 m 739 0 l 68 0 l 68 979 l 355 979 l 355 229 l 739 229 "},"Ł":{"ha":798,"x_min":0,"x_max":0,"o":"m 757 0 l 85 0 l 85 389 l -30 326 l -30 500 l 85 562 l 85 979 l 373 979 l 373 719 l 543 811 l 543 637 l 373 545 l 373 229 l 757 229 "},"M":{"ha":1243,"x_min":0,"x_max":0,"o":"m 924 0 l 924 567 l 919 567 l 699 0 l 545 0 l 324 567 l 319 567 l 319 0 l 68 0 l 68 979 l 400 979 l 619 396 l 625 396 l 843 979 l 1175 979 l 1175 0 "},"Ḿ":{"ha":1243,"x_min":0,"x_max":0,"o":"m 532 1055 l 626 1272 l 854 1272 l 709 1055 m 924 0 l 924 567 l 919 567 l 699 0 l 545 0 l 324 567 l 319 567 l 319 0 l 68 0 l 68 979 l 400 979 l 619 396 l 625 396 l 843 979 l 1175 979 l 1175 0 "},"Ṁ":{"ha":1243,"x_min":0,"x_max":0,"o":"m 621 1034 b 488 1163 547 1034 488 1093 b 621 1293 488 1234 547 1293 b 753 1163 694 1293 753 1234 b 621 1034 753 1093 694 1034 m 924 0 l 924 567 l 919 567 l 699 0 l 545 0 l 324 567 l 319 567 l 319 0 l 68 0 l 68 979 l 400 979 l 619 396 l 625 396 l 843 979 l 1175 979 l 1175 0 "},"Ṃ":{"ha":1243,"x_min":0,"x_max":0,"o":"m 924 0 l 924 567 l 919 567 l 699 0 l 545 0 l 324 567 l 319 567 l 319 0 l 68 0 l 68 979 l 400 979 l 619 396 l 625 396 l 843 979 l 1175 979 l 1175 0 m 621 -330 b 488 -201 547 -330 488 -271 b 621 -71 488 -130 547 -71 b 753 -201 694 -71 753 -130 b 621 -330 753 -271 694 -330 "},"N":{"ha":1013,"x_min":0,"x_max":0,"o":"m 68 0 l 68 979 l 291 979 l 669 471 l 674 471 l 674 979 l 945 979 l 945 0 l 725 0 l 345 515 l 339 515 l 339 0 "},"Ǹ":{"ha":1013,"x_min":0,"x_max":0,"o":"m 275 1272 l 503 1272 l 597 1055 l 419 1055 m 68 0 l 68 979 l 291 979 l 669 471 l 674 471 l 674 979 l 945 979 l 945 0 l 725 0 l 345 515 l 339 515 l 339 0 "},"Ń":{"ha":1013,"x_min":0,"x_max":0,"o":"m 416 1055 l 511 1272 l 739 1272 l 594 1055 m 68 0 l 68 979 l 291 979 l 669 471 l 674 471 l 674 979 l 945 979 l 945 0 l 725 0 l 345 515 l 339 515 l 339 0 "},"Ñ":{"ha":1013,"x_min":0,"x_max":0,"o":"m 606 1051 b 424 1132 504 1051 474 1132 b 372 1058 392 1132 372 1107 l 238 1058 b 405 1270 238 1201 313 1270 b 590 1189 508 1270 543 1189 b 642 1264 627 1189 642 1217 l 775 1264 b 606 1051 773 1126 699 1051 m 68 0 l 68 979 l 291 979 l 669 471 l 674 471 l 674 979 l 945 979 l 945 0 l 725 0 l 345 515 l 339 515 l 339 0 "},"Ṇ":{"ha":1013,"x_min":0,"x_max":0,"o":"m 68 0 l 68 979 l 291 979 l 669 471 l 674 471 l 674 979 l 945 979 l 945 0 l 725 0 l 345 515 l 339 515 l 339 0 m 505 -330 b 373 -201 431 -330 373 -271 b 505 -71 373 -130 431 -71 b 637 -201 579 -71 637 -130 b 505 -330 637 -271 579 -330 "},"Ṅ":{"ha":1013,"x_min":0,"x_max":0,"o":"m 505 1034 b 373 1163 431 1034 373 1093 b 505 1293 373 1234 431 1293 b 637 1163 579 1293 637 1234 b 505 1034 637 1093 579 1034 m 68 0 l 68 979 l 291 979 l 669 471 l 674 471 l 674 979 l 945 979 l 945 0 l 725 0 l 345 515 l 339 515 l 339 0 "},"Ň":{"ha":1013,"x_min":0,"x_max":0,"o":"m 400 1055 l 234 1272 l 421 1272 l 504 1152 l 509 1152 l 592 1272 l 779 1272 l 613 1055 m 68 0 l 68 979 l 291 979 l 669 471 l 674 471 l 674 979 l 945 979 l 945 0 l 725 0 l 345 515 l 339 515 l 339 0 "},"Ṋ":{"ha":1013,"x_min":0,"x_max":0,"o":"m 68 0 l 68 979 l 291 979 l 669 471 l 674 471 l 674 979 l 945 979 l 945 0 l 725 0 l 345 515 l 339 515 l 339 0 m 786 -315 l 593 -315 l 509 -199 l 504 -199 l 420 -315 l 227 -315 l 400 -94 l 613 -94 "},"Ṉ":{"ha":1013,"x_min":0,"x_max":0,"o":"m 68 0 l 68 979 l 291 979 l 669 471 l 674 471 l 674 979 l 945 979 l 945 0 l 725 0 l 345 515 l 339 515 l 339 0 m 745 -268 l 268 -268 l 268 -134 l 745 -134 "},"Ņ":{"ha":1013,"x_min":0,"x_max":0,"o":"m 68 0 l 68 979 l 291 979 l 669 471 l 674 471 l 674 979 l 945 979 l 945 0 l 725 0 l 345 515 l 339 515 l 339 0 m 308 -314 l 384 -94 l 629 -94 l 497 -314 "},"O":{"ha":1074,"x_min":0,"x_max":0,"o":"m 537 996 b 1030 489 840 996 1030 802 b 537 -17 1030 176 840 -17 b 44 489 234 -17 44 176 b 537 996 44 802 235 996 m 537 766 b 337 489 417 766 337 659 b 537 212 337 320 416 212 b 737 489 658 212 737 320 b 537 766 737 659 657 766 "},"Ö":{"ha":1074,"x_min":0,"x_max":0,"o":"m 379 1044 b 258 1163 311 1044 258 1098 b 379 1282 258 1228 311 1282 b 503 1163 448 1282 503 1228 b 379 1044 503 1098 448 1044 m 694 1044 b 572 1163 626 1044 572 1098 b 694 1282 572 1228 626 1282 b 817 1163 763 1282 817 1228 b 694 1044 817 1098 763 1044 m 537 996 b 1030 489 840 996 1030 802 b 537 -17 1030 176 840 -17 b 44 489 234 -17 44 176 b 537 996 44 802 235 996 m 537 766 b 337 489 417 766 337 659 b 537 212 337 320 416 212 b 737 489 658 212 737 320 b 537 766 737 659 657 766 "},"Ø":{"ha":1074,"x_min":0,"x_max":0,"o":"m 537 996 b 823 920 649 996 745 969 l 900 1006 l 1011 907 l 932 819 b 1030 489 996 734 1030 623 b 537 -17 1030 176 840 -17 b 251 58 425 -17 328 9 l 174 -27 l 63 73 l 142 160 b 44 489 79 244 44 356 b 537 996 44 802 235 996 m 537 774 b 331 489 413 774 331 664 b 342 384 331 451 335 416 l 654 732 b 537 774 622 760 583 774 m 743 489 b 732 595 743 528 739 563 l 419 246 b 537 204 452 219 492 204 b 743 489 662 204 743 315 "},"Õ":{"ha":1074,"x_min":0,"x_max":0,"o":"m 637 1051 b 454 1132 534 1051 505 1132 b 402 1058 422 1132 402 1107 l 269 1058 b 435 1270 269 1201 343 1270 b 621 1189 538 1270 573 1189 b 672 1264 658 1189 672 1217 l 806 1264 b 637 1051 804 1126 730 1051 m 537 996 b 1030 489 840 996 1030 802 b 537 -17 1030 176 840 -17 b 44 489 234 -17 44 176 b 537 996 44 802 235 996 m 537 766 b 337 489 417 766 337 659 b 537 212 337 320 416 212 b 737 489 658 212 737 320 b 537 766 737 659 657 766 "},"Ó":{"ha":1074,"x_min":0,"x_max":0,"o":"m 447 1055 l 541 1272 l 769 1272 l 625 1055 m 537 996 b 1030 489 840 996 1030 802 b 537 -17 1030 176 840 -17 b 44 489 234 -17 44 176 b 537 996 44 802 235 996 m 537 766 b 337 489 417 766 337 659 b 537 212 337 320 416 212 b 737 489 658 212 737 320 b 537 766 737 659 657 766 "},"Ô":{"ha":1074,"x_min":0,"x_max":0,"o":"m 644 1272 l 810 1055 l 623 1055 l 540 1175 l 534 1175 l 452 1055 l 264 1055 l 431 1272 m 537 996 b 1030 489 840 996 1030 802 b 537 -17 1030 176 840 -17 b 44 489 234 -17 44 176 b 537 996 44 802 235 996 m 537 766 b 337 489 417 766 337 659 b 537 212 337 320 416 212 b 737 489 658 212 737 320 b 537 766 737 659 657 766 "},"Ò":{"ha":1074,"x_min":0,"x_max":0,"o":"m 305 1272 l 533 1272 l 627 1055 l 450 1055 m 537 996 b 1030 489 840 996 1030 802 b 537 -17 1030 176 840 -17 b 44 489 234 -17 44 176 b 537 996 44 802 235 996 m 537 766 b 337 489 417 766 337 659 b 537 212 337 320 416 212 b 737 489 658 212 737 320 b 537 766 737 659 657 766 "},"Ổ":{"ha":1074,"x_min":0,"x_max":0,"o":"m 612 1480 b 724 1500 637 1493 681 1500 b 912 1343 841 1500 912 1441 b 785 1168 912 1274 866 1203 l 712 1260 b 760 1326 750 1276 760 1302 b 688 1379 760 1360 733 1379 b 612 1367 666 1379 631 1374 m 642 1249 l 815 1042 l 625 1042 l 540 1154 l 534 1154 l 449 1042 l 259 1042 l 432 1249 m 537 996 b 1030 489 840 996 1030 802 b 537 -17 1030 176 840 -17 b 44 489 234 -17 44 176 b 537 996 44 802 235 996 m 537 766 b 337 489 417 766 337 659 b 537 212 337 320 416 212 b 737 489 658 212 737 320 b 537 766 737 659 657 766 "},"Ồ":{"ha":1074,"x_min":0,"x_max":0,"o":"m 598 1305 l 437 1496 l 655 1496 l 792 1305 m 642 1249 l 815 1042 l 625 1042 l 540 1154 l 534 1154 l 449 1042 l 259 1042 l 432 1249 m 537 996 b 1030 489 840 996 1030 802 b 537 -17 1030 176 840 -17 b 44 489 234 -17 44 176 b 537 996 44 802 235 996 m 537 766 b 337 489 417 766 337 659 b 537 212 337 320 416 212 b 737 489 658 212 737 320 b 537 766 737 659 657 766 "},"Ọ":{"ha":1074,"x_min":0,"x_max":0,"o":"m 537 996 b 1030 489 840 996 1030 802 b 537 -17 1030 176 840 -17 b 44 489 234 -17 44 176 b 537 996 44 802 235 996 m 537 766 b 337 489 417 766 337 659 b 537 212 337 320 416 212 b 737 489 658 212 737 320 b 537 766 737 659 657 766 m 536 -330 b 404 -201 462 -330 404 -271 b 536 -71 404 -130 462 -71 b 668 -201 610 -71 668 -130 b 536 -330 668 -271 610 -330 "},"Ȍ":{"ha":1074,"x_min":0,"x_max":0,"o":"m 602 1055 l 508 1272 l 710 1272 l 760 1055 m 328 1055 l 184 1272 l 406 1272 l 500 1055 m 537 996 b 1030 489 840 996 1030 802 b 537 -17 1030 176 840 -17 b 44 489 234 -17 44 176 b 537 996 44 802 235 996 m 537 766 b 337 489 417 766 337 659 b 537 212 337 320 416 212 b 737 489 658 212 737 320 b 537 766 737 659 657 766 "},"Ṍ":{"ha":1074,"x_min":0,"x_max":0,"o":"m 568 1496 l 787 1496 l 625 1305 l 431 1305 m 636 1042 b 452 1124 537 1042 499 1124 b 406 1055 421 1124 408 1091 l 269 1055 b 438 1254 269 1182 346 1254 b 622 1172 537 1254 575 1172 b 669 1244 653 1172 667 1202 l 805 1244 b 636 1042 805 1117 728 1042 m 537 996 b 1030 489 840 996 1030 802 b 537 -17 1030 176 840 -17 b 44 489 234 -17 44 176 b 537 996 44 802 235 996 m 537 766 b 337 489 417 766 337 659 b 537 212 337 320 416 212 b 737 489 658 212 737 320 b 537 766 737 659 657 766 "},"Ṓ":{"ha":1074,"x_min":0,"x_max":0,"o":"m 568 1496 l 787 1496 l 625 1305 l 431 1305 m 283 1089 l 283 1211 l 791 1211 l 791 1089 m 537 996 b 1030 489 840 996 1030 802 b 537 -17 1030 176 840 -17 b 44 489 234 -17 44 176 b 537 996 44 802 235 996 m 537 766 b 337 489 417 766 337 659 b 537 212 337 320 416 212 b 737 489 658 212 737 320 b 537 766 737 659 657 766 "},"Ỗ":{"ha":1074,"x_min":0,"x_max":0,"o":"m 636 1297 b 452 1379 537 1297 499 1379 b 406 1311 421 1379 408 1347 l 269 1311 b 438 1510 269 1438 346 1510 b 622 1428 537 1510 575 1428 b 669 1499 653 1428 667 1457 l 805 1499 b 636 1297 805 1373 728 1297 m 642 1249 l 815 1042 l 625 1042 l 540 1154 l 534 1154 l 449 1042 l 259 1042 l 432 1249 m 537 996 b 1030 489 840 996 1030 802 b 537 -17 1030 176 840 -17 b 44 489 234 -17 44 176 b 537 996 44 802 235 996 m 537 766 b 337 489 417 766 337 659 b 537 212 337 320 416 212 b 737 489 658 212 737 320 b 537 766 737 659 657 766 "},"Ȱ":{"ha":1074,"x_min":0,"x_max":0,"o":"m 791 1316 l 283 1316 l 283 1438 l 791 1438 m 537 1042 b 430 1143 475 1042 430 1088 b 537 1245 430 1199 475 1245 b 644 1143 600 1245 644 1199 b 537 1042 644 1088 600 1042 m 537 996 b 1030 489 840 996 1030 802 b 537 -17 1030 176 840 -17 b 44 489 234 -17 44 176 b 537 996 44 802 235 996 m 537 766 b 337 489 417 766 337 659 b 537 212 337 320 416 212 b 737 489 658 212 737 320 b 537 766 737 659 657 766 "},"Ṑ":{"ha":1074,"x_min":0,"x_max":0,"o":"m 449 1305 l 288 1496 l 506 1496 l 643 1305 m 283 1211 l 791 1211 l 791 1089 l 283 1089 m 537 996 b 1030 489 840 996 1030 802 b 537 -17 1030 176 840 -17 b 44 489 234 -17 44 176 b 537 996 44 802 235 996 m 537 766 b 337 489 417 766 337 659 b 537 212 337 320 416 212 b 737 489 658 212 737 320 b 537 766 737 659 657 766 "},"Ǒ":{"ha":1074,"x_min":0,"x_max":0,"o":"m 431 1055 l 264 1272 l 452 1272 l 534 1152 l 540 1152 l 623 1272 l 810 1272 l 644 1055 m 537 996 b 1030 489 840 996 1030 802 b 537 -17 1030 176 840 -17 b 44 489 234 -17 44 176 b 537 996 44 802 235 996 m 537 766 b 337 489 417 766 337 659 b 537 212 337 320 416 212 b 737 489 658 212 737 320 b 537 766 737 659 657 766 "},"Ǿ":{"ha":1074,"x_min":0,"x_max":0,"o":"m 447 1055 l 541 1272 l 769 1272 l 625 1055 m 537 996 b 823 920 649 996 745 969 l 900 1006 l 1011 907 l 932 819 b 1030 489 996 734 1030 623 b 537 -17 1030 176 840 -17 b 251 58 425 -17 328 9 l 174 -27 l 63 73 l 142 160 b 44 489 79 244 44 356 b 537 996 44 802 235 996 m 537 774 b 331 489 413 774 331 664 b 342 384 331 451 335 416 l 654 732 b 537 774 622 760 583 774 m 743 489 b 732 595 743 528 739 563 l 419 246 b 537 204 452 219 492 204 b 743 489 662 204 743 315 "},"Ő":{"ha":1074,"x_min":0,"x_max":0,"o":"m 364 1272 l 566 1272 l 472 1055 l 314 1055 m 668 1272 l 890 1272 l 746 1055 l 574 1055 m 537 996 b 1030 489 840 996 1030 802 b 537 -17 1030 176 840 -17 b 44 489 234 -17 44 176 b 537 996 44 802 235 996 m 537 766 b 337 489 417 766 337 659 b 537 212 337 320 416 212 b 737 489 658 212 737 320 b 537 766 737 659 657 766 "},"Ŏ":{"ha":1074,"x_min":0,"x_max":0,"o":"m 429 1272 b 537 1173 432 1209 469 1173 b 645 1272 605 1173 642 1209 l 805 1272 b 537 1046 801 1143 708 1046 b 269 1272 366 1046 273 1143 m 537 996 b 1030 489 840 996 1030 802 b 537 -17 1030 176 840 -17 b 44 489 234 -17 44 176 b 537 996 44 802 235 996 m 537 766 b 337 489 417 766 337 659 b 537 212 337 320 416 212 b 737 489 658 212 737 320 b 537 766 737 659 657 766 "},"Ȏ":{"ha":1074,"x_min":0,"x_max":0,"o":"m 645 1046 b 537 1146 642 1109 605 1146 b 429 1046 469 1146 432 1109 l 269 1046 b 537 1272 273 1175 366 1272 b 805 1046 708 1272 801 1175 m 537 996 b 1030 489 840 996 1030 802 b 537 -17 1030 176 840 -17 b 44 489 234 -17 44 176 b 537 996 44 802 235 996 m 537 766 b 337 489 417 766 337 659 b 537 212 337 320 416 212 b 737 489 658 212 737 320 b 537 766 737 659 657 766 "},"Ỏ":{"ha":1074,"x_min":0,"x_max":0,"o":"m 395 1338 b 507 1358 420 1349 473 1358 b 695 1197 622 1358 695 1295 b 549 1015 695 1126 642 1061 l 475 1100 b 543 1183 525 1126 543 1147 b 465 1239 543 1217 512 1239 b 395 1227 440 1239 414 1234 m 537 996 b 1030 489 840 996 1030 802 b 537 -17 1030 176 840 -17 b 44 489 234 -17 44 176 b 537 996 44 802 235 996 m 537 766 b 337 489 417 766 337 659 b 537 212 337 320 416 212 b 737 489 658 212 737 320 b 537 766 737 659 657 766 "},"Ȫ":{"ha":1074,"x_min":0,"x_max":0,"o":"m 791 1438 l 791 1316 l 283 1316 l 283 1438 m 387 1245 b 494 1143 449 1245 494 1200 b 387 1042 494 1088 449 1042 b 279 1143 324 1042 279 1088 b 387 1245 279 1200 324 1245 m 688 1245 b 795 1143 750 1245 795 1200 b 688 1042 795 1088 750 1042 b 581 1143 625 1042 581 1088 b 688 1245 581 1200 625 1245 m 537 996 b 1030 489 840 996 1030 802 b 537 -17 1030 176 840 -17 b 44 489 234 -17 44 176 b 537 996 44 802 235 996 m 537 766 b 337 489 417 766 337 659 b 537 212 337 320 416 212 b 737 489 658 212 737 320 b 537 766 737 659 657 766 "},"Ȭ":{"ha":1074,"x_min":0,"x_max":0,"o":"m 791 1316 l 283 1316 l 283 1438 l 791 1438 m 636 1042 b 452 1124 537 1042 499 1124 b 406 1055 421 1124 408 1091 l 269 1055 b 438 1254 269 1182 346 1254 b 622 1172 537 1254 575 1172 b 669 1244 653 1172 667 1202 l 805 1244 b 636 1042 805 1117 728 1042 m 537 996 b 1030 489 840 996 1030 802 b 537 -17 1030 176 840 -17 b 44 489 234 -17 44 176 b 537 996 44 802 235 996 m 537 766 b 337 489 417 766 337 659 b 537 212 337 320 416 212 b 737 489 658 212 737 320 b 537 766 737 659 657 766 "},"Ȯ":{"ha":1074,"x_min":0,"x_max":0,"o":"m 536 1034 b 404 1163 462 1034 404 1093 b 536 1293 404 1234 462 1293 b 668 1163 610 1293 668 1234 b 536 1034 668 1093 610 1034 m 537 996 b 1030 489 840 996 1030 802 b 537 -17 1030 176 840 -17 b 44 489 234 -17 44 176 b 537 996 44 802 235 996 m 537 766 b 337 489 417 766 337 659 b 537 212 337 320 416 212 b 737 489 658 212 737 320 b 537 766 737 659 657 766 "},"Ộ":{"ha":1074,"x_min":0,"x_max":0,"o":"m 644 1272 l 810 1055 l 623 1055 l 540 1175 l 534 1175 l 452 1055 l 264 1055 l 431 1272 m 537 996 b 1030 489 840 996 1030 802 b 537 -17 1030 176 840 -17 b 44 489 234 -17 44 176 b 537 996 44 802 235 996 m 537 766 b 337 489 417 766 337 659 b 537 212 337 320 416 212 b 737 489 658 212 737 320 b 537 766 737 659 657 766 m 536 -330 b 404 -201 462 -330 404 -271 b 536 -71 404 -130 462 -71 b 668 -201 610 -71 668 -130 b 536 -330 668 -271 610 -330 "},"Ố":{"ha":1074,"x_min":0,"x_max":0,"o":"m 704 1496 l 922 1496 l 761 1305 l 567 1305 m 642 1249 l 815 1042 l 625 1042 l 540 1154 l 534 1154 l 449 1042 l 259 1042 l 432 1249 m 537 996 b 1030 489 840 996 1030 802 b 537 -17 1030 176 840 -17 b 44 489 234 -17 44 176 b 537 996 44 802 235 996 m 537 766 b 337 489 417 766 337 659 b 537 212 337 320 416 212 b 737 489 658 212 737 320 b 537 766 737 659 657 766 "},"Ṏ":{"ha":1074,"x_min":0,"x_max":0,"o":"m 387 1510 b 494 1409 449 1510 494 1465 b 387 1307 494 1353 449 1307 b 279 1409 324 1307 279 1353 b 387 1510 279 1465 324 1510 m 688 1510 b 795 1409 750 1510 795 1465 b 688 1307 795 1353 750 1307 b 581 1409 625 1307 581 1353 b 688 1510 581 1465 625 1510 m 636 1042 b 452 1124 537 1042 499 1124 b 406 1055 421 1124 408 1091 l 269 1055 b 438 1254 269 1182 346 1254 b 622 1172 537 1254 575 1172 b 669 1237 653 1172 667 1202 l 805 1237 b 636 1042 805 1117 728 1042 m 537 996 b 1030 489 840 996 1030 802 b 537 -17 1030 176 840 -17 b 44 489 234 -17 44 176 b 537 996 44 802 235 996 m 537 766 b 337 489 417 766 337 659 b 537 212 337 320 416 212 b 737 489 658 212 737 320 b 537 766 737 659 657 766 "},"Ō":{"ha":1074,"x_min":0,"x_max":0,"o":"m 776 1101 l 298 1101 l 298 1236 l 776 1236 m 537 996 b 1030 489 840 996 1030 802 b 537 -17 1030 176 840 -17 b 44 489 234 -17 44 176 b 537 996 44 802 235 996 m 537 766 b 337 489 417 766 337 659 b 537 212 337 320 416 212 b 737 489 658 212 737 320 b 537 766 737 659 657 766 "},"Ǫ":{"ha":1074,"x_min":0,"x_max":0,"o":"m 709 -330 b 498 -176 566 -330 498 -263 b 584 -16 498 -117 529 -60 b 537 -17 569 -16 553 -17 b 44 489 234 -17 44 176 b 537 996 44 802 235 996 b 1030 489 840 996 1030 802 b 835 66 1030 298 959 151 b 688 -115 743 -1 688 -53 b 773 -188 688 -161 728 -188 b 821 -182 787 -188 802 -186 l 821 -313 b 709 -330 782 -324 744 -330 m 537 766 b 337 489 417 766 337 659 b 537 212 337 320 416 212 b 737 489 658 212 737 320 b 537 766 737 659 657 766 "},"Ǭ":{"ha":1074,"x_min":0,"x_max":0,"o":"m 776 1101 l 298 1101 l 298 1236 l 776 1236 m 709 -330 b 498 -176 566 -330 498 -263 b 584 -16 498 -117 529 -60 b 537 -17 569 -16 553 -17 b 44 489 234 -17 44 176 b 537 996 44 802 235 996 b 1030 489 840 996 1030 802 b 835 66 1030 298 959 151 b 688 -115 743 -1 688 -53 b 773 -188 688 -161 728 -188 b 821 -182 787 -188 802 -186 l 821 -313 b 709 -330 782 -324 744 -330 m 537 766 b 337 489 417 766 337 659 b 537 212 337 320 416 212 b 737 489 658 212 737 320 b 537 766 737 659 657 766 "},"Ơ":{"ha":1153,"x_min":0,"x_max":0,"o":"m 537 -17 b 44 489 233 -17 44 177 b 537 996 44 801 234 996 b 840 955 671 996 725 955 b 913 1013 887 955 913 976 l 913 1139 l 1119 1139 l 1119 956 b 962 793 1119 848 1065 793 l 919 793 l 919 787 b 1030 489 982 734 1030 600 b 537 -17 1030 178 841 -17 m 537 212 b 737 489 659 212 737 321 b 537 766 737 657 659 766 b 337 489 416 766 337 657 b 537 212 337 321 416 212 "},"Ợ":{"ha":1153,"x_min":0,"x_max":0,"o":"m 537 -17 b 44 489 233 -17 44 177 b 537 996 44 801 234 996 b 840 955 671 996 725 955 b 913 1013 887 955 913 976 l 913 1139 l 1119 1139 l 1119 956 b 962 793 1119 848 1065 793 l 919 793 l 919 787 b 1030 489 982 734 1030 600 b 537 -17 1030 178 841 -17 m 537 212 b 737 489 659 212 737 321 b 537 766 737 657 659 766 b 337 489 416 766 337 657 b 537 212 337 321 416 212 m 536 -329 b 404 -199 462 -329 404 -270 b 536 -70 404 -129 462 -70 b 668 -199 610 -70 668 -129 b 536 -329 668 -270 610 -329 "},"Ở":{"ha":1153,"x_min":0,"x_max":0,"o":"m 395 1339 b 507 1360 420 1350 473 1360 b 695 1198 622 1360 695 1297 b 549 1017 695 1128 642 1062 l 475 1101 b 543 1184 525 1127 543 1149 b 465 1240 543 1218 512 1240 b 395 1228 440 1240 414 1236 m 537 -17 b 44 489 233 -17 44 177 b 537 996 44 801 234 996 b 840 955 671 996 725 955 b 913 1013 887 955 913 976 l 913 1139 l 1119 1139 l 1119 956 b 962 793 1119 848 1065 793 l 919 793 l 919 787 b 1030 489 982 734 1030 600 b 537 -17 1030 178 841 -17 m 537 212 b 737 489 659 212 737 321 b 537 766 737 657 659 766 b 337 489 416 766 337 657 b 537 212 337 321 416 212 "},"Ỡ":{"ha":1153,"x_min":0,"x_max":0,"o":"m 637 1053 b 454 1133 534 1053 505 1133 b 402 1059 422 1133 402 1108 l 269 1059 b 435 1271 269 1202 343 1271 b 621 1190 538 1271 573 1190 b 672 1265 658 1190 672 1219 l 806 1265 b 637 1053 804 1127 730 1053 m 537 -17 b 44 489 233 -17 44 177 b 537 996 44 801 234 996 b 840 955 671 996 725 955 b 913 1013 887 955 913 976 l 913 1139 l 1119 1139 l 1119 956 b 962 793 1119 848 1065 793 l 919 793 l 919 787 b 1030 489 982 734 1030 600 b 537 -17 1030 178 841 -17 m 537 212 b 737 489 659 212 737 321 b 537 766 737 657 659 766 b 337 489 416 766 337 657 b 537 212 337 321 416 212 "},"Ờ":{"ha":1153,"x_min":0,"x_max":0,"o":"m 305 1274 l 533 1274 l 627 1056 l 450 1056 m 537 -17 b 44 489 233 -17 44 177 b 537 996 44 801 234 996 b 840 955 671 996 725 955 b 913 1013 887 955 913 976 l 913 1139 l 1119 1139 l 1119 956 b 962 793 1119 848 1065 793 l 919 793 l 919 787 b 1030 489 982 734 1030 600 b 537 -17 1030 178 841 -17 m 537 212 b 737 489 659 212 737 321 b 537 766 737 657 659 766 b 337 489 416 766 337 657 b 537 212 337 321 416 212 "},"Ớ":{"ha":1153,"x_min":0,"x_max":0,"o":"m 447 1056 l 541 1274 l 769 1274 l 625 1056 m 537 -17 b 44 489 233 -17 44 177 b 537 996 44 801 234 996 b 840 955 671 996 725 955 b 913 1013 887 955 913 976 l 913 1139 l 1119 1139 l 1119 956 b 962 793 1119 848 1065 793 l 919 793 l 919 787 b 1030 489 982 734 1030 600 b 537 -17 1030 178 841 -17 m 537 212 b 737 489 659 212 737 321 b 537 766 737 657 659 766 b 337 489 416 766 337 657 b 537 212 337 321 416 212 "},"P":{"ha":913,"x_min":0,"x_max":0,"o":"m 515 979 b 879 622 732 979 879 840 b 495 267 879 406 724 267 l 355 267 l 355 0 l 68 0 l 68 979 m 355 479 l 436 479 b 589 621 532 479 589 528 b 438 762 589 714 532 762 l 355 762 "},"Ṗ":{"ha":913,"x_min":0,"x_max":0,"o":"m 455 1034 b 323 1163 381 1034 323 1093 b 455 1293 323 1234 381 1293 b 587 1163 529 1293 587 1234 b 455 1034 587 1093 529 1034 m 515 979 b 879 622 732 979 879 840 b 495 267 879 406 724 267 l 355 267 l 355 0 l 68 0 l 68 979 m 355 479 l 436 479 b 589 621 532 479 589 528 b 438 762 589 714 532 762 l 355 762 "},"Ṕ":{"ha":913,"x_min":0,"x_max":0,"o":"m 366 1055 l 460 1272 l 688 1272 l 544 1055 m 515 979 b 879 622 732 979 879 840 b 495 267 879 406 724 267 l 355 267 l 355 0 l 68 0 l 68 979 m 355 479 l 436 479 b 589 621 532 479 589 528 b 438 762 589 714 532 762 l 355 762 "},"Q":{"ha":1074,"x_min":0,"x_max":0,"o":"m 536 -17 b 43 490 229 -17 43 179 b 536 996 43 799 237 996 b 1029 490 836 996 1029 806 b 876 103 1029 328 983 192 l 1013 -73 l 768 -73 l 706 7 b 536 -17 654 -9 597 -17 m 536 203 b 553 204 543 203 548 203 l 431 363 l 675 363 l 709 319 b 743 490 732 367 743 429 b 536 775 743 660 661 775 b 332 490 412 775 332 660 b 536 203 332 319 412 203 "},"R":{"ha":946,"x_min":0,"x_max":0,"o":"m 355 0 l 68 0 l 68 979 l 503 979 b 898 646 764 979 898 856 b 740 371 898 531 842 420 l 926 0 l 604 0 l 450 328 l 355 328 m 355 518 l 474 518 b 604 642 555 518 604 568 b 475 766 604 714 552 766 l 355 766 "},"Ř":{"ha":946,"x_min":0,"x_max":0,"o":"m 367 1055 l 201 1272 l 388 1272 l 471 1152 l 476 1152 l 559 1272 l 746 1272 l 580 1055 m 355 0 l 68 0 l 68 979 l 503 979 b 898 646 764 979 898 856 b 740 371 898 531 842 420 l 926 0 l 604 0 l 450 328 l 355 328 m 355 518 l 474 518 b 604 642 555 518 604 568 b 475 766 604 714 552 766 l 355 766 "},"Ṟ":{"ha":946,"x_min":0,"x_max":0,"o":"m 355 0 l 68 0 l 68 979 l 503 979 b 898 646 764 979 898 856 b 740 371 898 531 842 420 l 926 0 l 604 0 l 450 328 l 355 328 m 355 518 l 474 518 b 604 642 555 518 604 568 b 475 766 604 714 552 766 l 355 766 m 712 -268 l 235 -268 l 235 -134 l 712 -134 "},"Ṝ":{"ha":946,"x_min":0,"x_max":0,"o":"m 712 1101 l 235 1101 l 235 1236 l 712 1236 m 355 0 l 68 0 l 68 979 l 503 979 b 898 646 764 979 898 856 b 740 371 898 531 842 420 l 926 0 l 604 0 l 450 328 l 355 328 m 355 518 l 474 518 b 604 642 555 518 604 568 b 475 766 604 714 552 766 l 355 766 m 472 -330 b 340 -201 398 -330 340 -271 b 472 -71 340 -130 398 -71 b 604 -201 546 -71 604 -130 b 472 -330 604 -271 546 -330 "},"Ȑ":{"ha":946,"x_min":0,"x_max":0,"o":"m 538 1055 l 444 1272 l 646 1272 l 696 1055 m 264 1055 l 120 1272 l 342 1272 l 437 1055 m 355 0 l 68 0 l 68 979 l 503 979 b 898 646 764 979 898 856 b 740 371 898 531 842 420 l 926 0 l 604 0 l 450 328 l 355 328 m 355 518 l 474 518 b 604 642 555 518 604 568 b 475 766 604 714 552 766 l 355 766 "},"Ȓ":{"ha":946,"x_min":0,"x_max":0,"o":"m 581 1046 b 473 1146 578 1109 541 1146 b 366 1046 406 1146 368 1109 l 205 1046 b 473 1272 210 1175 302 1272 b 741 1046 644 1272 737 1175 m 355 0 l 68 0 l 68 979 l 503 979 b 898 646 764 979 898 856 b 740 371 898 531 842 420 l 926 0 l 604 0 l 450 328 l 355 328 m 355 518 l 474 518 b 604 642 555 518 604 568 b 475 766 604 714 552 766 l 355 766 "},"Ŕ":{"ha":946,"x_min":0,"x_max":0,"o":"m 383 1055 l 477 1272 l 705 1272 l 561 1055 m 355 0 l 68 0 l 68 979 l 503 979 b 898 646 764 979 898 856 b 740 371 898 531 842 420 l 926 0 l 604 0 l 450 328 l 355 328 m 355 518 l 474 518 b 604 642 555 518 604 568 b 475 766 604 714 552 766 l 355 766 "},"Ṛ":{"ha":946,"x_min":0,"x_max":0,"o":"m 355 0 l 68 0 l 68 979 l 503 979 b 898 646 764 979 898 856 b 740 371 898 531 842 420 l 926 0 l 604 0 l 450 328 l 355 328 m 355 518 l 474 518 b 604 642 555 518 604 568 b 475 766 604 714 552 766 l 355 766 m 472 -330 b 340 -201 398 -330 340 -271 b 472 -71 340 -130 398 -71 b 604 -201 546 -71 604 -130 b 472 -330 604 -271 546 -330 "},"Ṙ":{"ha":946,"x_min":0,"x_max":0,"o":"m 472 1034 b 340 1163 398 1034 340 1093 b 472 1293 340 1234 398 1293 b 604 1163 546 1293 604 1234 b 472 1034 604 1093 546 1034 m 355 0 l 68 0 l 68 979 l 503 979 b 898 646 764 979 898 856 b 740 371 898 531 842 420 l 926 0 l 604 0 l 450 328 l 355 328 m 355 518 l 474 518 b 604 642 555 518 604 568 b 475 766 604 714 552 766 l 355 766 "},"Ŗ":{"ha":946,"x_min":0,"x_max":0,"o":"m 355 0 l 68 0 l 68 979 l 503 979 b 898 646 764 979 898 856 b 740 371 898 531 842 420 l 926 0 l 604 0 l 450 328 l 355 328 m 355 518 l 474 518 b 604 642 555 518 604 568 b 475 766 604 714 552 766 l 355 766 m 275 -314 l 351 -94 l 596 -94 l 464 -314 "},"S":{"ha":929,"x_min":0,"x_max":0,"o":"m 305 296 b 466 203 316 237 385 203 b 605 287 552 203 605 239 b 457 372 605 333 567 353 l 359 390 b 58 675 164 425 58 523 b 460 996 58 871 227 996 b 869 681 722 996 868 874 l 605 681 b 463 775 603 741 542 775 b 342 696 383 775 342 740 b 482 613 342 652 385 631 l 581 595 b 890 313 791 557 890 471 b 463 -17 890 111 732 -17 b 41 296 209 -17 41 96 "},"Š":{"ha":929,"x_min":0,"x_max":0,"o":"m 358 1055 l 192 1272 l 379 1272 l 462 1152 l 467 1152 l 550 1272 l 737 1272 l 571 1055 m 305 296 b 466 203 316 237 385 203 b 605 287 552 203 605 239 b 457 372 605 333 567 353 l 359 390 b 58 675 164 425 58 523 b 460 996 58 871 227 996 b 869 681 722 996 868 874 l 605 681 b 463 775 603 741 542 775 b 342 696 383 775 342 740 b 482 613 342 652 385 631 l 581 595 b 890 313 791 557 890 471 b 463 -17 890 111 732 -17 b 41 296 209 -17 41 96 "},"Ş":{"ha":929,"x_min":0,"x_max":0,"o":"m 305 296 b 466 203 316 237 385 203 b 605 287 552 203 605 239 b 457 372 605 333 567 353 l 359 390 b 58 675 164 425 58 523 b 460 996 58 871 227 996 b 869 681 722 996 868 874 l 605 681 b 463 775 603 741 542 775 b 342 696 383 775 342 740 b 482 613 342 652 385 631 l 581 595 b 890 313 791 557 890 471 b 536 -14 890 130 761 8 l 512 -60 b 622 -174 577 -60 622 -105 b 444 -307 622 -262 562 -307 b 353 -296 406 -307 371 -303 l 353 -201 b 420 -209 370 -206 396 -209 b 484 -184 465 -209 484 -201 b 416 -153 484 -160 467 -153 l 378 -153 l 378 -66 l 407 -15 b 41 296 184 1 41 111 "},"Ṡ":{"ha":929,"x_min":0,"x_max":0,"o":"m 463 1034 b 331 1163 389 1034 331 1093 b 463 1293 331 1234 389 1293 b 595 1163 537 1293 595 1234 b 463 1034 595 1093 537 1034 m 305 296 b 466 203 316 237 385 203 b 605 287 552 203 605 239 b 457 372 605 333 567 353 l 359 390 b 58 675 164 425 58 523 b 460 996 58 871 227 996 b 869 681 722 996 868 874 l 605 681 b 463 775 603 741 542 775 b 342 696 383 775 342 740 b 482 613 342 652 385 631 l 581 595 b 890 313 791 557 890 471 b 463 -17 890 111 732 -17 b 41 296 209 -17 41 96 "},"Ṣ":{"ha":929,"x_min":0,"x_max":0,"o":"m 305 296 b 466 203 316 237 385 203 b 605 287 552 203 605 239 b 457 372 605 333 567 353 l 359 390 b 58 675 164 425 58 523 b 460 996 58 871 227 996 b 869 681 722 996 868 874 l 605 681 b 463 775 603 741 542 775 b 342 696 383 775 342 740 b 482 613 342 652 385 631 l 581 595 b 890 313 791 557 890 471 b 463 -17 890 111 732 -17 b 41 296 209 -17 41 96 m 463 -330 b 331 -201 389 -330 331 -271 b 463 -71 331 -130 389 -71 b 595 -201 537 -71 595 -130 b 463 -330 595 -271 537 -330 "},"Ș":{"ha":929,"x_min":0,"x_max":0,"o":"m 305 296 b 466 203 316 237 385 203 b 605 287 552 203 605 239 b 457 372 605 333 567 353 l 359 390 b 58 675 164 425 58 523 b 460 996 58 871 227 996 b 869 681 722 996 868 874 l 605 681 b 463 775 603 741 542 775 b 342 696 383 775 342 740 b 482 613 342 652 385 631 l 581 595 b 890 313 791 557 890 471 b 463 -17 890 111 732 -17 b 41 296 209 -17 41 96 m 266 -314 l 342 -94 l 587 -94 l 455 -314 "},"Ṩ":{"ha":929,"x_min":0,"x_max":0,"o":"m 463 1034 b 331 1163 389 1034 331 1093 b 463 1293 331 1234 389 1293 b 595 1163 537 1293 595 1234 b 463 1034 595 1093 537 1034 m 305 296 b 466 203 316 237 385 203 b 605 287 552 203 605 239 b 457 372 605 333 567 353 l 359 390 b 58 675 164 425 58 523 b 460 996 58 871 227 996 b 869 681 722 996 868 874 l 605 681 b 463 775 603 741 542 775 b 342 696 383 775 342 740 b 482 613 342 652 385 631 l 581 595 b 890 313 791 557 890 471 b 463 -17 890 111 732 -17 b 41 296 209 -17 41 96 m 463 -330 b 331 -201 389 -330 331 -271 b 463 -71 331 -130 389 -71 b 595 -201 537 -71 595 -130 b 463 -330 595 -271 537 -330 "},"Ṧ":{"ha":929,"x_min":0,"x_max":0,"o":"m 465 1268 b 357 1370 402 1268 357 1314 b 465 1472 357 1426 402 1472 b 572 1370 527 1472 572 1426 b 465 1268 572 1314 527 1268 m 186 1249 l 376 1249 l 462 1137 l 467 1137 l 553 1249 l 743 1249 l 570 1042 l 359 1042 m 305 296 b 466 203 316 237 385 203 b 605 287 552 203 605 239 b 457 372 605 333 567 353 l 359 390 b 58 675 164 425 58 523 b 460 996 58 871 227 996 b 869 681 722 996 868 874 l 605 681 b 463 775 603 741 542 775 b 342 696 383 775 342 740 b 482 613 342 652 385 631 l 581 595 b 890 313 791 557 890 471 b 463 -17 890 111 732 -17 b 41 296 209 -17 41 96 "},"Ŝ":{"ha":929,"x_min":0,"x_max":0,"o":"m 571 1272 l 737 1055 l 550 1055 l 467 1175 l 462 1175 l 379 1055 l 192 1055 l 358 1272 m 305 296 b 466 203 316 237 385 203 b 605 287 552 203 605 239 b 457 372 605 333 567 353 l 359 390 b 58 675 164 425 58 523 b 460 996 58 871 227 996 b 869 681 722 996 868 874 l 605 681 b 463 775 603 741 542 775 b 342 696 383 775 342 740 b 482 613 342 652 385 631 l 581 595 b 890 313 791 557 890 471 b 463 -17 890 111 732 -17 b 41 296 209 -17 41 96 "},"Ṥ":{"ha":929,"x_min":0,"x_max":0,"o":"m 276 1034 b 144 1163 202 1034 144 1093 b 276 1293 144 1234 202 1293 b 408 1163 350 1293 408 1234 b 276 1034 408 1093 350 1034 m 465 1055 l 559 1272 l 787 1272 l 643 1055 m 305 296 b 466 203 316 237 385 203 b 605 287 552 203 605 239 b 457 372 605 333 567 353 l 359 390 b 58 675 164 425 58 523 b 460 996 58 871 227 996 b 869 681 722 996 868 874 l 605 681 b 463 775 603 741 542 775 b 342 696 383 775 342 740 b 482 613 342 652 385 631 l 581 595 b 890 313 791 557 890 471 b 463 -17 890 111 732 -17 b 41 296 209 -17 41 96 "},"Ś":{"ha":929,"x_min":0,"x_max":0,"o":"m 374 1055 l 469 1272 l 696 1272 l 552 1055 m 305 296 b 466 203 316 237 385 203 b 605 287 552 203 605 239 b 457 372 605 333 567 353 l 359 390 b 58 675 164 425 58 523 b 460 996 58 871 227 996 b 869 681 722 996 868 874 l 605 681 b 463 775 603 741 542 775 b 342 696 383 775 342 740 b 482 613 342 652 385 631 l 581 595 b 890 313 791 557 890 471 b 463 -17 890 111 732 -17 b 41 296 209 -17 41 96 "},"ẞ":{"ha":1023,"x_min":0,"x_max":0,"o":"m 656 -17 b 429 22 566 -17 493 -5 l 429 266 b 602 218 500 231 549 218 b 691 300 658 218 691 249 l 691 302 b 593 390 691 347 659 376 l 510 407 l 510 576 l 648 750 b 566 760 621 756 593 760 b 355 553 433 763 355 686 l 355 0 l 68 0 l 68 586 b 538 995 68 848 237 995 b 937 919 652 995 810 965 l 937 742 l 785 551 b 984 285 918 505 984 416 l 984 283 b 656 -17 984 108 848 -17 "},"T":{"ha":864,"x_min":0,"x_max":0,"o":"m 288 0 l 288 750 l 31 750 l 31 979 l 833 979 l 833 750 l 576 750 l 576 0 "},"Ṱ":{"ha":864,"x_min":0,"x_max":0,"o":"m 288 0 l 288 750 l 31 750 l 31 979 l 833 979 l 833 750 l 576 750 l 576 0 m 711 -315 l 519 -315 l 435 -199 l 429 -199 l 345 -315 l 153 -315 l 326 -94 l 538 -94 "},"Ṭ":{"ha":864,"x_min":0,"x_max":0,"o":"m 288 0 l 288 750 l 31 750 l 31 979 l 833 979 l 833 750 l 576 750 l 576 0 m 431 -330 b 298 -201 357 -330 298 -271 b 431 -71 298 -130 357 -71 b 563 -201 505 -71 563 -130 b 431 -330 563 -271 505 -330 "},"Ț":{"ha":864,"x_min":0,"x_max":0,"o":"m 288 0 l 288 750 l 31 750 l 31 979 l 833 979 l 833 750 l 576 750 l 576 0 m 233 -314 l 309 -94 l 555 -94 l 422 -314 "},"Ṫ":{"ha":864,"x_min":0,"x_max":0,"o":"m 431 1034 b 298 1163 357 1034 298 1093 b 431 1293 298 1234 357 1293 b 563 1163 505 1293 563 1234 b 431 1034 563 1093 505 1034 m 288 0 l 288 750 l 31 750 l 31 979 l 833 979 l 833 750 l 576 750 l 576 0 "},"Ţ":{"ha":864,"x_min":0,"x_max":0,"o":"m 411 -66 l 448 0 l 288 0 l 288 750 l 31 750 l 31 979 l 833 979 l 833 750 l 576 750 l 576 0 l 545 -60 b 654 -174 610 -60 654 -105 b 476 -307 654 -262 595 -307 b 386 -296 439 -307 404 -303 l 386 -201 b 453 -209 403 -206 429 -209 b 517 -184 498 -209 517 -201 b 449 -153 517 -160 500 -153 l 411 -153 "},"Ṯ":{"ha":864,"x_min":0,"x_max":0,"o":"m 288 0 l 288 750 l 31 750 l 31 979 l 833 979 l 833 750 l 576 750 l 576 0 m 671 -268 l 193 -268 l 193 -134 l 671 -134 "},"Ť":{"ha":864,"x_min":0,"x_max":0,"o":"m 326 1055 l 159 1272 l 347 1272 l 429 1152 l 435 1152 l 517 1272 l 705 1272 l 538 1055 m 288 0 l 288 750 l 31 750 l 31 979 l 833 979 l 833 750 l 576 750 l 576 0 "},"Ŧ":{"ha":864,"x_min":0,"x_max":0,"o":"m 131 586 l 288 586 l 288 750 l 31 750 l 31 979 l 833 979 l 833 750 l 576 750 l 576 586 l 733 586 l 733 395 l 576 395 l 576 0 l 288 0 l 288 395 l 131 395 "},"U":{"ha":998,"x_min":0,"x_max":0,"o":"m 355 380 b 499 221 355 277 406 221 b 643 380 592 221 643 277 l 643 979 l 930 979 l 930 349 b 499 -17 930 125 758 -17 b 68 349 241 -17 68 125 l 68 979 l 355 979 "},"Ù":{"ha":998,"x_min":0,"x_max":0,"o":"m 267 1272 l 495 1272 l 589 1055 l 412 1055 m 355 380 b 499 221 355 277 406 221 b 643 380 592 221 643 277 l 643 979 l 930 979 l 930 349 b 499 -17 930 125 758 -17 b 68 349 241 -17 68 125 l 68 979 l 355 979 "},"Ȕ":{"ha":998,"x_min":0,"x_max":0,"o":"m 564 1055 l 470 1272 l 672 1272 l 722 1055 m 290 1055 l 146 1272 l 368 1272 l 463 1055 m 355 380 b 499 221 355 277 406 221 b 643 380 592 221 643 277 l 643 979 l 930 979 l 930 349 b 499 -17 930 125 758 -17 b 68 349 241 -17 68 125 l 68 979 l 355 979 "},"Ú":{"ha":998,"x_min":0,"x_max":0,"o":"m 409 1055 l 503 1272 l 731 1272 l 587 1055 m 355 380 b 499 221 355 277 406 221 b 643 380 592 221 643 277 l 643 979 l 930 979 l 930 349 b 499 -17 930 125 758 -17 b 68 349 241 -17 68 125 l 68 979 l 355 979 "},"Ű":{"ha":998,"x_min":0,"x_max":0,"o":"m 326 1272 l 528 1272 l 434 1055 l 276 1055 m 630 1272 l 852 1272 l 708 1055 l 536 1055 m 355 380 b 499 221 355 277 406 221 b 643 380 592 221 643 277 l 643 979 l 930 979 l 930 349 b 499 -17 930 125 758 -17 b 68 349 241 -17 68 125 l 68 979 l 355 979 "},"Û":{"ha":998,"x_min":0,"x_max":0,"o":"m 606 1272 l 772 1055 l 585 1055 l 502 1175 l 496 1175 l 414 1055 l 227 1055 l 393 1272 m 355 380 b 499 221 355 277 406 221 b 643 380 592 221 643 277 l 643 979 l 930 979 l 930 349 b 499 -17 930 125 758 -17 b 68 349 241 -17 68 125 l 68 979 l 355 979 "},"Ǔ":{"ha":998,"x_min":0,"x_max":0,"o":"m 393 1055 l 227 1272 l 414 1272 l 496 1152 l 502 1152 l 585 1272 l 772 1272 l 606 1055 m 355 380 b 499 221 355 277 406 221 b 643 380 592 221 643 277 l 643 979 l 930 979 l 930 349 b 499 -17 930 125 758 -17 b 68 349 241 -17 68 125 l 68 979 l 355 979 "},"Ṷ":{"ha":998,"x_min":0,"x_max":0,"o":"m 355 380 b 499 221 355 277 406 221 b 643 380 592 221 643 277 l 643 979 l 930 979 l 930 349 b 499 -17 930 125 758 -17 b 68 349 241 -17 68 125 l 68 979 l 355 979 m 779 -315 l 586 -315 l 502 -199 l 496 -199 l 412 -315 l 220 -315 l 393 -94 l 606 -94 "},"Ü":{"ha":998,"x_min":0,"x_max":0,"o":"m 341 1044 b 220 1163 273 1044 220 1098 b 341 1282 220 1228 273 1282 b 465 1163 410 1282 465 1228 b 341 1044 465 1098 410 1044 m 656 1044 b 534 1163 588 1044 534 1098 b 656 1282 534 1228 588 1282 b 779 1163 725 1282 779 1228 b 656 1044 779 1098 725 1044 m 355 380 b 499 221 355 277 406 221 b 643 380 592 221 643 277 l 643 979 l 930 979 l 930 349 b 499 -17 930 125 758 -17 b 68 349 241 -17 68 125 l 68 979 l 355 979 "},"Ǜ":{"ha":998,"x_min":0,"x_max":0,"o":"m 411 1305 l 250 1496 l 468 1496 l 605 1305 m 349 1042 b 241 1143 286 1042 241 1088 b 349 1245 241 1200 286 1245 b 456 1143 411 1245 456 1200 b 349 1042 456 1088 411 1042 m 650 1042 b 543 1143 587 1042 543 1088 b 650 1245 543 1200 587 1245 b 757 1143 712 1245 757 1200 b 650 1042 757 1088 712 1042 m 355 380 b 499 221 355 277 406 221 b 643 380 592 221 643 277 l 643 979 l 930 979 l 930 349 b 499 -17 930 125 758 -17 b 68 349 241 -17 68 125 l 68 979 l 355 979 "},"Ǘ":{"ha":998,"x_min":0,"x_max":0,"o":"m 530 1496 l 749 1496 l 587 1305 l 393 1305 m 349 1042 b 241 1143 286 1042 241 1088 b 349 1245 241 1200 286 1245 b 456 1143 411 1245 456 1200 b 349 1042 456 1088 411 1042 m 650 1042 b 543 1143 587 1042 543 1088 b 650 1245 543 1200 587 1245 b 757 1143 712 1245 757 1200 b 650 1042 757 1088 712 1042 m 355 380 b 499 221 355 277 406 221 b 643 380 592 221 643 277 l 643 979 l 930 979 l 930 349 b 499 -17 930 125 758 -17 b 68 349 241 -17 68 125 l 68 979 l 355 979 "},"Ǖ":{"ha":998,"x_min":0,"x_max":0,"o":"m 753 1438 l 753 1316 l 245 1316 l 245 1438 m 349 1245 b 456 1143 411 1245 456 1200 b 349 1042 456 1088 411 1042 b 241 1143 286 1042 241 1088 b 349 1245 241 1200 286 1245 m 650 1245 b 757 1143 712 1245 757 1200 b 650 1042 757 1088 712 1042 b 543 1143 587 1042 543 1088 b 650 1245 543 1200 587 1245 m 355 380 b 499 221 355 277 406 221 b 643 380 592 221 643 277 l 643 979 l 930 979 l 930 349 b 499 -17 930 125 758 -17 b 68 349 241 -17 68 125 l 68 979 l 355 979 "},"Ǚ":{"ha":998,"x_min":0,"x_max":0,"o":"m 235 1513 l 416 1513 l 492 1409 l 507 1409 l 582 1513 l 763 1513 l 595 1306 l 403 1306 m 349 1245 b 456 1143 411 1245 456 1200 b 349 1042 456 1088 411 1042 b 241 1143 286 1042 241 1088 b 349 1245 241 1200 286 1245 m 650 1245 b 757 1143 712 1245 757 1200 b 650 1042 757 1088 712 1042 b 543 1143 587 1042 543 1088 b 650 1245 543 1200 587 1245 m 355 380 b 499 221 355 277 406 221 b 643 380 592 221 643 277 l 643 979 l 930 979 l 930 349 b 499 -17 930 125 758 -17 b 68 349 241 -17 68 125 l 68 979 l 355 979 "},"Ṳ":{"ha":998,"x_min":0,"x_max":0,"o":"m 355 380 b 499 221 355 277 406 221 b 643 380 592 221 643 277 l 643 979 l 930 979 l 930 349 b 499 -17 930 125 758 -17 b 68 349 241 -17 68 125 l 68 979 l 355 979 m 341 -320 b 220 -201 273 -320 220 -266 b 341 -81 220 -136 273 -81 b 465 -201 410 -81 465 -136 b 341 -320 465 -266 410 -320 m 656 -320 b 534 -201 588 -320 534 -266 b 656 -81 534 -136 588 -81 b 779 -201 725 -81 779 -136 b 656 -320 779 -266 725 -320 "},"Ṵ":{"ha":998,"x_min":0,"x_max":0,"o":"m 355 380 b 499 221 355 277 406 221 b 643 380 592 221 643 277 l 643 979 l 930 979 l 930 349 b 499 -17 930 125 758 -17 b 68 349 241 -17 68 125 l 68 979 l 355 979 m 599 -310 b 416 -229 496 -310 467 -229 b 364 -303 385 -229 364 -254 l 231 -303 b 397 -92 231 -160 305 -92 b 583 -172 500 -92 535 -172 b 634 -97 620 -172 634 -144 l 768 -97 b 599 -310 766 -235 692 -310 "},"Ủ":{"ha":998,"x_min":0,"x_max":0,"o":"m 357 1338 b 469 1358 382 1349 435 1358 b 657 1197 584 1358 657 1295 b 511 1015 657 1126 604 1061 l 437 1100 b 505 1183 487 1126 505 1147 b 427 1239 505 1217 474 1239 b 357 1227 402 1239 376 1234 m 355 380 b 499 221 355 277 406 221 b 643 380 592 221 643 277 l 643 979 l 930 979 l 930 349 b 499 -17 930 125 758 -17 b 68 349 241 -17 68 125 l 68 979 l 355 979 "},"Ŭ":{"ha":998,"x_min":0,"x_max":0,"o":"m 391 1272 b 499 1173 394 1209 431 1173 b 607 1272 567 1173 604 1209 l 767 1272 b 499 1046 763 1143 670 1046 b 231 1272 328 1046 235 1143 m 355 380 b 499 221 355 277 406 221 b 643 380 592 221 643 277 l 643 979 l 930 979 l 930 349 b 499 -17 930 125 758 -17 b 68 349 241 -17 68 125 l 68 979 l 355 979 "},"Ȗ":{"ha":998,"x_min":0,"x_max":0,"o":"m 607 1046 b 499 1146 604 1109 567 1146 b 391 1046 431 1146 394 1109 l 231 1046 b 499 1272 235 1175 328 1272 b 767 1046 670 1272 763 1175 m 355 380 b 499 221 355 277 406 221 b 643 380 592 221 643 277 l 643 979 l 930 979 l 930 349 b 499 -17 930 125 758 -17 b 68 349 241 -17 68 125 l 68 979 l 355 979 "},"Ṹ":{"ha":998,"x_min":0,"x_max":0,"o":"m 530 1496 l 749 1496 l 587 1305 l 393 1305 m 598 1042 b 414 1124 499 1042 461 1124 b 368 1055 383 1124 370 1091 l 231 1055 b 400 1254 231 1182 308 1254 b 584 1172 499 1254 537 1172 b 631 1244 615 1172 629 1202 l 767 1244 b 598 1042 767 1117 690 1042 m 355 380 b 499 221 355 277 406 221 b 643 380 592 221 643 277 l 643 979 l 930 979 l 930 349 b 499 -17 930 125 758 -17 b 68 349 241 -17 68 125 l 68 979 l 355 979 "},"Ụ":{"ha":998,"x_min":0,"x_max":0,"o":"m 355 380 b 499 221 355 277 406 221 b 643 380 592 221 643 277 l 643 979 l 930 979 l 930 349 b 499 -17 930 125 758 -17 b 68 349 241 -17 68 125 l 68 979 l 355 979 m 498 -330 b 366 -201 424 -330 366 -271 b 498 -71 366 -130 424 -71 b 630 -201 572 -71 630 -130 b 498 -330 630 -271 572 -330 "},"Ũ":{"ha":998,"x_min":0,"x_max":0,"o":"m 599 1051 b 416 1132 496 1051 467 1132 b 364 1058 385 1132 364 1107 l 231 1058 b 397 1270 231 1201 305 1270 b 583 1189 500 1270 535 1189 b 634 1264 620 1189 634 1217 l 768 1264 b 599 1051 766 1126 692 1051 m 355 380 b 499 221 355 277 406 221 b 643 380 592 221 643 277 l 643 979 l 930 979 l 930 349 b 499 -17 930 125 758 -17 b 68 349 241 -17 68 125 l 68 979 l 355 979 "},"Ū":{"ha":998,"x_min":0,"x_max":0,"o":"m 738 1101 l 260 1101 l 260 1236 l 738 1236 m 355 380 b 499 221 355 277 406 221 b 643 380 592 221 643 277 l 643 979 l 930 979 l 930 349 b 499 -17 930 125 758 -17 b 68 349 241 -17 68 125 l 68 979 l 355 979 "},"Ṻ":{"ha":998,"x_min":0,"x_max":0,"o":"m 349 1310 b 241 1411 286 1310 241 1356 b 349 1513 241 1468 286 1513 b 456 1411 411 1513 456 1468 b 349 1310 456 1356 411 1310 m 650 1310 b 543 1411 587 1310 543 1356 b 650 1513 543 1468 587 1513 b 757 1411 712 1513 757 1468 b 650 1310 757 1356 712 1310 m 245 1089 l 245 1211 l 753 1211 l 753 1089 m 355 380 b 499 221 355 277 406 221 b 643 380 592 221 643 277 l 643 979 l 930 979 l 930 349 b 499 -17 930 125 758 -17 b 68 349 241 -17 68 125 l 68 979 l 355 979 "},"Ů":{"ha":998,"x_min":0,"x_max":0,"o":"m 499 1031 b 350 1175 418 1031 350 1093 b 499 1320 350 1257 418 1320 b 648 1175 580 1320 648 1257 b 499 1031 648 1093 580 1031 m 499 1123 b 553 1175 528 1123 553 1145 b 499 1227 553 1206 528 1227 b 445 1175 470 1227 445 1206 b 499 1123 445 1145 470 1123 m 355 380 b 499 221 355 277 406 221 b 643 380 592 221 643 277 l 643 979 l 930 979 l 930 349 b 499 -17 930 125 758 -17 b 68 349 241 -17 68 125 l 68 979 l 355 979 "},"Ų":{"ha":998,"x_min":0,"x_max":0,"o":"m 665 -330 b 454 -176 523 -330 454 -263 b 541 -16 454 -117 486 -60 b 499 -17 527 -16 513 -17 b 68 349 241 -17 68 125 l 68 979 l 355 979 l 355 380 b 499 221 355 277 406 221 b 643 380 592 221 643 277 l 643 979 l 930 979 l 930 349 b 787 64 930 226 878 127 b 644 -115 699 -3 644 -54 b 730 -188 644 -161 684 -188 b 777 -182 743 -188 759 -186 l 777 -313 b 665 -330 739 -324 701 -330 "},"Ư":{"ha":1202,"x_min":0,"x_max":0,"o":"m 499 -18 b 68 348 239 -18 68 127 l 68 979 l 355 979 l 355 380 b 499 221 355 277 406 221 b 643 380 592 221 643 277 l 643 979 l 944 979 b 990 1023 972 979 990 994 l 990 1162 l 1196 1162 l 1196 966 b 1025 803 1196 862 1131 803 l 930 803 l 930 348 b 499 -18 930 127 760 -18 "},"Ừ":{"ha":1202,"x_min":0,"x_max":0,"o":"m 267 1272 l 495 1272 l 589 1055 l 412 1055 m 499 -18 b 68 348 239 -18 68 127 l 68 979 l 355 979 l 355 380 b 499 221 355 277 406 221 b 643 380 592 221 643 277 l 643 979 l 944 979 b 990 1023 972 979 990 994 l 990 1162 l 1196 1162 l 1196 966 b 1025 803 1196 862 1131 803 l 930 803 l 930 348 b 499 -18 930 127 760 -18 "},"Ứ":{"ha":1202,"x_min":0,"x_max":0,"o":"m 409 1055 l 503 1272 l 731 1272 l 587 1055 m 499 -18 b 68 348 239 -18 68 127 l 68 979 l 355 979 l 355 380 b 499 221 355 277 406 221 b 643 380 592 221 643 277 l 643 979 l 944 979 b 990 1023 972 979 990 994 l 990 1162 l 1196 1162 l 1196 966 b 1025 803 1196 862 1131 803 l 930 803 l 930 348 b 499 -18 930 127 760 -18 "},"Ự":{"ha":1202,"x_min":0,"x_max":0,"o":"m 499 -18 b 68 348 239 -18 68 127 l 68 979 l 355 979 l 355 380 b 499 221 355 277 406 221 b 643 380 592 221 643 277 l 643 979 l 944 979 b 990 1023 972 979 990 994 l 990 1162 l 1196 1162 l 1196 966 b 1025 803 1196 862 1131 803 l 930 803 l 930 348 b 499 -18 930 127 760 -18 m 498 -330 b 366 -201 424 -330 366 -271 b 498 -71 366 -130 424 -71 b 630 -201 572 -71 630 -130 b 498 -330 630 -271 572 -330 "},"Ử":{"ha":1202,"x_min":0,"x_max":0,"o":"m 357 1338 b 469 1358 382 1349 435 1358 b 657 1197 584 1358 657 1295 b 511 1015 657 1126 604 1061 l 437 1100 b 505 1183 487 1126 505 1147 b 427 1239 505 1217 474 1239 b 357 1227 402 1239 376 1234 m 499 -18 b 68 348 239 -18 68 127 l 68 979 l 355 979 l 355 380 b 499 221 355 277 406 221 b 643 380 592 221 643 277 l 643 979 l 944 979 b 990 1023 972 979 990 994 l 990 1162 l 1196 1162 l 1196 966 b 1025 803 1196 862 1131 803 l 930 803 l 930 348 b 499 -18 930 127 760 -18 "},"Ữ":{"ha":1202,"x_min":0,"x_max":0,"o":"m 599 1051 b 416 1132 496 1051 467 1132 b 364 1058 385 1132 364 1107 l 231 1058 b 397 1270 231 1201 305 1270 b 583 1189 500 1270 535 1189 b 634 1264 620 1189 634 1217 l 768 1264 b 599 1051 766 1126 692 1051 m 499 -18 b 68 348 239 -18 68 127 l 68 979 l 355 979 l 355 380 b 499 221 355 277 406 221 b 643 380 592 221 643 277 l 643 979 l 944 979 b 990 1023 972 979 990 994 l 990 1162 l 1196 1162 l 1196 966 b 1025 803 1196 862 1131 803 l 930 803 l 930 348 b 499 -18 930 127 760 -18 "},"V":{"ha":1008,"x_min":0,"x_max":0,"o":"m 317 0 l 20 979 l 351 979 l 508 273 l 513 273 l 670 979 l 987 979 l 690 0 "},"Ṽ":{"ha":1008,"x_min":0,"x_max":0,"o":"m 604 1051 b 421 1132 501 1051 471 1132 b 369 1058 389 1132 369 1107 l 235 1058 b 402 1270 235 1201 310 1270 b 587 1189 505 1270 540 1189 b 639 1264 625 1189 639 1217 l 772 1264 b 604 1051 770 1126 696 1051 m 317 0 l 20 979 l 351 979 l 508 273 l 513 273 l 670 979 l 987 979 l 690 0 "},"Ṿ":{"ha":1008,"x_min":0,"x_max":0,"o":"m 317 0 l 20 979 l 351 979 l 508 273 l 513 273 l 670 979 l 987 979 l 690 0 m 503 -330 b 370 -201 429 -330 370 -271 b 503 -71 370 -130 429 -71 b 635 -201 576 -71 635 -130 b 503 -330 635 -271 576 -330 "},"W":{"ha":1398,"x_min":0,"x_max":0,"o":"m 551 0 l 279 0 l 27 979 l 324 979 l 437 360 l 442 360 l 588 979 l 810 979 l 956 360 l 962 360 l 1074 979 l 1371 979 l 1119 0 l 848 0 l 702 560 l 696 560 "},"Ẁ":{"ha":1398,"x_min":0,"x_max":0,"o":"m 467 1272 l 695 1272 l 789 1055 l 612 1055 m 551 0 l 279 0 l 27 979 l 324 979 l 437 360 l 442 360 l 588 979 l 810 979 l 956 360 l 962 360 l 1074 979 l 1371 979 l 1119 0 l 848 0 l 702 560 l 696 560 "},"Ẃ":{"ha":1398,"x_min":0,"x_max":0,"o":"m 609 1055 l 703 1272 l 931 1272 l 787 1055 m 551 0 l 279 0 l 27 979 l 324 979 l 437 360 l 442 360 l 588 979 l 810 979 l 956 360 l 962 360 l 1074 979 l 1371 979 l 1119 0 l 848 0 l 702 560 l 696 560 "},"Ẇ":{"ha":1398,"x_min":0,"x_max":0,"o":"m 698 1034 b 566 1163 624 1034 566 1093 b 698 1293 566 1234 624 1293 b 830 1163 772 1293 830 1234 b 698 1034 830 1093 772 1034 m 551 0 l 279 0 l 27 979 l 324 979 l 437 360 l 442 360 l 588 979 l 810 979 l 956 360 l 962 360 l 1074 979 l 1371 979 l 1119 0 l 848 0 l 702 560 l 696 560 "},"Ẉ":{"ha":1398,"x_min":0,"x_max":0,"o":"m 551 0 l 279 0 l 27 979 l 324 979 l 437 360 l 442 360 l 588 979 l 810 979 l 956 360 l 962 360 l 1074 979 l 1371 979 l 1119 0 l 848 0 l 702 560 l 696 560 m 698 -330 b 566 -201 624 -330 566 -271 b 698 -71 566 -130 624 -71 b 830 -201 772 -71 830 -130 b 698 -330 830 -271 772 -330 "},"Ẅ":{"ha":1398,"x_min":0,"x_max":0,"o":"m 541 1044 b 420 1163 473 1044 420 1098 b 541 1282 420 1228 473 1282 b 665 1163 610 1282 665 1228 b 541 1044 665 1098 610 1044 m 857 1044 b 734 1163 788 1044 734 1098 b 857 1282 734 1228 788 1282 b 979 1163 925 1282 979 1228 b 857 1044 979 1098 925 1044 m 551 0 l 279 0 l 27 979 l 324 979 l 437 360 l 442 360 l 588 979 l 810 979 l 956 360 l 962 360 l 1074 979 l 1371 979 l 1119 0 l 848 0 l 702 560 l 696 560 "},"Ŵ":{"ha":1398,"x_min":0,"x_max":0,"o":"m 806 1272 l 972 1055 l 785 1055 l 702 1175 l 696 1175 l 614 1055 l 427 1055 l 593 1272 m 551 0 l 279 0 l 27 979 l 324 979 l 437 360 l 442 360 l 588 979 l 810 979 l 956 360 l 962 360 l 1074 979 l 1371 979 l 1119 0 l 848 0 l 702 560 l 696 560 "},"X":{"ha":1022,"x_min":0,"x_max":0,"o":"m 316 490 l 316 496 l 27 979 l 362 979 l 516 667 l 522 667 l 676 979 l 995 979 l 692 494 l 692 489 l 994 0 l 673 0 l 505 295 l 499 295 l 332 0 l 28 0 "},"Ẋ":{"ha":1022,"x_min":0,"x_max":0,"o":"m 510 1034 b 378 1163 436 1034 378 1093 b 510 1293 378 1234 436 1293 b 642 1163 584 1293 642 1234 b 510 1034 642 1093 584 1034 m 316 490 l 316 496 l 27 979 l 362 979 l 516 667 l 522 667 l 676 979 l 995 979 l 692 494 l 692 489 l 994 0 l 673 0 l 505 295 l 499 295 l 332 0 l 28 0 "},"Ẍ":{"ha":1022,"x_min":0,"x_max":0,"o":"m 353 1044 b 232 1163 285 1044 232 1098 b 353 1282 232 1228 285 1282 b 477 1163 422 1282 477 1228 b 353 1044 477 1098 422 1044 m 669 1044 b 546 1163 600 1044 546 1098 b 669 1282 546 1228 600 1282 b 791 1163 737 1282 791 1228 b 669 1044 791 1098 737 1044 m 316 490 l 316 496 l 27 979 l 362 979 l 516 667 l 522 667 l 676 979 l 995 979 l 692 494 l 692 489 l 994 0 l 673 0 l 505 295 l 499 295 l 332 0 l 28 0 "},"Y":{"ha":997,"x_min":0,"x_max":0,"o":"m 355 0 l 355 310 l 20 979 l 328 979 l 499 582 l 505 582 l 676 979 l 977 979 l 642 310 l 642 0 "},"Ỳ":{"ha":997,"x_min":0,"x_max":0,"o":"m 267 1272 l 494 1272 l 589 1055 l 411 1055 m 355 0 l 355 310 l 20 979 l 328 979 l 499 582 l 505 582 l 676 979 l 977 979 l 642 310 l 642 0 "},"Ý":{"ha":997,"x_min":0,"x_max":0,"o":"m 408 1055 l 503 1272 l 730 1272 l 586 1055 m 355 0 l 355 310 l 20 979 l 328 979 l 499 582 l 505 582 l 676 979 l 977 979 l 642 310 l 642 0 "},"Ẏ":{"ha":997,"x_min":0,"x_max":0,"o":"m 497 1034 b 365 1163 423 1034 365 1093 b 497 1293 365 1234 423 1293 b 629 1163 571 1293 629 1234 b 497 1034 629 1093 571 1034 m 355 0 l 355 310 l 20 979 l 328 979 l 499 582 l 505 582 l 676 979 l 977 979 l 642 310 l 642 0 "},"Ỵ":{"ha":997,"x_min":0,"x_max":0,"o":"m 355 0 l 355 310 l 20 979 l 328 979 l 499 582 l 505 582 l 676 979 l 977 979 l 642 310 l 642 0 m 497 -330 b 365 -201 423 -330 365 -271 b 497 -71 365 -130 423 -71 b 629 -201 571 -71 629 -130 b 497 -330 629 -271 571 -330 "},"Ÿ":{"ha":997,"x_min":0,"x_max":0,"o":"m 340 1044 b 219 1163 272 1044 219 1098 b 340 1282 219 1228 272 1282 b 464 1163 409 1282 464 1228 b 340 1044 464 1098 409 1044 m 656 1044 b 533 1163 587 1044 533 1098 b 656 1282 533 1228 587 1282 b 778 1163 724 1282 778 1228 b 656 1044 778 1098 724 1044 m 355 0 l 355 310 l 20 979 l 328 979 l 499 582 l 505 582 l 676 979 l 977 979 l 642 310 l 642 0 "},"Ỹ":{"ha":997,"x_min":0,"x_max":0,"o":"m 598 1051 b 416 1132 496 1051 466 1132 b 363 1058 384 1132 363 1107 l 230 1058 b 397 1270 230 1201 304 1270 b 582 1189 500 1270 534 1189 b 633 1264 619 1189 633 1217 l 767 1264 b 598 1051 765 1126 691 1051 m 355 0 l 355 310 l 20 979 l 328 979 l 499 582 l 505 582 l 676 979 l 977 979 l 642 310 l 642 0 "},"Ŷ":{"ha":997,"x_min":0,"x_max":0,"o":"m 605 1272 l 771 1055 l 584 1055 l 501 1175 l 496 1175 l 413 1055 l 226 1055 l 392 1272 m 355 0 l 355 310 l 20 979 l 328 979 l 499 582 l 505 582 l 676 979 l 977 979 l 642 310 l 642 0 "},"Ȳ":{"ha":997,"x_min":0,"x_max":0,"o":"m 737 1101 l 260 1101 l 260 1236 l 737 1236 m 355 0 l 355 310 l 20 979 l 328 979 l 499 582 l 505 582 l 676 979 l 977 979 l 642 310 l 642 0 "},"Ỷ":{"ha":997,"x_min":0,"x_max":0,"o":"m 357 1338 b 469 1358 382 1349 435 1358 b 656 1197 583 1358 656 1295 b 510 1015 656 1126 604 1061 l 437 1100 b 504 1183 486 1126 504 1147 b 426 1239 504 1217 473 1239 b 357 1227 401 1239 376 1234 m 355 0 l 355 310 l 20 979 l 328 979 l 499 582 l 505 582 l 676 979 l 977 979 l 642 310 l 642 0 "},"Z":{"ha":896,"x_min":0,"x_max":0,"o":"m 54 180 l 490 745 l 490 750 l 58 750 l 58 979 l 825 979 l 825 799 l 391 234 l 391 229 l 842 229 l 842 0 l 54 0 "},"Ź":{"ha":896,"x_min":0,"x_max":0,"o":"m 358 1055 l 452 1272 l 680 1272 l 536 1055 m 54 180 l 490 745 l 490 750 l 58 750 l 58 979 l 825 979 l 825 799 l 391 234 l 391 229 l 842 229 l 842 0 l 54 0 "},"Ž":{"ha":896,"x_min":0,"x_max":0,"o":"m 342 1055 l 176 1272 l 363 1272 l 446 1152 l 451 1152 l 534 1272 l 721 1272 l 555 1055 m 54 180 l 490 745 l 490 750 l 58 750 l 58 979 l 825 979 l 825 799 l 391 234 l 391 229 l 842 229 l 842 0 l 54 0 "},"Ẑ":{"ha":896,"x_min":0,"x_max":0,"o":"m 555 1272 l 721 1055 l 534 1055 l 451 1175 l 446 1175 l 363 1055 l 176 1055 l 342 1272 m 54 180 l 490 745 l 490 750 l 58 750 l 58 979 l 825 979 l 825 799 l 391 234 l 391 229 l 842 229 l 842 0 l 54 0 "},"Ẕ":{"ha":896,"x_min":0,"x_max":0,"o":"m 54 180 l 490 745 l 490 750 l 58 750 l 58 979 l 825 979 l 825 799 l 391 234 l 391 229 l 842 229 l 842 0 l 54 0 m 687 -268 l 210 -268 l 210 -134 l 687 -134 "},"Ẓ":{"ha":896,"x_min":0,"x_max":0,"o":"m 54 180 l 490 745 l 490 750 l 58 750 l 58 979 l 825 979 l 825 799 l 391 234 l 391 229 l 842 229 l 842 0 l 54 0 m 447 -330 b 315 -201 373 -330 315 -271 b 447 -71 315 -130 373 -71 b 579 -201 521 -71 579 -130 b 447 -330 579 -271 521 -330 "},"Ż":{"ha":896,"x_min":0,"x_max":0,"o":"m 447 1034 b 315 1163 373 1034 315 1093 b 447 1293 315 1234 373 1293 b 579 1163 521 1293 579 1234 b 447 1034 579 1093 521 1034 m 54 180 l 490 745 l 490 750 l 58 750 l 58 979 l 825 979 l 825 799 l 391 234 l 391 229 l 842 229 l 842 0 l 54 0 "},"Æ":{"ha":1427,"x_min":0,"x_max":0,"o":"m 658 194 l 385 194 l 317 0 l 34 0 l 400 979 l 1346 979 l 1346 751 l 910 751 l 910 592 l 1321 592 l 1321 386 l 910 386 l 910 228 l 1346 228 l 1346 0 l 658 0 m 454 397 l 658 397 l 658 766 l 582 766 "},"Ǣ":{"ha":1427,"x_min":0,"x_max":0,"o":"m 1091 1101 l 614 1101 l 614 1236 l 1091 1236 m 658 194 l 385 194 l 317 0 l 34 0 l 400 979 l 1346 979 l 1346 751 l 910 751 l 910 592 l 1321 592 l 1321 386 l 910 386 l 910 228 l 1346 228 l 1346 0 l 658 0 m 454 397 l 658 397 l 658 766 l 582 766 "},"Ǽ":{"ha":1427,"x_min":0,"x_max":0,"o":"m 762 1055 l 857 1272 l 1084 1272 l 940 1055 m 658 194 l 385 194 l 317 0 l 34 0 l 400 979 l 1346 979 l 1346 751 l 910 751 l 910 592 l 1321 592 l 1321 386 l 910 386 l 910 228 l 1346 228 l 1346 0 l 658 0 m 454 397 l 658 397 l 658 766 l 582 766 "},"Œ":{"ha":1503,"x_min":0,"x_max":0,"o":"m 787 165 b 479 -27 758 55 623 -27 b 51 489 236 -27 51 187 b 484 1006 51 792 237 1006 b 787 806 624 1006 741 932 l 787 979 l 1436 979 l 1436 750 l 1034 750 l 1034 592 l 1411 592 l 1411 386 l 1034 386 l 1034 229 l 1436 229 l 1436 0 l 787 0 m 544 770 b 344 489 424 770 344 659 b 544 208 344 319 423 208 b 744 489 665 208 744 319 b 544 770 744 659 664 770 "},"Ð":{"ha":1002,"x_min":0,"x_max":0,"o":"m 0 585 l 68 585 l 68 979 l 486 979 b 958 496 783 979 958 810 b 486 0 958 183 783 0 l 68 0 l 68 394 l 0 394 m 355 585 l 490 585 l 490 394 l 355 394 l 355 229 l 446 229 b 665 496 589 229 665 316 b 446 750 665 661 583 750 l 355 750 "},"Þ":{"ha":968,"x_min":0,"x_max":0,"o":"m 386 979 l 386 840 l 550 840 b 907 501 770 840 907 710 b 530 164 907 294 762 164 l 384 164 l 384 0 l 96 0 l 96 979 m 384 377 l 471 377 b 617 500 567 377 617 420 b 473 623 617 581 567 623 l 384 623 "},"Ǝ":{"ha":825,"x_min":0,"x_max":0,"o":"m 469 229 l 469 386 l 92 386 l 92 592 l 469 592 l 469 750 l 66 750 l 66 979 l 757 979 l 757 0 l 66 0 l 66 229 "},"Α":{"ha":1040,"x_min":0,"x_max":0,"o":"m 663 195 l 364 195 l 313 0 l 20 0 l 340 979 l 701 979 l 1020 0 l 713 0 m 416 397 l 610 397 l 516 753 l 511 753 "},"Β":{"ha":937,"x_min":0,"x_max":0,"o":"m 68 0 l 68 979 l 549 979 b 866 734 749 979 866 887 b 667 523 866 622 781 537 l 667 517 b 910 285 800 514 910 414 b 565 0 910 113 774 0 m 355 587 l 467 587 b 587 684 541 587 587 625 b 471 781 587 745 543 781 l 355 781 m 478 197 b 618 311 567 197 618 237 b 480 422 618 381 566 422 l 355 422 l 355 197 "},"Γ":{"ha":776,"x_min":0,"x_max":0,"o":"m 68 0 l 68 979 l 742 979 l 742 750 l 355 750 l 355 0 "},"Δ":{"ha":1010,"x_min":0,"x_max":0,"o":"m 34 0 l 34 147 l 325 979 l 686 979 l 977 147 l 977 0 m 328 228 l 653 228 l 653 233 l 496 759 l 490 759 l 328 233 "},"Ε":{"ha":825,"x_min":0,"x_max":0,"o":"m 758 0 l 68 0 l 68 979 l 758 979 l 758 750 l 355 750 l 355 592 l 733 592 l 733 386 l 355 386 l 355 229 l 758 229 "},"Ζ":{"ha":896,"x_min":0,"x_max":0,"o":"m 54 180 l 490 745 l 490 750 l 58 750 l 58 979 l 825 979 l 825 799 l 391 234 l 391 229 l 842 229 l 842 0 l 54 0 "},"Η":{"ha":1055,"x_min":0,"x_max":0,"o":"m 700 0 l 700 378 l 355 378 l 355 0 l 68 0 l 68 979 l 355 979 l 355 607 l 700 607 l 700 979 l 987 979 l 987 0 "},"Θ":{"ha":1128,"x_min":0,"x_max":0,"o":"m 564 996 b 1084 490 901 996 1084 795 b 564 -17 1084 182 891 -17 b 44 490 237 -17 44 182 b 564 996 44 795 227 996 m 564 766 b 331 490 416 766 331 665 b 564 212 331 313 416 212 b 798 490 712 212 798 313 b 564 766 798 665 712 766 m 421 385 l 421 585 l 705 585 l 705 385 "},"Ι":{"ha":423,"x_min":0,"x_max":0,"o":"m 68 0 l 68 979 l 355 979 l 355 0 "},"Κ":{"ha":980,"x_min":0,"x_max":0,"o":"m 68 0 l 68 979 l 355 979 l 355 564 l 361 564 l 663 979 l 965 979 l 643 544 l 980 0 l 646 0 l 432 359 l 355 256 l 355 0 "},"Λ":{"ha":1026,"x_min":0,"x_max":0,"o":"m 509 739 l 504 739 l 313 0 l 20 0 l 333 979 l 694 979 l 1006 0 l 700 0 "},"Μ":{"ha":1243,"x_min":0,"x_max":0,"o":"m 924 0 l 924 567 l 919 567 l 699 0 l 545 0 l 324 567 l 319 567 l 319 0 l 68 0 l 68 979 l 400 979 l 619 396 l 625 396 l 843 979 l 1175 979 l 1175 0 "},"Ν":{"ha":1013,"x_min":0,"x_max":0,"o":"m 68 0 l 68 979 l 291 979 l 669 471 l 674 471 l 674 979 l 945 979 l 945 0 l 725 0 l 345 515 l 339 515 l 339 0 "},"Ξ":{"ha":890,"x_min":0,"x_max":0,"o":"m 823 979 l 823 744 l 66 744 l 66 979 m 125 382 l 125 595 l 764 595 l 764 382 m 823 235 l 823 0 l 66 0 l 66 235 "},"Ο":{"ha":1074,"x_min":0,"x_max":0,"o":"m 537 996 b 1030 489 840 996 1030 802 b 537 -17 1030 176 840 -17 b 44 489 234 -17 44 176 b 537 996 44 802 235 996 m 537 766 b 337 489 417 766 337 659 b 537 212 337 320 416 212 b 737 489 658 212 737 320 b 537 766 737 659 657 766 "},"Π":{"ha":1042,"x_min":0,"x_max":0,"o":"m 686 0 l 686 751 l 355 751 l 355 0 l 68 0 l 68 979 l 974 979 l 974 0 "},"Ρ":{"ha":913,"x_min":0,"x_max":0,"o":"m 515 979 b 879 622 732 979 879 840 b 495 267 879 406 724 267 l 355 267 l 355 0 l 68 0 l 68 979 m 355 479 l 436 479 b 589 621 532 479 589 528 b 438 762 589 714 532 762 l 355 762 "},"Σ":{"ha":882,"x_min":0,"x_max":0,"o":"m 408 229 l 827 229 l 827 0 l 54 0 l 54 162 l 288 490 l 71 785 l 71 979 l 812 979 l 812 750 l 431 750 l 431 745 l 602 498 l 602 493 l 408 234 "},"Τ":{"ha":864,"x_min":0,"x_max":0,"o":"m 288 0 l 288 750 l 31 750 l 31 979 l 833 979 l 833 750 l 576 750 l 576 0 "},"Υ":{"ha":997,"x_min":0,"x_max":0,"o":"m 355 0 l 355 310 l 20 979 l 328 979 l 499 582 l 505 582 l 676 979 l 977 979 l 642 310 l 642 0 "},"Φ":{"ha":1320,"x_min":0,"x_max":0,"o":"m 533 -104 l 533 3 b 34 481 242 18 34 210 b 533 960 34 753 242 945 l 533 1067 l 787 1067 l 787 960 b 1286 481 1078 945 1286 753 b 787 3 1286 210 1078 18 l 787 -104 m 1009 481 b 787 745 1009 632 928 726 l 787 218 b 1009 481 928 237 1009 331 m 311 481 b 533 218 311 331 391 237 l 533 745 b 311 481 391 726 311 632 "},"Χ":{"ha":1022,"x_min":0,"x_max":0,"o":"m 316 490 l 316 496 l 27 979 l 362 979 l 516 667 l 522 667 l 676 979 l 995 979 l 692 494 l 692 489 l 994 0 l 673 0 l 505 295 l 499 295 l 332 0 l 28 0 "},"Ψ":{"ha":1214,"x_min":0,"x_max":0,"o":"m 473 0 l 473 189 b 54 616 207 197 54 358 l 54 979 l 321 979 l 321 608 b 473 410 321 490 367 425 l 473 979 l 741 979 l 741 410 b 892 608 847 425 892 490 l 892 979 l 1160 979 l 1160 616 b 741 189 1160 358 1007 197 l 741 0 "},"Ω":{"ha":1088,"x_min":0,"x_max":0,"o":"m 758 530 b 544 766 758 682 668 766 b 330 530 420 766 330 682 b 470 274 330 398 384 321 l 470 0 l 44 0 l 44 214 l 229 214 l 229 220 b 44 557 122 275 44 397 b 544 996 44 819 248 996 b 1044 557 840 996 1044 819 b 859 220 1044 397 966 275 l 859 214 l 1044 214 l 1044 0 l 618 0 l 618 274 b 758 530 704 321 758 398 "},"Ά":{"ha":1084,"x_min":0,"x_max":0,"o":"m 707 195 l 408 195 l 357 0 l 64 0 l 384 979 l 745 979 l 1064 0 l 758 0 m 14 757 l 62 979 l 291 979 l 193 757 m 460 397 l 654 397 l 560 753 l 555 753 "},"Έ":{"ha":1135,"x_min":0,"x_max":0,"o":"m 14 757 l 62 979 l 291 979 l 193 757 m 1069 0 l 378 0 l 378 979 l 1069 979 l 1069 750 l 666 750 l 666 592 l 1044 592 l 1044 386 l 666 386 l 666 229 l 1069 229 "},"Ή":{"ha":1366,"x_min":0,"x_max":0,"o":"m 14 757 l 62 979 l 291 979 l 193 757 m 1010 0 l 1010 378 l 666 378 l 666 0 l 378 0 l 378 979 l 666 979 l 666 607 l 1010 607 l 1010 979 l 1298 979 l 1298 0 "},"Ί":{"ha":734,"x_min":0,"x_max":0,"o":"m 14 757 l 62 979 l 291 979 l 193 757 m 378 0 l 378 979 l 666 979 l 666 0 "},"Ϊ":{"ha":423,"x_min":0,"x_max":0,"o":"m 54 1044 b -68 1163 -15 1044 -68 1098 b 54 1282 -68 1228 -15 1282 b 177 1163 122 1282 177 1228 b 54 1044 177 1098 122 1044 m 369 1044 b 246 1163 300 1044 246 1098 b 369 1282 246 1228 300 1282 b 491 1163 437 1282 491 1228 b 369 1044 491 1098 437 1044 m 68 0 l 68 979 l 355 979 l 355 0 "},"Ό":{"ha":1255,"x_min":0,"x_max":0,"o":"m 718 996 b 1211 489 1021 996 1211 802 b 718 -17 1211 176 1021 -17 b 225 489 415 -17 225 176 b 718 996 225 802 416 996 m 14 757 l 62 979 l 291 979 l 193 757 m 718 766 b 518 489 598 766 518 659 b 718 212 518 320 597 212 b 918 489 839 212 918 320 b 718 766 918 659 838 766 "},"Ύ":{"ha":1312,"x_min":0,"x_max":0,"o":"m 14 757 l 62 979 l 291 979 l 193 757 m 669 0 l 669 310 l 335 979 l 642 979 l 814 582 l 819 582 l 991 979 l 1291 979 l 957 310 l 957 0 "},"Ϋ":{"ha":997,"x_min":0,"x_max":0,"o":"m 340 1044 b 219 1163 272 1044 219 1098 b 340 1282 219 1228 272 1282 b 464 1163 409 1282 464 1228 b 340 1044 464 1098 409 1044 m 656 1044 b 533 1163 587 1044 533 1098 b 656 1282 533 1228 587 1282 b 778 1163 724 1282 778 1228 b 656 1044 778 1098 724 1044 m 355 0 l 355 310 l 20 979 l 328 979 l 499 582 l 505 582 l 676 979 l 977 979 l 642 310 l 642 0 "},"Ώ":{"ha":1276,"x_min":0,"x_max":0,"o":"m 946 530 b 732 766 946 682 857 766 b 519 530 608 766 519 682 b 659 274 519 398 572 321 l 659 0 l 233 0 l 233 214 l 418 214 l 418 220 b 233 557 311 275 233 397 b 732 996 233 819 436 996 b 1232 557 1029 996 1232 819 b 1047 220 1232 397 1154 275 l 1047 214 l 1232 214 l 1232 0 l 806 0 l 806 274 b 946 530 892 321 946 398 m 14 757 l 62 979 l 291 979 l 193 757 "},"Ϝ":{"ha":789,"x_min":0,"x_max":0,"o":"m 68 0 l 68 979 l 755 979 l 755 750 l 355 750 l 355 562 l 718 562 l 718 347 l 355 347 l 355 0 "},"ϝ":{"ha":789,"x_min":0,"x_max":0,"o":"m 68 -335 l 68 644 l 755 644 l 755 415 l 355 415 l 355 227 l 718 227 l 718 12 l 355 12 l 355 -335 "},"∇":{"ha":1010,"x_min":0,"x_max":0,"o":"m 977 979 l 977 831 l 686 0 l 325 0 l 34 831 l 34 979 m 682 751 l 357 751 l 357 745 l 515 220 l 520 220 l 682 745 "},"А":{"ha":1047,"x_min":0,"x_max":0,"o":"m 666 195 l 368 195 l 317 0 l 24 0 l 343 979 l 704 979 l 1023 0 l 717 0 m 420 397 l 614 397 l 519 753 l 514 753 "},"Ӑ":{"ha":1047,"x_min":0,"x_max":0,"o":"m 419 1273 b 524 1181 421 1212 463 1181 b 628 1273 585 1181 626 1212 l 783 1273 b 524 1055 783 1137 678 1055 b 264 1273 369 1055 264 1137 m 666 195 l 368 195 l 317 0 l 24 0 l 343 979 l 704 979 l 1023 0 l 717 0 m 420 397 l 614 397 l 519 753 l 514 753 "},"Ӓ":{"ha":1047,"x_min":0,"x_max":0,"o":"m 366 1044 b 244 1163 297 1044 244 1098 b 366 1282 244 1228 297 1282 b 489 1163 434 1282 489 1228 b 366 1044 489 1098 434 1044 m 681 1044 b 558 1163 612 1044 558 1098 b 681 1282 558 1228 612 1282 b 803 1163 749 1282 803 1228 b 681 1044 803 1098 749 1044 m 666 195 l 368 195 l 317 0 l 24 0 l 343 979 l 704 979 l 1023 0 l 717 0 m 420 397 l 614 397 l 519 753 l 514 753 "},"Б":{"ha":920,"x_min":0,"x_max":0,"o":"m 886 323 b 522 0 886 125 739 0 l 75 0 l 75 979 l 803 979 l 803 751 l 362 751 l 362 633 l 509 633 b 886 323 733 633 886 512 m 452 217 b 593 323 539 217 593 253 b 450 431 593 395 539 431 l 362 431 l 362 217 "},"В":{"ha":951,"x_min":0,"x_max":0,"o":"m 75 0 l 75 979 l 555 979 b 873 734 755 979 873 887 b 674 523 873 622 787 537 l 674 517 b 917 285 806 514 917 414 b 572 0 917 113 781 0 m 362 587 l 473 587 b 593 684 547 587 593 625 b 477 781 593 745 550 781 l 362 781 m 485 197 b 625 311 574 197 625 237 b 487 422 625 381 573 422 l 362 422 l 362 197 "},"Г":{"ha":796,"x_min":0,"x_max":0,"o":"m 75 0 l 75 979 l 755 979 l 755 751 l 362 751 l 362 0 "},"Ѓ":{"ha":796,"x_min":0,"x_max":0,"o":"m 315 1055 l 409 1272 l 637 1272 l 492 1055 m 75 0 l 75 979 l 755 979 l 755 751 l 362 751 l 362 0 "},"Ґ":{"ha":796,"x_min":0,"x_max":0,"o":"m 362 0 l 75 0 l 75 979 l 484 979 l 484 1172 l 755 1172 l 755 751 l 362 751 "},"Ӷ":{"ha":796,"x_min":0,"x_max":0,"o":"m 227 -1 l 75 -1 l 75 979 l 755 979 l 755 751 l 362 751 l 362 227 l 484 227 l 484 -194 l 227 -194 "},"Ғ":{"ha":796,"x_min":0,"x_max":0,"o":"m 75 0 l 75 379 l 13 379 l 13 570 l 75 570 l 75 979 l 755 979 l 755 751 l 362 751 l 362 570 l 660 570 l 660 379 l 362 379 l 362 0 "},"Ӻ":{"ha":796,"x_min":0,"x_max":0,"o":"m -38 -69 b -6 -71 -30 -71 -18 -71 b 75 -7 50 -71 75 -53 l 75 379 l 13 379 l 13 570 l 75 570 l 75 979 l 755 979 l 755 751 l 362 751 l 362 570 l 673 570 l 673 379 l 362 379 l 362 -7 b 47 -267 362 -177 246 -267 b -38 -263 19 -267 -22 -265 "},"Д":{"ha":1114,"x_min":0,"x_max":0,"o":"m 271 -193 l 14 -193 l 14 229 l 78 229 b 165 488 143 285 156 351 l 195 979 l 978 979 l 978 229 l 1100 229 l 1100 -193 l 842 -193 l 842 0 l 271 0 m 427 460 b 366 234 420 353 405 278 l 366 229 l 690 229 l 690 751 l 447 751 l 427 460 "},"Е":{"ha":831,"x_min":0,"x_max":0,"o":"m 762 0 l 71 0 l 71 979 l 762 979 l 762 750 l 359 750 l 359 592 l 736 592 l 736 386 l 359 386 l 359 229 l 762 229 "},"Ё":{"ha":831,"x_min":0,"x_max":0,"o":"m 258 1044 b 137 1163 190 1044 137 1098 b 258 1282 137 1228 190 1282 b 382 1163 327 1282 382 1228 b 258 1044 382 1098 327 1044 m 574 1044 b 451 1163 505 1044 451 1098 b 574 1282 451 1228 505 1282 b 696 1163 642 1282 696 1228 b 574 1044 696 1098 642 1044 m 762 0 l 71 0 l 71 979 l 762 979 l 762 750 l 359 750 l 359 592 l 736 592 l 736 386 l 359 386 l 359 229 l 762 229 "},"Ӗ":{"ha":831,"x_min":0,"x_max":0,"o":"m 312 1273 b 416 1181 314 1212 355 1181 b 521 1273 477 1181 519 1212 l 676 1273 b 416 1055 676 1137 571 1055 b 157 1273 262 1055 157 1137 m 762 0 l 71 0 l 71 979 l 762 979 l 762 750 l 359 750 l 359 592 l 736 592 l 736 386 l 359 386 l 359 229 l 762 229 "},"Ѐ":{"ha":831,"x_min":0,"x_max":0,"o":"m 184 1272 l 412 1272 l 507 1055 l 329 1055 m 762 0 l 71 0 l 71 979 l 762 979 l 762 750 l 359 750 l 359 592 l 736 592 l 736 386 l 359 386 l 359 229 l 762 229 "},"Ж":{"ha":1459,"x_min":0,"x_max":0,"o":"m 871 600 l 1132 979 l 1437 979 l 1106 519 l 1452 0 l 1115 0 l 871 385 l 866 385 l 866 0 l 589 0 l 589 385 l 584 385 l 340 0 l 7 0 l 349 513 l 15 979 l 323 979 l 584 600 l 589 600 l 589 979 l 866 979 l 866 600 "},"Ӂ":{"ha":1459,"x_min":0,"x_max":0,"o":"m 624 1273 b 728 1181 626 1212 667 1181 b 833 1273 789 1181 831 1212 l 988 1273 b 728 1055 988 1137 883 1055 b 469 1273 574 1055 469 1137 m 871 600 l 1132 979 l 1437 979 l 1106 519 l 1452 0 l 1115 0 l 871 385 l 866 385 l 866 0 l 589 0 l 589 385 l 584 385 l 340 0 l 7 0 l 349 513 l 15 979 l 323 979 l 584 600 l 589 600 l 589 979 l 866 979 l 866 600 "},"Ӝ":{"ha":1459,"x_min":0,"x_max":0,"o":"m 570 1044 b 449 1163 502 1044 449 1098 b 570 1282 449 1228 502 1282 b 694 1163 639 1282 694 1228 b 570 1044 694 1098 639 1044 m 886 1044 b 763 1163 817 1044 763 1098 b 886 1282 763 1228 817 1282 b 1008 1163 954 1282 1008 1228 b 886 1044 1008 1098 954 1044 m 871 600 l 1132 979 l 1437 979 l 1106 519 l 1452 0 l 1115 0 l 871 385 l 866 385 l 866 0 l 589 0 l 589 385 l 584 385 l 340 0 l 7 0 l 349 513 l 15 979 l 323 979 l 584 600 l 589 600 l 589 979 l 866 979 l 866 600 "},"Җ":{"ha":1459,"x_min":0,"x_max":0,"o":"m 871 600 l 1132 979 l 1437 979 l 1106 519 l 1300 228 l 1442 228 l 1442 15 l 1452 0 l 1442 0 l 1442 -193 l 1184 -193 l 1184 0 l 1115 0 l 871 385 l 866 385 l 866 0 l 589 0 l 589 385 l 584 385 l 340 0 l 7 0 l 349 513 l 15 979 l 323 979 l 584 600 l 589 600 l 589 979 l 866 979 l 866 600 "},"З":{"ha":939,"x_min":0,"x_max":0,"o":"m 338 605 l 465 605 b 591 700 542 605 591 641 b 461 795 591 760 542 795 b 325 680 380 795 325 749 l 65 680 b 467 1006 66 879 223 1006 b 858 737 703 1006 858 899 b 671 517 858 624 783 536 l 671 511 b 892 277 805 498 892 406 b 460 -27 892 96 718 -27 b 47 301 218 -27 56 102 l 321 301 b 466 195 323 235 378 195 b 597 301 545 195 597 238 b 463 395 597 360 547 395 l 338 395 "},"Ӟ":{"ha":939,"x_min":0,"x_max":0,"o":"m 309 1044 b 188 1163 241 1044 188 1098 b 309 1282 188 1228 241 1282 b 433 1163 378 1282 433 1228 b 309 1044 433 1098 378 1044 m 625 1044 b 502 1163 556 1044 502 1098 b 625 1282 502 1228 556 1282 b 747 1163 693 1282 747 1228 b 625 1044 747 1098 693 1044 m 338 605 l 465 605 b 591 700 542 605 591 641 b 461 795 591 760 542 795 b 325 680 380 795 325 749 l 65 680 b 467 1006 66 879 223 1006 b 858 737 703 1006 858 899 b 671 517 858 624 783 536 l 671 511 b 892 277 805 498 892 406 b 460 -27 892 96 718 -27 b 47 301 218 -27 56 102 l 321 301 b 466 195 323 235 378 195 b 597 301 545 195 597 238 b 463 395 597 360 547 395 l 338 395 "},"Ҙ":{"ha":939,"x_min":0,"x_max":0,"o":"m 338 605 l 465 605 b 591 700 542 605 591 641 b 461 795 591 760 542 795 b 325 680 380 795 325 749 l 65 680 b 467 1006 66 879 223 1006 b 858 737 703 1006 858 899 b 671 517 858 624 783 536 l 671 511 b 892 277 805 498 892 406 b 586 -16 892 127 772 17 l 586 -193 l 334 -193 l 334 -14 b 47 301 163 23 55 139 l 321 301 b 466 195 323 235 378 195 b 597 301 545 195 597 238 b 463 395 597 360 547 395 l 338 395 "},"И":{"ha":1076,"x_min":0,"x_max":0,"o":"m 713 545 l 708 545 l 349 0 l 75 0 l 75 979 l 362 979 l 362 434 l 368 434 l 727 979 l 1001 979 l 1001 0 l 713 0 "},"Й":{"ha":1076,"x_min":0,"x_max":0,"o":"m 433 1273 b 537 1181 435 1212 476 1181 b 642 1273 598 1181 640 1212 l 797 1273 b 537 1055 797 1137 692 1055 b 277 1273 382 1055 277 1137 m 713 545 l 708 545 l 349 0 l 75 0 l 75 979 l 362 979 l 362 434 l 368 434 l 727 979 l 1001 979 l 1001 0 l 713 0 "},"Ѝ":{"ha":1076,"x_min":0,"x_max":0,"o":"m 305 1272 l 533 1272 l 627 1055 l 450 1055 m 713 545 l 708 545 l 349 0 l 75 0 l 75 979 l 362 979 l 362 434 l 368 434 l 727 979 l 1001 979 l 1001 0 l 713 0 "},"Ӣ":{"ha":1076,"x_min":0,"x_max":0,"o":"m 776 1101 l 298 1101 l 298 1236 l 776 1236 m 713 545 l 708 545 l 349 0 l 75 0 l 75 979 l 362 979 l 362 434 l 368 434 l 727 979 l 1001 979 l 1001 0 l 713 0 "},"Ӥ":{"ha":1076,"x_min":0,"x_max":0,"o":"m 379 1044 b 258 1163 311 1044 258 1098 b 379 1282 258 1228 311 1282 b 503 1163 448 1282 503 1228 b 379 1044 503 1098 448 1044 m 694 1044 b 572 1163 626 1044 572 1098 b 694 1282 572 1228 626 1282 b 817 1163 763 1282 817 1228 b 694 1044 817 1098 763 1044 m 713 545 l 708 545 l 349 0 l 75 0 l 75 979 l 362 979 l 362 434 l 368 434 l 727 979 l 1001 979 l 1001 0 l 713 0 "},"Ҋ":{"ha":1122,"x_min":0,"x_max":0,"o":"m 433 1273 b 537 1181 435 1212 476 1181 b 642 1273 598 1181 640 1212 l 797 1273 b 537 1055 797 1137 692 1055 b 277 1273 382 1055 277 1137 m 713 545 l 708 545 l 349 0 l 75 0 l 75 979 l 362 979 l 362 434 l 368 434 l 727 979 l 1001 979 l 1001 228 l 1122 228 l 1122 178 l 1030 -193 l 782 -193 l 837 0 l 713 0 "},"К":{"ha":1007,"x_min":0,"x_max":0,"o":"m 368 600 l 670 979 l 979 979 l 612 519 l 997 0 l 653 0 l 368 385 l 362 385 l 362 0 l 75 0 l 75 979 l 362 979 l 362 600 "},"Ќ":{"ha":1007,"x_min":0,"x_max":0,"o":"m 385 1055 l 479 1272 l 707 1272 l 562 1055 m 368 600 l 670 979 l 979 979 l 612 519 l 997 0 l 653 0 l 368 385 l 362 385 l 362 0 l 75 0 l 75 979 l 362 979 l 362 600 "},"Қ":{"ha":1007,"x_min":0,"x_max":0,"o":"m 368 600 l 670 979 l 979 979 l 612 519 l 828 228 l 980 228 l 980 23 l 997 0 l 980 0 l 980 -193 l 722 -193 l 722 0 l 653 0 l 368 385 l 362 385 l 362 0 l 75 0 l 75 979 l 362 979 l 362 600 "},"Ҝ":{"ha":1068,"x_min":0,"x_max":0,"o":"m 362 0 l 75 0 l 75 979 l 362 979 l 362 568 l 430 568 l 430 758 l 583 758 l 583 568 l 585 568 l 772 979 l 1046 979 l 825 494 l 1061 0 l 755 0 l 587 366 l 583 366 l 583 190 l 430 190 l 430 366 l 362 366 "},"Ҟ":{"ha":1007,"x_min":0,"x_max":0,"o":"m 368 600 l 670 979 l 979 979 l 612 519 l 997 0 l 653 0 l 368 385 l 362 385 l 362 0 l 75 0 l 75 734 l 11 734 l 11 926 l 75 926 l 75 979 l 362 979 l 362 926 l 426 926 l 426 734 l 362 734 l 362 600 "},"Ҡ":{"ha":1367,"x_min":0,"x_max":0,"o":"m 31 979 l 722 979 l 722 600 l 728 600 l 1030 979 l 1339 979 l 972 519 l 1357 0 l 1013 0 l 728 385 l 722 385 l 722 0 l 435 0 l 435 787 l 31 787 "},"Ӄ":{"ha":1040,"x_min":0,"x_max":0,"o":"m 566 -290 b 449 -279 518 -290 473 -286 l 449 -61 b 513 -66 465 -65 487 -66 b 688 130 627 -66 688 35 b 422 347 688 257 582 347 l 407 347 l 407 0 l 119 0 l 119 979 l 407 979 l 407 575 l 411 575 l 715 979 l 1017 979 l 682 535 b 977 137 871 465 977 311 b 566 -290 977 -98 806 -290 "},"Л":{"ha":1048,"x_min":0,"x_max":0,"o":"m 686 0 l 686 751 l 473 751 l 457 407 b 127 -11 446 161 359 -11 b 27 0 79 -11 41 -4 l 27 249 b 81 243 39 247 57 243 b 195 429 170 243 191 324 l 218 979 l 974 979 l 974 0 "},"Ӆ":{"ha":1095,"x_min":0,"x_max":0,"o":"m 810 0 l 686 0 l 686 751 l 473 751 l 457 407 b 127 -11 446 161 359 -11 b 27 0 79 -11 41 -4 l 27 249 b 81 243 39 247 57 243 b 195 429 170 243 191 324 l 218 979 l 974 979 l 974 228 l 1095 228 l 1095 178 l 1003 -193 l 755 -193 "},"Ԯ":{"ha":1109,"x_min":0,"x_max":0,"o":"m 838 -1 l 686 -1 l 686 751 l 473 751 l 457 407 b 127 -11 446 161 359 -11 b 27 0 79 -11 41 -4 l 27 249 b 81 243 39 247 57 243 b 195 429 170 243 191 324 l 218 979 l 974 979 l 974 227 l 1096 227 l 1096 -194 l 838 -194 "},"Ԓ":{"ha":1048,"x_min":0,"x_max":0,"o":"m 574 -69 b 606 -71 582 -71 594 -71 b 686 -7 662 -71 686 -53 l 686 751 l 473 751 l 457 407 b 127 -11 446 161 359 -11 b 27 0 79 -11 41 -4 l 27 249 b 81 243 39 247 57 243 b 195 429 170 243 191 324 l 218 979 l 974 979 l 974 -7 b 659 -267 974 -177 858 -267 b 574 -263 631 -267 590 -265 "},"М":{"ha":1250,"x_min":0,"x_max":0,"o":"m 928 0 l 928 567 l 922 567 l 702 0 l 548 0 l 328 567 l 322 567 l 322 0 l 71 0 l 71 979 l 404 979 l 623 396 l 628 396 l 846 979 l 1179 979 l 1179 0 "},"Ӎ":{"ha":1336,"x_min":0,"x_max":0,"o":"m 1051 0 l 928 0 l 928 567 l 922 567 l 702 0 l 548 0 l 328 567 l 322 567 l 322 0 l 71 0 l 71 979 l 404 979 l 623 396 l 628 396 l 846 979 l 1179 979 l 1179 228 l 1336 228 l 1336 178 l 1244 -193 l 996 -193 "},"Н":{"ha":1062,"x_min":0,"x_max":0,"o":"m 703 0 l 703 378 l 359 378 l 359 0 l 71 0 l 71 979 l 359 979 l 359 607 l 703 607 l 703 979 l 991 979 l 991 0 "},"Ӈ":{"ha":1062,"x_min":0,"x_max":0,"o":"m 591 -69 b 623 -71 599 -71 611 -71 b 703 -7 679 -71 703 -53 l 703 378 l 359 378 l 359 0 l 71 0 l 71 979 l 359 979 l 359 607 l 703 607 l 703 979 l 991 979 l 991 -7 b 675 -267 991 -177 875 -267 b 591 -263 648 -267 607 -265 "},"Ң":{"ha":1126,"x_min":0,"x_max":0,"o":"m 855 -1 l 703 -1 l 703 378 l 359 378 l 359 0 l 71 0 l 71 979 l 359 979 l 359 607 l 703 607 l 703 979 l 991 979 l 991 227 l 1113 227 l 1113 -194 l 855 -194 "},"Ӊ":{"ha":1112,"x_min":0,"x_max":0,"o":"m 827 0 l 703 0 l 703 378 l 359 378 l 359 0 l 71 0 l 71 979 l 359 979 l 359 607 l 703 607 l 703 979 l 991 979 l 991 228 l 1112 228 l 1112 178 l 1020 -193 l 772 -193 "},"Ҥ":{"ha":1380,"x_min":0,"x_max":0,"o":"m 703 0 l 703 378 l 359 378 l 359 0 l 71 0 l 71 979 l 359 979 l 359 607 l 703 607 l 703 979 l 1339 979 l 1339 751 l 991 751 l 991 0 "},"О":{"ha":1081,"x_min":0,"x_max":0,"o":"m 541 996 b 1034 489 843 996 1034 802 b 541 -17 1034 176 843 -17 b 47 489 237 -17 47 176 b 541 996 47 802 238 996 m 541 766 b 340 489 420 766 340 659 b 541 212 340 320 420 212 b 741 489 661 212 741 320 b 541 766 741 659 661 766 "},"Ӧ":{"ha":1081,"x_min":0,"x_max":0,"o":"m 382 1044 b 261 1163 314 1044 261 1098 b 382 1282 261 1228 314 1282 b 506 1163 451 1282 506 1228 b 382 1044 506 1098 451 1044 m 698 1044 b 575 1163 629 1044 575 1098 b 698 1282 575 1228 629 1282 b 820 1163 766 1282 820 1228 b 698 1044 820 1098 766 1044 m 541 996 b 1034 489 843 996 1034 802 b 541 -17 1034 176 843 -17 b 47 489 237 -17 47 176 b 541 996 47 802 238 996 m 541 766 b 340 489 420 766 340 659 b 541 212 340 320 420 212 b 741 489 661 212 741 320 b 541 766 741 659 661 766 "},"Ө":{"ha":1087,"x_min":0,"x_max":0,"o":"m 544 1006 b 1036 490 843 1006 1036 809 b 544 -27 1036 169 843 -27 b 51 490 243 -27 51 169 b 544 1006 51 809 245 1006 m 544 774 b 353 600 451 774 381 709 l 734 600 b 544 774 706 709 636 774 m 544 204 b 736 386 638 204 709 273 l 351 386 b 544 204 378 273 450 204 "},"Ӫ":{"ha":1087,"x_min":0,"x_max":0,"o":"m 387 1044 b 266 1163 319 1044 266 1098 b 387 1282 266 1228 319 1282 b 511 1163 456 1282 511 1228 b 387 1044 511 1098 456 1044 m 703 1044 b 580 1163 634 1044 580 1098 b 703 1282 580 1228 634 1282 b 825 1163 771 1282 825 1228 b 703 1044 825 1098 771 1044 m 544 1006 b 1036 490 843 1006 1036 809 b 544 -27 1036 169 843 -27 b 51 490 243 -27 51 169 b 544 1006 51 809 245 1006 m 544 774 b 353 600 451 774 381 709 l 734 600 b 544 774 706 709 636 774 m 544 204 b 736 386 638 204 709 273 l 351 386 b 544 204 378 273 450 204 "},"Ѳ":{"ha":1087,"x_min":0,"x_max":0,"o":"m 544 1006 b 1036 490 843 1006 1036 809 b 544 -27 1036 169 843 -27 b 51 490 243 -27 51 169 b 544 1006 51 809 245 1006 m 544 774 b 348 576 445 774 371 699 b 441 611 376 599 408 611 b 650 570 525 611 581 570 b 734 601 689 570 722 585 b 544 774 706 709 636 774 m 433 410 b 353 378 397 410 366 394 b 544 204 381 269 451 204 b 740 408 644 204 718 281 b 637 368 708 380 671 368 b 433 410 558 368 501 410 "},"П":{"ha":1062,"x_min":0,"x_max":0,"o":"m 700 0 l 700 751 l 362 751 l 362 0 l 75 0 l 75 979 l 987 979 l 987 0 "},"Ԥ":{"ha":1123,"x_min":0,"x_max":0,"o":"m 852 -1 l 700 -1 l 700 751 l 362 751 l 362 0 l 75 0 l 75 979 l 987 979 l 987 227 l 1109 227 l 1109 -194 l 852 -194 "},"Џ":{"ha":1062,"x_min":0,"x_max":0,"o":"m 75 0 l 75 979 l 362 979 l 362 228 l 700 228 l 700 979 l 987 979 l 987 0 l 667 0 l 667 -193 l 395 -193 l 395 0 "},"Р":{"ha":920,"x_min":0,"x_max":0,"o":"m 518 979 b 882 622 736 979 882 840 b 498 267 882 406 727 267 l 359 267 l 359 0 l 71 0 l 71 979 m 359 479 l 439 479 b 592 621 535 479 592 528 b 441 762 592 714 535 762 l 359 762 "},"Ҏ":{"ha":941,"x_min":0,"x_max":0,"o":"m 522 979 b 886 622 739 979 886 840 b 739 339 886 503 832 401 l 806 236 l 651 130 l 557 274 b 487 269 535 271 511 269 l 362 269 l 362 0 l 75 0 l 75 979 m 510 641 l 577 536 b 599 621 591 559 599 587 b 445 762 599 714 541 762 l 362 762 l 362 477 l 443 477 b 455 477 447 477 451 477 l 397 568 "},"С":{"ha":1033,"x_min":0,"x_max":0,"o":"m 533 -17 b 47 490 233 -17 47 167 b 533 996 47 812 234 996 b 987 585 791 996 987 827 l 712 585 b 533 770 705 696 633 770 b 340 490 415 770 340 665 b 534 209 340 313 414 209 b 713 395 633 209 705 281 l 989 395 b 533 -17 987 151 797 -17 "},"Ҫ":{"ha":1033,"x_min":0,"x_max":0,"o":"m 432 -66 l 461 -14 b 47 490 204 14 47 193 b 533 996 47 812 234 996 b 987 585 791 996 987 827 l 712 585 b 533 770 705 696 633 770 b 340 490 415 770 340 665 b 534 209 340 313 414 209 b 713 395 633 209 705 281 l 989 395 b 589 -14 987 168 823 8 l 566 -60 b 675 -174 631 -60 675 -105 b 497 -307 675 -262 616 -307 b 407 -296 460 -307 425 -303 l 407 -201 b 474 -209 424 -206 450 -209 b 538 -184 519 -209 538 -201 b 470 -153 538 -160 521 -153 l 432 -153 "},"Т":{"ha":871,"x_min":0,"x_max":0,"o":"m 292 0 l 292 750 l 34 750 l 34 979 l 837 979 l 837 750 l 579 750 l 579 0 "},"Ҭ":{"ha":871,"x_min":0,"x_max":0,"o":"m 444 -1 l 292 -1 l 292 750 l 34 750 l 34 979 l 837 979 l 837 750 l 579 750 l 579 227 l 701 227 l 701 -194 l 444 -194 "},"У":{"ha":984,"x_min":0,"x_max":0,"o":"m 276 -11 b 161 0 214 -11 161 0 l 161 224 b 227 217 161 224 178 217 b 342 258 273 217 313 222 l 27 979 l 332 979 l 496 525 l 502 525 l 652 979 l 957 979 l 657 280 b 276 -11 579 99 481 -11 "},"Ў":{"ha":984,"x_min":0,"x_max":0,"o":"m 390 1273 b 494 1181 392 1212 433 1181 b 599 1273 555 1181 597 1212 l 754 1273 b 494 1055 754 1137 649 1055 b 235 1273 340 1055 235 1137 m 276 -11 b 161 0 214 -11 161 0 l 161 224 b 227 217 161 224 178 217 b 342 258 273 217 313 222 l 27 979 l 332 979 l 496 525 l 502 525 l 652 979 l 957 979 l 657 280 b 276 -11 579 99 481 -11 "},"Ӯ":{"ha":984,"x_min":0,"x_max":0,"o":"m 733 1101 l 256 1101 l 256 1236 l 733 1236 m 276 -11 b 161 0 214 -11 161 0 l 161 224 b 227 217 161 224 178 217 b 342 258 273 217 313 222 l 27 979 l 332 979 l 496 525 l 502 525 l 652 979 l 957 979 l 657 280 b 276 -11 579 99 481 -11 "},"Ӱ":{"ha":984,"x_min":0,"x_max":0,"o":"m 336 1044 b 215 1163 268 1044 215 1098 b 336 1282 215 1228 268 1282 b 460 1163 405 1282 460 1228 b 336 1044 460 1098 405 1044 m 652 1044 b 529 1163 583 1044 529 1098 b 652 1282 529 1228 583 1282 b 774 1163 720 1282 774 1228 b 652 1044 774 1098 720 1044 m 276 -11 b 161 0 214 -11 161 0 l 161 224 b 227 217 161 224 178 217 b 342 258 273 217 313 222 l 27 979 l 332 979 l 496 525 l 502 525 l 652 979 l 957 979 l 657 280 b 276 -11 579 99 481 -11 "},"Ӳ":{"ha":984,"x_min":0,"x_max":0,"o":"m 321 1272 l 524 1272 l 429 1055 l 271 1055 m 625 1272 l 848 1272 l 703 1055 l 531 1055 m 276 -11 b 161 0 214 -11 161 0 l 161 224 b 227 217 161 224 178 217 b 342 258 273 217 313 222 l 27 979 l 332 979 l 496 525 l 502 525 l 652 979 l 957 979 l 657 280 b 276 -11 579 99 481 -11 "},"Ф":{"ha":1294,"x_min":0,"x_max":0,"o":"m 506 79 b 37 490 227 90 37 234 b 506 899 37 744 229 889 l 506 1006 l 788 1006 l 788 899 b 1257 489 1067 889 1257 745 b 788 79 1257 235 1065 90 l 788 -27 l 506 -27 l 506 79 m 511 680 b 326 490 401 673 326 604 b 511 299 326 375 401 306 m 968 489 b 783 680 968 604 892 673 l 783 299 b 968 489 892 306 968 375 "},"Х":{"ha":1029,"x_min":0,"x_max":0,"o":"m 319 490 l 319 496 l 31 979 l 366 979 l 519 667 l 525 667 l 680 979 l 998 979 l 695 494 l 695 489 l 997 0 l 677 0 l 509 295 l 503 295 l 335 0 l 31 0 "},"Ҳ":{"ha":1029,"x_min":0,"x_max":0,"o":"m 319 490 l 319 496 l 31 979 l 366 979 l 519 667 l 525 667 l 680 979 l 998 979 l 695 494 l 695 489 l 857 228 l 1004 228 l 1004 -193 l 746 -193 l 746 0 l 677 0 l 509 295 l 503 295 l 335 0 l 31 0 "},"Ӿ":{"ha":1029,"x_min":0,"x_max":0,"o":"m 263 394 l 103 394 l 103 585 l 266 585 l 31 979 l 366 979 l 519 667 l 525 667 l 680 979 l 998 979 l 752 585 l 926 585 l 926 394 l 753 394 l 997 0 l 677 0 l 509 295 l 503 295 l 335 0 l 31 0 "},"Ӽ":{"ha":1033,"x_min":0,"x_max":0,"o":"m 369 979 l 519 675 l 532 675 l 684 979 l 1002 979 l 698 492 l 842 256 b 918 118 878 198 901 155 b 950 -23 944 60 950 22 b 658 -288 950 -184 835 -288 b 533 -280 607 -288 559 -285 l 533 -67 b 589 -71 553 -70 568 -71 b 665 -10 634 -71 665 -46 b 655 38 665 4 663 17 b 612 119 648 56 635 81 l 516 287 l 503 287 l 338 0 l 35 0 l 324 494 l 34 979 "},"Ц":{"ha":1123,"x_min":0,"x_max":0,"o":"m 852 -193 l 852 0 l 75 0 l 75 979 l 362 979 l 362 228 l 700 228 l 700 979 l 987 979 l 987 228 l 1109 228 l 1109 -193 "},"Ҵ":{"ha":1323,"x_min":0,"x_max":0,"o":"m 31 979 l 806 979 l 806 787 l 562 787 l 562 228 l 900 228 l 900 979 l 1187 979 l 1187 228 l 1310 228 l 1310 -193 l 1052 -193 l 1052 0 l 275 0 l 275 787 l 31 787 "},"Ч":{"ha":1021,"x_min":0,"x_max":0,"o":"m 659 0 l 659 364 l 654 364 b 435 312 654 364 576 312 b 61 677 201 312 61 458 l 61 979 l 349 979 l 349 709 b 509 551 349 606 404 551 b 659 595 622 551 659 595 l 659 979 l 947 979 l 947 0 "},"Ӵ":{"ha":1021,"x_min":0,"x_max":0,"o":"m 345 1044 b 224 1163 277 1044 224 1098 b 345 1282 224 1228 277 1282 b 469 1163 414 1282 469 1228 b 345 1044 469 1098 414 1044 m 661 1044 b 538 1163 592 1044 538 1098 b 661 1282 538 1228 592 1282 b 783 1163 729 1282 783 1228 b 661 1044 783 1098 729 1044 m 659 0 l 659 364 l 654 364 b 435 312 654 364 576 312 b 61 677 201 312 61 458 l 61 979 l 349 979 l 349 709 b 509 551 349 606 404 551 b 659 595 622 551 659 595 l 659 979 l 947 979 l 947 0 "},"Ҷ":{"ha":1082,"x_min":0,"x_max":0,"o":"m 811 -1 l 659 -1 l 659 364 l 654 364 b 435 312 654 364 576 312 b 61 677 201 312 61 458 l 61 979 l 349 979 l 349 709 b 509 551 349 606 404 551 b 659 595 622 551 659 595 l 659 979 l 947 979 l 947 227 l 1069 227 l 1069 -194 l 811 -194 "},"Ӌ":{"ha":1021,"x_min":0,"x_max":0,"o":"m 537 -193 l 537 228 l 659 228 l 659 364 l 654 364 b 435 312 654 364 576 312 b 61 677 201 312 61 458 l 61 979 l 349 979 l 349 709 b 509 551 349 606 404 551 b 659 595 622 551 659 595 l 659 979 l 947 979 l 947 0 l 795 0 l 795 -193 "},"Ҹ":{"ha":1048,"x_min":0,"x_max":0,"o":"m 609 730 l 609 564 b 686 608 644 574 671 590 l 686 979 l 974 979 l 974 0 l 686 0 l 686 370 l 673 370 b 609 336 654 356 633 345 l 609 207 l 435 207 l 435 312 b 61 677 218 313 61 455 l 61 979 l 349 979 l 349 709 b 435 562 349 633 375 583 l 435 730 "},"Һ":{"ha":1035,"x_min":0,"x_max":0,"o":"m 362 979 l 362 601 l 376 601 b 598 667 431 642 509 667 b 960 301 814 667 960 524 l 960 0 l 673 0 l 673 269 b 517 428 673 372 618 428 b 362 350 442 428 389 401 l 362 0 l 75 0 l 75 979 "},"Ԧ":{"ha":1096,"x_min":0,"x_max":0,"o":"m 825 -1 l 673 -1 l 673 269 b 517 428 673 372 618 428 b 362 350 442 428 389 401 l 362 0 l 75 0 l 75 979 l 362 979 l 362 601 l 376 601 b 598 667 431 642 509 667 b 960 301 814 667 960 524 l 960 227 l 1082 227 l 1082 -194 l 825 -194 "},"Ћ":{"ha":1220,"x_min":0,"x_max":0,"o":"m 731 376 b 583 298 656 376 610 340 l 583 0 l 296 0 l 296 751 l 37 751 l 37 979 l 842 979 l 842 751 l 583 751 l 583 549 l 589 549 b 802 614 642 590 709 614 b 1145 249 1034 614 1145 462 l 1145 0 l 858 0 l 858 232 b 731 376 858 321 812 376 "},"Ш":{"ha":1416,"x_min":0,"x_max":0,"o":"m 75 979 l 362 979 l 362 228 l 564 228 l 564 979 l 852 979 l 852 228 l 1054 228 l 1054 979 l 1341 979 l 1341 0 l 75 0 "},"Щ":{"ha":1478,"x_min":0,"x_max":0,"o":"m 75 979 l 362 979 l 362 228 l 564 228 l 564 979 l 852 979 l 852 228 l 1054 228 l 1054 979 l 1341 979 l 1341 227 l 1464 227 l 1464 -194 l 1206 -194 l 1206 -1 l 1055 -1 l 1055 0 l 75 0 "},"Ъ":{"ha":1120,"x_min":0,"x_max":0,"o":"m 268 0 l 268 751 l 37 751 l 37 979 l 555 979 l 555 684 l 695 684 b 1079 343 924 684 1079 551 b 715 0 1079 134 932 0 m 638 217 b 786 344 730 217 786 260 b 636 471 786 429 730 471 l 555 471 l 555 217 "},"Ы":{"ha":1332,"x_min":0,"x_max":0,"o":"m 75 979 l 362 979 l 362 684 l 502 684 b 886 343 730 684 886 551 b 522 0 886 134 739 0 l 75 0 m 970 0 l 970 979 l 1257 979 l 1257 0 m 445 217 b 593 344 537 217 593 260 b 443 471 593 429 536 471 l 362 471 l 362 217 "},"Ӹ":{"ha":1332,"x_min":0,"x_max":0,"o":"m 508 1044 b 387 1163 439 1044 387 1098 b 508 1282 387 1228 439 1282 b 631 1163 576 1282 631 1228 b 508 1044 631 1098 576 1044 m 823 1044 b 701 1163 755 1044 701 1098 b 823 1282 701 1228 755 1282 b 945 1163 892 1282 945 1228 b 823 1044 945 1098 892 1044 m 75 979 l 362 979 l 362 684 l 502 684 b 886 343 730 684 886 551 b 522 0 886 134 739 0 l 75 0 m 970 0 l 970 979 l 1257 979 l 1257 0 m 445 217 b 593 344 537 217 593 260 b 443 471 593 429 536 471 l 362 471 l 362 217 "},"Ҍ":{"ha":1096,"x_min":0,"x_max":0,"o":"m 244 762 l 7 762 l 7 951 l 244 951 l 244 1043 l 532 1043 l 532 951 l 825 951 l 825 762 l 532 762 l 532 657 l 678 657 b 1055 330 903 657 1055 529 b 698 0 1055 128 911 0 l 244 0 m 621 217 b 762 330 709 217 762 255 b 619 444 762 406 709 444 l 532 444 l 532 217 "},"Ѣ":{"ha":1096,"x_min":0,"x_max":0,"o":"m 244 762 l 7 762 l 7 951 l 244 951 l 244 1043 l 532 1043 l 532 951 l 825 951 l 825 762 l 532 762 l 532 657 l 678 657 b 1055 330 903 657 1055 529 b 698 0 1055 128 911 0 l 244 0 m 621 217 b 762 330 709 217 762 255 b 619 444 762 406 709 444 l 532 444 l 532 217 "},"Ь":{"ha":926,"x_min":0,"x_max":0,"o":"m 75 979 l 362 979 l 362 684 l 502 684 b 886 343 730 684 886 551 b 522 0 886 134 739 0 l 75 0 m 445 217 b 593 344 537 217 593 260 b 443 471 593 429 536 471 l 362 471 l 362 217 "},"Љ":{"ha":1538,"x_min":0,"x_max":0,"o":"m 457 407 b 127 -11 446 161 359 -11 b 27 0 79 -11 41 -4 l 27 249 b 81 243 39 247 57 243 b 195 429 170 243 191 324 l 218 979 l 974 979 l 974 684 l 1114 684 b 1497 343 1342 684 1497 551 b 1133 0 1497 134 1351 0 l 686 0 l 686 751 l 473 751 l 457 407 m 1057 217 b 1204 344 1149 217 1204 260 b 1055 471 1204 429 1148 471 l 974 471 l 974 217 "},"Њ":{"ha":1545,"x_min":0,"x_max":0,"o":"m 362 0 l 75 0 l 75 979 l 362 979 l 362 621 l 693 621 l 693 979 l 981 979 l 981 621 l 1120 621 b 1504 313 1352 621 1504 498 b 1140 0 1504 123 1360 0 l 693 0 l 693 399 l 362 399 m 1084 217 b 1216 315 1168 217 1216 252 b 1082 411 1216 376 1168 411 l 981 411 l 981 217 "},"Э":{"ha":1039,"x_min":0,"x_max":0,"o":"m 507 -27 b 47 368 250 -27 62 135 l 326 368 b 506 209 343 270 413 209 b 690 388 598 209 675 274 l 355 388 l 355 595 l 688 595 b 507 770 673 706 597 770 b 327 612 414 770 343 708 l 49 612 b 507 1006 64 841 256 1006 b 988 490 803 1006 988 812 b 507 -27 988 167 804 -27 "},"Ӭ":{"ha":1039,"x_min":0,"x_max":0,"o":"m 348 1044 b 227 1163 279 1044 227 1098 b 348 1282 227 1228 279 1282 b 471 1163 416 1282 471 1228 b 348 1044 471 1098 416 1044 m 663 1044 b 541 1163 595 1044 541 1098 b 663 1282 541 1228 595 1282 b 785 1163 732 1282 785 1228 b 663 1044 785 1098 732 1044 m 507 -27 b 47 368 250 -27 62 135 l 326 368 b 506 209 343 270 413 209 b 690 388 598 209 675 274 l 355 388 l 355 595 l 688 595 b 507 770 673 706 597 770 b 327 612 414 770 343 708 l 49 612 b 507 1006 64 841 256 1006 b 988 490 803 1006 988 812 b 507 -27 988 167 804 -27 "},"Ю":{"ha":1482,"x_min":0,"x_max":0,"o":"m 946 -27 b 468 379 686 -27 507 124 l 362 379 l 362 0 l 75 0 l 75 979 l 362 979 l 362 607 l 469 607 b 946 1006 511 857 689 1006 b 1432 490 1241 1006 1432 809 b 946 -27 1432 169 1241 -27 m 945 771 b 750 490 830 771 750 661 b 945 208 750 317 830 208 b 1139 490 1059 208 1139 317 b 945 771 1139 661 1059 771 "},"Я":{"ha":983,"x_min":0,"x_max":0,"o":"m 345 0 l 37 0 l 271 372 b 79 646 158 418 79 517 b 476 979 79 846 224 979 l 909 979 l 909 0 l 625 0 l 625 330 l 541 330 m 625 766 l 502 766 b 372 645 425 766 372 718 b 503 525 372 571 422 525 l 625 525 "},"Ҕ":{"ha":992,"x_min":0,"x_max":0,"o":"m 755 751 l 362 751 l 362 549 l 374 549 b 591 614 427 590 497 614 b 945 282 830 614 945 466 b 553 -80 945 67 802 -80 b 444 -68 483 -80 444 -68 l 444 143 b 517 137 444 143 467 137 b 656 259 602 137 656 180 b 517 376 656 332 605 376 b 362 298 444 376 389 345 l 362 0 l 75 0 l 75 979 l 755 979 "},"Ҧ":{"ha":1584,"x_min":0,"x_max":0,"o":"m 954 979 l 954 549 l 966 549 b 1183 614 1022 593 1094 614 b 1536 282 1400 614 1536 486 b 1145 -80 1536 60 1385 -80 b 1035 -68 1104 -80 1058 -75 l 1035 143 b 1109 137 1048 140 1079 137 b 1247 259 1196 137 1247 182 b 1109 376 1247 332 1196 376 b 954 298 1038 376 981 347 l 954 0 l 666 0 l 666 751 l 362 751 l 362 0 l 75 0 l 75 979 "},"Є":{"ha":1039,"x_min":0,"x_max":0,"o":"m 991 368 b 536 -27 977 135 791 -27 b 51 490 237 -27 51 167 b 536 1006 51 812 237 1006 b 990 612 785 1006 975 841 l 712 612 b 536 770 696 708 627 770 b 351 595 444 770 368 706 l 684 595 l 684 388 l 349 388 b 537 209 366 274 443 209 b 713 368 628 209 696 270 l 991 368 "},"Ӏ":{"ha":430,"x_min":0,"x_max":0,"o":"m 71 0 l 71 979 l 359 979 l 359 0 "},"І":{"ha":430,"x_min":0,"x_max":0,"o":"m 71 0 l 71 979 l 359 979 l 359 0 "},"Ї":{"ha":430,"x_min":0,"x_max":0,"o":"m 57 1044 b -64 1163 -12 1044 -64 1098 b 57 1282 -64 1228 -12 1282 b 180 1163 125 1282 180 1228 b 57 1044 180 1098 125 1044 m 372 1044 b 250 1163 304 1044 250 1098 b 372 1282 250 1228 304 1282 b 494 1163 441 1282 494 1228 b 372 1044 494 1098 441 1044 m 71 0 l 71 979 l 359 979 l 359 0 "},"Ҩ":{"ha":1380,"x_min":0,"x_max":0,"o":"m 610 -24 b 51 499 262 -24 51 191 b 530 1008 51 787 241 986 l 530 760 b 335 494 406 732 335 627 b 613 203 335 336 444 203 b 652 204 627 203 640 203 b 523 516 569 286 523 390 b 887 882 523 730 667 882 b 1252 532 1108 882 1252 745 b 1112 202 1252 416 1198 292 b 1131 201 1118 201 1124 201 b 1272 245 1184 201 1235 221 l 1360 46 b 1130 -26 1291 -3 1211 -26 b 878 37 1031 -26 951 -5 b 610 -24 800 -6 713 -24 m 793 526 b 890 293 793 433 827 351 b 979 526 947 351 979 437 b 888 659 979 608 944 659 b 793 526 829 659 793 608 "},"Ү":{"ha":1004,"x_min":0,"x_max":0,"o":"m 358 0 l 358 310 l 24 979 l 331 979 l 503 582 l 508 582 l 680 979 l 980 979 l 646 310 l 646 0 "},"Ұ":{"ha":1004,"x_min":0,"x_max":0,"o":"m 143 481 l 273 481 l 24 979 l 331 979 l 503 582 l 508 582 l 680 979 l 980 979 l 732 481 l 861 481 l 861 290 l 646 290 l 646 0 l 358 0 l 358 290 l 143 290 "},"Ҽ":{"ha":1276,"x_min":0,"x_max":0,"o":"m 773 -27 b 287 423 495 -27 312 141 b 7 662 106 428 7 526 b 31 781 7 740 31 781 l 248 781 b 229 702 248 781 229 745 b 297 625 229 662 252 629 b 761 1006 342 859 512 1006 b 1225 511 1054 1006 1225 824 b 1222 423 1225 477 1222 423 l 583 423 l 583 412 b 772 203 582 284 656 203 b 937 315 854 203 916 241 l 1220 315 b 773 -27 1196 118 1010 -27 m 928 614 b 758 776 921 713 851 776 b 585 614 667 776 596 712 "},"Ҿ":{"ha":1276,"x_min":0,"x_max":0,"o":"m 1220 315 b 899 -13 1200 155 1074 28 l 899 -193 l 646 -193 l 646 -14 b 287 423 440 31 308 186 b 7 662 106 428 7 526 b 31 781 7 740 31 781 l 248 781 b 229 702 248 781 229 745 b 297 625 229 662 252 629 b 761 1006 342 859 512 1006 b 1225 511 1054 1006 1225 824 b 1222 423 1225 477 1222 423 l 583 423 l 583 412 b 772 203 582 284 656 203 b 937 315 854 203 916 241 l 1220 315 m 928 614 b 758 776 921 713 851 776 b 585 614 667 776 596 712 "},"Ӕ":{"ha":1414,"x_min":0,"x_max":0,"o":"m 651 194 l 378 194 l 311 0 l 27 0 l 393 979 l 1339 979 l 1339 751 l 903 751 l 903 592 l 1314 592 l 1314 386 l 903 386 l 903 228 l 1339 228 l 1339 0 l 651 0 m 448 397 l 651 397 l 651 766 l 575 766 "},"Ə":{"ha":1042,"x_min":0,"x_max":0,"o":"m 524 -27 b 51 471 218 -27 51 180 b 54 562 51 532 54 562 l 693 562 l 693 566 b 515 776 694 688 616 776 b 347 664 417 776 367 724 l 58 664 b 514 1006 98 876 277 1006 b 991 488 802 1006 991 800 b 524 -27 991 178 802 -27 m 524 203 b 692 371 611 203 683 270 l 348 371 b 524 203 355 271 426 203 "},"Ӛ":{"ha":1042,"x_min":0,"x_max":0,"o":"m 356 1044 b 235 1163 288 1044 235 1098 b 356 1282 235 1228 288 1282 b 479 1163 425 1282 479 1228 b 356 1044 479 1098 425 1044 m 671 1044 b 549 1163 603 1044 549 1098 b 671 1282 549 1228 603 1282 b 793 1163 740 1282 793 1228 b 671 1044 793 1098 740 1044 m 524 -27 b 51 471 218 -27 51 180 b 54 562 51 532 54 562 l 693 562 l 693 566 b 515 776 694 688 616 776 b 347 664 417 776 367 724 l 58 664 b 514 1006 98 876 277 1006 b 991 488 802 1006 991 800 b 524 -27 991 178 802 -27 m 524 203 b 692 371 611 203 683 270 l 348 371 b 524 203 355 271 426 203 "},"Ӡ":{"ha":919,"x_min":0,"x_max":0,"o":"m 446 -27 b 41 301 209 -27 50 102 l 315 301 b 452 196 316 236 368 196 b 579 301 528 196 579 238 b 414 412 579 370 520 412 l 277 412 l 277 595 l 467 737 l 467 751 l 81 751 l 81 979 l 822 979 l 822 799 l 564 600 l 564 586 b 871 300 747 568 871 469 b 446 -27 871 101 707 -27 "},"Ԑ":{"ha":939,"x_min":0,"x_max":0,"o":"m 476 389 b 342 294 393 389 342 356 b 473 195 342 237 395 195 b 618 301 562 195 610 235 l 892 301 b 479 -27 883 102 721 -27 b 47 274 228 -27 47 92 b 269 502 47 400 134 489 l 269 515 b 81 725 163 538 81 613 b 469 1006 81 901 241 1006 b 874 680 719 1006 870 877 l 614 680 b 478 795 612 749 559 795 b 349 696 397 795 349 758 b 475 599 349 636 397 599 l 602 599 l 602 389 "},"Ѵ":{"ha":1126,"x_min":0,"x_max":0,"o":"m 329 0 l 27 979 l 361 979 l 519 290 l 532 290 l 616 678 b 746 942 646 812 684 896 b 915 991 789 975 843 991 b 1119 939 984 991 1065 970 l 1042 712 b 983 726 1021 721 999 726 b 935 710 963 726 947 721 b 900 646 921 698 911 680 l 703 0 "},"Ԝ":{"ha":1405,"x_min":0,"x_max":0,"o":"m 554 0 l 283 0 l 31 979 l 328 979 l 440 360 l 446 360 l 591 979 l 814 979 l 960 360 l 965 360 l 1078 979 l 1375 979 l 1122 0 l 851 0 l 705 560 l 700 560 "},"Ђ":{"ha":1213,"x_min":0,"x_max":0,"o":"m 774 -80 b 665 -68 704 -80 665 -68 l 665 143 b 739 137 665 143 688 137 b 877 259 823 137 877 180 b 739 376 877 332 826 376 b 583 298 665 376 610 345 l 583 0 l 296 0 l 296 751 l 37 751 l 37 979 l 842 979 l 842 751 l 583 751 l 583 549 l 589 549 b 812 614 643 591 715 614 b 1166 282 1051 614 1166 466 b 774 -80 1166 67 1023 -80 "},"Ѕ":{"ha":936,"x_min":0,"x_max":0,"o":"m 309 296 b 469 203 319 237 388 203 b 608 287 555 203 608 239 b 460 372 608 333 570 353 l 362 390 b 61 675 168 425 61 523 b 463 996 61 871 231 996 b 873 681 725 996 871 874 l 608 681 b 467 775 606 741 545 775 b 346 696 387 775 346 740 b 486 613 346 652 388 631 l 584 595 b 893 313 794 557 893 471 b 466 -17 893 111 736 -17 b 44 296 212 -17 45 96 "},"Ј":{"ha":869,"x_min":0,"x_max":0,"o":"m 292 347 b 398 224 292 270 332 224 b 495 342 461 224 495 264 l 495 979 l 783 979 l 783 340 b 402 -17 783 110 640 -17 b 17 347 165 -17 17 120 "},"a":{"ha":823,"x_min":0,"x_max":0,"o":"m 277 -11 b 24 218 140 -11 24 83 b 335 452 24 361 135 439 l 499 462 l 499 498 b 409 576 499 549 461 576 b 311 507 352 576 315 545 l 63 507 b 424 768 70 667 205 768 b 770 512 631 768 770 664 l 770 0 l 499 0 l 499 100 l 494 100 b 277 -11 454 27 363 -11 m 380 175 b 499 264 442 175 499 210 l 499 313 l 381 305 b 298 239 328 301 298 276 b 380 175 298 199 332 175 "},"à":{"ha":823,"x_min":0,"x_max":0,"o":"m 186 1066 l 415 1066 l 511 844 l 334 844 m 277 -11 b 24 218 140 -11 24 83 b 335 452 24 361 135 439 l 499 462 l 499 498 b 409 576 499 549 461 576 b 311 507 352 576 315 545 l 63 507 b 424 768 70 667 205 768 b 770 512 631 768 770 664 l 770 0 l 499 0 l 499 100 l 494 100 b 277 -11 454 27 363 -11 m 380 175 b 499 264 442 175 499 210 l 499 313 l 381 305 b 298 239 328 301 298 276 b 380 175 298 199 332 175 "},"á":{"ha":823,"x_min":0,"x_max":0,"o":"m 331 844 l 427 1066 l 656 1066 l 509 844 m 277 -11 b 24 218 140 -11 24 83 b 335 452 24 361 135 439 l 499 462 l 499 498 b 409 576 499 549 461 576 b 311 507 352 576 315 545 l 63 507 b 424 768 70 667 205 768 b 770 512 631 768 770 664 l 770 0 l 499 0 l 499 100 l 494 100 b 277 -11 454 27 363 -11 m 380 175 b 499 264 442 175 499 210 l 499 313 l 381 305 b 298 239 328 301 298 276 b 380 175 298 199 332 175 "},"ä":{"ha":823,"x_min":0,"x_max":0,"o":"m 263 830 b 142 949 195 830 142 884 b 263 1069 142 1015 195 1069 b 387 949 332 1069 387 1015 b 263 830 387 884 332 830 m 578 830 b 456 949 510 830 456 884 b 578 1069 456 1015 510 1069 b 701 949 647 1069 701 1015 b 578 830 701 884 647 830 m 277 -11 b 24 218 140 -11 24 83 b 335 452 24 361 135 439 l 499 462 l 499 498 b 409 576 499 549 461 576 b 311 507 352 576 315 545 l 63 507 b 424 768 70 667 205 768 b 770 512 631 768 770 664 l 770 0 l 499 0 l 499 100 l 494 100 b 277 -11 454 27 363 -11 m 380 175 b 499 264 442 175 499 210 l 499 313 l 381 305 b 298 239 328 301 298 276 b 380 175 298 199 332 175 "},"ǟ":{"ha":823,"x_min":0,"x_max":0,"o":"m 660 1135 l 182 1135 l 182 1269 l 660 1269 m 279 838 b 178 933 221 838 178 881 b 279 1029 178 986 221 1029 b 380 933 338 1029 380 986 b 279 838 380 881 338 838 m 563 838 b 462 933 505 838 462 881 b 563 1029 462 986 505 1029 b 664 933 621 1029 664 986 b 563 838 664 881 621 838 m 277 -11 b 24 218 140 -11 24 83 b 335 452 24 361 135 439 l 499 462 l 499 498 b 409 576 499 549 461 576 b 311 507 352 576 315 545 l 63 507 b 424 768 70 667 205 768 b 770 512 631 768 770 664 l 770 0 l 499 0 l 499 100 l 494 100 b 277 -11 454 27 363 -11 m 380 175 b 499 264 442 175 499 210 l 499 313 l 381 305 b 298 239 328 301 298 276 b 380 175 298 199 332 175 "},"å":{"ha":823,"x_min":0,"x_max":0,"o":"m 421 824 b 256 983 332 824 256 896 b 421 1143 256 1072 332 1143 b 586 983 511 1143 586 1072 b 421 824 586 896 511 824 m 421 926 b 481 983 453 926 481 952 b 421 1042 481 1015 453 1042 b 361 983 389 1042 361 1015 b 421 926 361 952 389 926 m 277 -11 b 24 218 140 -11 24 83 b 335 452 24 361 135 439 l 499 462 l 499 498 b 409 576 499 549 461 576 b 311 507 352 576 315 545 l 63 507 b 424 768 70 667 205 768 b 770 512 631 768 770 664 l 770 0 l 499 0 l 499 100 l 494 100 b 277 -11 454 27 363 -11 m 380 175 b 499 264 442 175 499 210 l 499 313 l 381 305 b 298 239 328 301 298 276 b 380 175 298 199 332 175 "},"ǻ":{"ha":823,"x_min":0,"x_max":0,"o":"m 440 1343 l 653 1343 l 524 1187 l 342 1187 m 423 825 b 262 979 329 825 262 890 b 423 1134 262 1069 329 1134 b 584 979 517 1134 584 1069 b 423 825 584 890 517 825 m 370 979 b 423 926 370 949 393 926 b 476 979 454 926 476 949 b 423 1032 476 1010 454 1032 b 370 979 393 1032 370 1010 m 277 -11 b 24 218 140 -11 24 83 b 335 452 24 361 135 439 l 499 462 l 499 498 b 409 576 499 549 461 576 b 311 507 352 576 315 545 l 63 507 b 424 768 70 667 205 768 b 770 512 631 768 770 664 l 770 0 l 499 0 l 499 100 l 494 100 b 277 -11 454 27 363 -11 m 380 175 b 499 264 442 175 499 210 l 499 313 l 381 305 b 298 239 328 301 298 276 b 380 175 298 199 332 175 "},"ã":{"ha":823,"x_min":0,"x_max":0,"o":"m 521 838 b 338 918 418 838 389 918 b 286 844 307 918 286 893 l 153 844 b 319 1056 153 987 227 1056 b 505 975 422 1056 457 975 b 556 1050 542 975 556 1004 l 690 1050 b 521 838 688 912 614 838 m 277 -11 b 24 218 140 -11 24 83 b 335 452 24 361 135 439 l 499 462 l 499 498 b 409 576 499 549 461 576 b 311 507 352 576 315 545 l 63 507 b 424 768 70 667 205 768 b 770 512 631 768 770 664 l 770 0 l 499 0 l 499 100 l 494 100 b 277 -11 454 27 363 -11 m 380 175 b 499 264 442 175 499 210 l 499 313 l 381 305 b 298 239 328 301 298 276 b 380 175 298 199 332 175 "},"ằ":{"ha":823,"x_min":0,"x_max":0,"o":"m 347 1100 l 182 1282 l 395 1282 l 511 1100 m 689 1065 b 421 838 685 943 592 838 b 153 1065 250 838 157 943 l 313 1065 b 421 964 316 1006 353 964 b 529 1065 489 964 526 1006 l 689 1065 m 277 -11 b 24 218 140 -11 24 83 b 335 452 24 361 135 439 l 499 462 l 499 498 b 409 576 499 549 461 576 b 311 507 352 576 315 545 l 63 507 b 424 768 70 667 205 768 b 770 512 631 768 770 664 l 770 0 l 499 0 l 499 100 l 494 100 b 277 -11 454 27 363 -11 m 380 175 b 499 264 442 175 499 210 l 499 313 l 381 305 b 298 239 328 301 298 276 b 380 175 298 199 332 175 "},"ǡ":{"ha":823,"x_min":0,"x_max":0,"o":"m 660 1141 l 182 1141 l 182 1276 l 660 1276 m 421 829 b 301 946 353 829 301 882 b 421 1063 301 1010 353 1063 b 541 946 489 1063 541 1010 b 421 829 541 882 489 829 m 277 -11 b 24 218 140 -11 24 83 b 335 452 24 361 135 439 l 499 462 l 499 498 b 409 576 499 549 461 576 b 311 507 352 576 315 545 l 63 507 b 424 768 70 667 205 768 b 770 512 631 768 770 664 l 770 0 l 499 0 l 499 100 l 494 100 b 277 -11 454 27 363 -11 m 380 175 b 499 264 442 175 499 210 l 499 313 l 381 305 b 298 239 328 301 298 276 b 380 175 298 199 332 175 "},"ḁ":{"ha":823,"x_min":0,"x_max":0,"o":"m 277 -11 b 24 218 140 -11 24 83 b 335 452 24 361 135 439 l 499 462 l 499 498 b 409 576 499 549 461 576 b 311 507 352 576 315 545 l 63 507 b 424 768 70 667 205 768 b 770 512 631 768 770 664 l 770 0 l 499 0 l 499 100 l 494 100 b 277 -11 454 27 363 -11 m 380 175 b 499 264 442 175 499 210 l 499 313 l 381 305 b 298 239 328 301 298 276 b 380 175 298 199 332 175 m 416 -361 b 250 -201 326 -361 250 -289 b 416 -41 250 -113 326 -41 b 581 -201 505 -41 581 -113 b 416 -361 581 -289 505 -361 m 416 -258 b 475 -201 448 -258 475 -233 b 416 -143 475 -170 448 -143 b 356 -201 384 -143 356 -170 b 416 -258 356 -233 384 -258 "},"â":{"ha":823,"x_min":0,"x_max":0,"o":"m 701 844 l 508 844 l 424 960 l 418 960 l 334 844 l 142 844 l 315 1066 l 528 1066 m 277 -11 b 24 218 140 -11 24 83 b 335 452 24 361 135 439 l 499 462 l 499 498 b 409 576 499 549 461 576 b 311 507 352 576 315 545 l 63 507 b 424 768 70 667 205 768 b 770 512 631 768 770 664 l 770 0 l 499 0 l 499 100 l 494 100 b 277 -11 454 27 363 -11 m 380 175 b 499 264 442 175 499 210 l 499 313 l 381 305 b 298 239 328 301 298 276 b 380 175 298 199 332 175 "},"ậ":{"ha":823,"x_min":0,"x_max":0,"o":"m 701 844 l 508 844 l 424 960 l 418 960 l 334 844 l 142 844 l 315 1066 l 528 1066 m 277 -11 b 24 218 140 -11 24 83 b 335 452 24 361 135 439 l 499 462 l 499 498 b 409 576 499 549 461 576 b 311 507 352 576 315 545 l 63 507 b 424 768 70 667 205 768 b 770 512 631 768 770 664 l 770 0 l 499 0 l 499 100 l 494 100 b 277 -11 454 27 363 -11 m 380 175 b 499 264 442 175 499 210 l 499 313 l 381 305 b 298 239 328 301 298 276 b 380 175 298 199 332 175 m 414 -330 b 282 -201 340 -330 282 -271 b 414 -71 282 -130 340 -71 b 547 -201 488 -71 547 -130 b 414 -330 547 -271 488 -330 "},"ấ":{"ha":823,"x_min":0,"x_max":0,"o":"m 649 1297 l 867 1297 l 706 1106 l 512 1106 m 701 838 l 508 838 l 424 960 l 418 960 l 334 838 l 142 838 l 315 1066 l 528 1066 m 277 -11 b 24 218 140 -11 24 83 b 335 452 24 361 135 439 l 499 462 l 499 498 b 409 576 499 549 461 576 b 311 507 352 576 315 545 l 63 507 b 424 768 70 667 205 768 b 770 512 631 768 770 664 l 770 0 l 499 0 l 499 100 l 494 100 b 277 -11 454 27 363 -11 m 380 175 b 499 264 442 175 499 210 l 499 313 l 381 305 b 298 239 328 301 298 276 b 380 175 298 199 332 175 "},"ẫ":{"ha":823,"x_min":0,"x_max":0,"o":"m 518 1098 b 337 1179 419 1098 384 1179 b 290 1110 306 1179 292 1146 l 154 1110 b 324 1309 154 1237 233 1309 b 505 1228 423 1309 458 1228 b 552 1300 536 1228 550 1258 l 688 1300 b 518 1098 688 1173 609 1098 m 701 838 l 508 838 l 424 949 l 418 949 l 334 838 l 142 838 l 315 1053 l 528 1053 m 277 -11 b 24 218 140 -11 24 83 b 335 452 24 361 135 439 l 499 462 l 499 498 b 409 576 499 549 461 576 b 311 507 352 576 315 545 l 63 507 b 424 768 70 667 205 768 b 770 512 631 768 770 664 l 770 0 l 499 0 l 499 100 l 494 100 b 277 -11 454 27 363 -11 m 380 175 b 499 264 442 175 499 210 l 499 313 l 381 305 b 298 239 328 301 298 276 b 380 175 298 199 332 175 "},"ầ":{"ha":823,"x_min":0,"x_max":0,"o":"m 565 1106 l 404 1297 l 622 1297 l 759 1106 m 701 838 l 508 838 l 424 960 l 418 960 l 334 838 l 142 838 l 315 1066 l 528 1066 m 277 -11 b 24 218 140 -11 24 83 b 335 452 24 361 135 439 l 499 462 l 499 498 b 409 576 499 549 461 576 b 311 507 352 576 315 545 l 63 507 b 424 768 70 667 205 768 b 770 512 631 768 770 664 l 770 0 l 499 0 l 499 100 l 494 100 b 277 -11 454 27 363 -11 m 380 175 b 499 264 442 175 499 210 l 499 313 l 381 305 b 298 239 328 301 298 276 b 380 175 298 199 332 175 "},"ẩ":{"ha":823,"x_min":0,"x_max":0,"o":"m 522 1299 b 610 1313 545 1308 577 1313 b 792 1166 722 1313 792 1257 b 661 991 792 1085 749 1027 l 589 1073 b 649 1147 629 1090 649 1119 b 580 1197 649 1179 623 1197 b 522 1188 558 1197 537 1194 m 701 838 l 508 838 l 424 960 l 418 960 l 334 838 l 142 838 l 315 1066 l 528 1066 m 277 -11 b 24 218 140 -11 24 83 b 335 452 24 361 135 439 l 499 462 l 499 498 b 409 576 499 549 461 576 b 311 507 352 576 315 545 l 63 507 b 424 768 70 667 205 768 b 770 512 631 768 770 664 l 770 0 l 499 0 l 499 100 l 494 100 b 277 -11 454 27 363 -11 m 380 175 b 499 264 442 175 499 210 l 499 313 l 381 305 b 298 239 328 301 298 276 b 380 175 298 199 332 175 "},"ă":{"ha":823,"x_min":0,"x_max":0,"o":"m 313 1066 b 421 964 316 1008 353 964 b 529 1066 489 964 526 1008 l 689 1066 b 421 838 685 944 592 838 b 153 1066 250 838 157 944 m 277 -11 b 24 218 140 -11 24 83 b 335 452 24 361 135 439 l 499 462 l 499 498 b 409 576 499 549 461 576 b 311 507 352 576 315 545 l 63 507 b 424 768 70 667 205 768 b 770 512 631 768 770 664 l 770 0 l 499 0 l 499 100 l 494 100 b 277 -11 454 27 363 -11 m 380 175 b 499 264 442 175 499 210 l 499 313 l 381 305 b 298 239 328 301 298 276 b 380 175 298 199 332 175 "},"ắ":{"ha":823,"x_min":0,"x_max":0,"o":"m 459 1297 l 677 1297 l 516 1106 l 322 1106 m 689 1065 b 421 838 685 943 592 838 b 153 1065 250 838 157 943 l 313 1065 b 421 964 316 1006 353 964 b 529 1065 489 964 526 1006 l 689 1065 m 277 -11 b 24 218 140 -11 24 83 b 335 452 24 361 135 439 l 499 462 l 499 498 b 409 576 499 549 461 576 b 311 507 352 576 315 545 l 63 507 b 424 768 70 667 205 768 b 770 512 631 768 770 664 l 770 0 l 499 0 l 499 100 l 494 100 b 277 -11 454 27 363 -11 m 380 175 b 499 264 442 175 499 210 l 499 313 l 381 305 b 298 239 328 301 298 276 b 380 175 298 199 332 175 "},"ẵ":{"ha":823,"x_min":0,"x_max":0,"o":"m 518 1098 b 337 1179 419 1098 384 1179 b 290 1117 306 1179 292 1146 l 154 1117 b 324 1309 154 1237 233 1309 b 505 1228 423 1309 458 1228 b 552 1300 536 1228 550 1258 l 688 1300 b 518 1098 688 1173 609 1098 m 689 1065 b 421 838 685 943 592 838 b 153 1065 250 838 157 943 l 313 1065 b 421 964 316 1006 353 964 b 529 1065 489 964 526 1006 l 689 1065 m 277 -11 b 24 218 140 -11 24 83 b 335 452 24 361 135 439 l 499 462 l 499 498 b 409 576 499 549 461 576 b 311 507 352 576 315 545 l 63 507 b 424 768 70 667 205 768 b 770 512 631 768 770 664 l 770 0 l 499 0 l 499 100 l 494 100 b 277 -11 454 27 363 -11 m 380 175 b 499 264 442 175 499 210 l 499 313 l 381 305 b 298 239 328 301 298 276 b 380 175 298 199 332 175 "},"ẳ":{"ha":823,"x_min":0,"x_max":0,"o":"m 293 1324 b 374 1338 313 1333 343 1338 b 543 1203 479 1338 543 1287 b 423 1048 543 1128 505 1081 l 357 1123 b 410 1185 398 1145 410 1163 b 347 1233 410 1215 387 1233 b 293 1224 328 1233 309 1230 m 689 1065 b 421 838 685 943 592 838 b 153 1065 250 838 157 943 l 313 1065 b 421 964 316 1006 353 964 b 529 1065 489 964 526 1006 l 689 1065 m 277 -11 b 24 218 140 -11 24 83 b 335 452 24 361 135 439 l 499 462 l 499 498 b 409 576 499 549 461 576 b 311 507 352 576 315 545 l 63 507 b 424 768 70 667 205 768 b 770 512 631 768 770 664 l 770 0 l 499 0 l 499 100 l 494 100 b 277 -11 454 27 363 -11 m 380 175 b 499 264 442 175 499 210 l 499 313 l 381 305 b 298 239 328 301 298 276 b 380 175 298 199 332 175 "},"ặ":{"ha":823,"x_min":0,"x_max":0,"o":"m 313 1066 b 421 964 316 1008 353 964 b 529 1066 489 964 526 1008 l 689 1066 b 421 838 685 944 592 838 b 153 1066 250 838 157 944 m 277 -11 b 24 218 140 -11 24 83 b 335 452 24 361 135 439 l 499 462 l 499 498 b 409 576 499 549 461 576 b 311 507 352 576 315 545 l 63 507 b 424 768 70 667 205 768 b 770 512 631 768 770 664 l 770 0 l 499 0 l 499 100 l 494 100 b 277 -11 454 27 363 -11 m 380 175 b 499 264 442 175 499 210 l 499 313 l 381 305 b 298 239 328 301 298 276 b 380 175 298 199 332 175 m 414 -330 b 282 -201 340 -330 282 -271 b 414 -71 282 -130 340 -71 b 547 -201 488 -71 547 -130 b 414 -330 547 -271 488 -330 "},"ȃ":{"ha":823,"x_min":0,"x_max":0,"o":"m 529 838 b 421 940 526 897 489 940 b 313 838 353 940 316 897 l 153 838 b 421 1066 157 960 250 1066 b 689 838 592 1066 685 960 m 277 -11 b 24 218 140 -11 24 83 b 335 452 24 361 135 439 l 499 462 l 499 498 b 409 576 499 549 461 576 b 311 507 352 576 315 545 l 63 507 b 424 768 70 667 205 768 b 770 512 631 768 770 664 l 770 0 l 499 0 l 499 100 l 494 100 b 277 -11 454 27 363 -11 m 380 175 b 499 264 442 175 499 210 l 499 313 l 381 305 b 298 239 328 301 298 276 b 380 175 298 199 332 175 "},"ǎ":{"ha":823,"x_min":0,"x_max":0,"o":"m 142 1066 l 334 1066 l 418 950 l 424 950 l 508 1066 l 701 1066 l 528 844 l 315 844 m 277 -11 b 24 218 140 -11 24 83 b 335 452 24 361 135 439 l 499 462 l 499 498 b 409 576 499 549 461 576 b 311 507 352 576 315 545 l 63 507 b 424 768 70 667 205 768 b 770 512 631 768 770 664 l 770 0 l 499 0 l 499 100 l 494 100 b 277 -11 454 27 363 -11 m 380 175 b 499 264 442 175 499 210 l 499 313 l 381 305 b 298 239 328 301 298 276 b 380 175 298 199 332 175 "},"ȧ":{"ha":823,"x_min":0,"x_max":0,"o":"m 420 820 b 288 949 346 820 288 879 b 420 1079 288 1020 346 1079 b 552 949 494 1079 552 1020 b 420 820 552 879 494 820 m 277 -11 b 24 218 140 -11 24 83 b 335 452 24 361 135 439 l 499 462 l 499 498 b 409 576 499 549 461 576 b 311 507 352 576 315 545 l 63 507 b 424 768 70 667 205 768 b 770 512 631 768 770 664 l 770 0 l 499 0 l 499 100 l 494 100 b 277 -11 454 27 363 -11 m 380 175 b 499 264 442 175 499 210 l 499 313 l 381 305 b 298 239 328 301 298 276 b 380 175 298 199 332 175 "},"ạ":{"ha":823,"x_min":0,"x_max":0,"o":"m 277 -11 b 24 218 140 -11 24 83 b 335 452 24 361 135 439 l 499 462 l 499 498 b 409 576 499 549 461 576 b 311 507 352 576 315 545 l 63 507 b 424 768 70 667 205 768 b 770 512 631 768 770 664 l 770 0 l 499 0 l 499 100 l 494 100 b 277 -11 454 27 363 -11 m 380 175 b 499 264 442 175 499 210 l 499 313 l 381 305 b 298 239 328 301 298 276 b 380 175 298 199 332 175 m 414 -330 b 282 -201 340 -330 282 -271 b 414 -71 282 -130 340 -71 b 547 -201 488 -71 547 -130 b 414 -330 547 -271 488 -330 "},"ả":{"ha":823,"x_min":0,"x_max":0,"o":"m 294 1141 b 406 1161 319 1152 372 1161 b 593 1000 520 1161 593 1098 b 447 818 593 929 541 863 l 374 903 b 441 985 423 928 441 950 b 363 1042 441 1019 410 1042 b 294 1029 338 1042 313 1037 m 277 -11 b 24 218 140 -11 24 83 b 335 452 24 361 135 439 l 499 462 l 499 498 b 409 576 499 549 461 576 b 311 507 352 576 315 545 l 63 507 b 424 768 70 667 205 768 b 770 512 631 768 770 664 l 770 0 l 499 0 l 499 100 l 494 100 b 277 -11 454 27 363 -11 m 380 175 b 499 264 442 175 499 210 l 499 313 l 381 305 b 298 239 328 301 298 276 b 380 175 298 199 332 175 "},"ȁ":{"ha":823,"x_min":0,"x_max":0,"o":"m 478 844 l 382 1066 l 585 1066 l 636 844 m 204 844 l 57 1066 l 280 1066 l 376 844 m 277 -11 b 24 218 140 -11 24 83 b 335 452 24 361 135 439 l 499 462 l 499 498 b 409 576 499 549 461 576 b 311 507 352 576 315 545 l 63 507 b 424 768 70 667 205 768 b 770 512 631 768 770 664 l 770 0 l 499 0 l 499 100 l 494 100 b 277 -11 454 27 363 -11 m 380 175 b 499 264 442 175 499 210 l 499 313 l 381 305 b 298 239 328 301 298 276 b 380 175 298 199 332 175 "},"ā":{"ha":823,"x_min":0,"x_max":0,"o":"m 660 888 l 182 888 l 182 1022 l 660 1022 m 277 -11 b 24 218 140 -11 24 83 b 335 452 24 361 135 439 l 499 462 l 499 498 b 409 576 499 549 461 576 b 311 507 352 576 315 545 l 63 507 b 424 768 70 667 205 768 b 770 512 631 768 770 664 l 770 0 l 499 0 l 499 100 l 494 100 b 277 -11 454 27 363 -11 m 380 175 b 499 264 442 175 499 210 l 499 313 l 381 305 b 298 239 328 301 298 276 b 380 175 298 199 332 175 "},"ą":{"ha":823,"x_min":0,"x_max":0,"o":"m 277 -11 b 24 218 140 -11 24 83 b 335 452 24 361 135 439 l 499 462 l 499 498 b 409 576 499 549 461 576 b 311 507 352 576 315 545 l 63 507 b 424 768 70 667 205 768 b 770 512 631 768 770 664 l 770 0 b 593 -119 649 0 593 -62 b 679 -193 593 -149 609 -193 b 726 -188 692 -193 708 -192 l 726 -319 b 614 -335 688 -330 650 -335 b 404 -169 472 -335 404 -256 b 499 2 404 -112 433 -47 l 499 100 l 494 100 b 277 -11 454 27 363 -11 m 380 175 b 499 264 442 175 499 210 l 499 313 l 381 305 b 298 239 328 301 298 276 b 380 175 298 199 332 175 "},"b":{"ha":888,"x_min":0,"x_max":0,"o":"m 565 -11 b 339 130 455 -11 374 42 l 334 130 l 334 0 l 56 0 l 56 979 l 334 979 l 334 614 l 339 614 b 562 760 374 705 454 760 b 855 374 751 760 855 622 b 565 -11 855 127 751 -11 m 452 545 b 332 374 379 545 333 478 b 452 203 333 268 378 203 b 570 374 524 203 570 270 b 452 545 570 478 524 545 "},"ḇ":{"ha":888,"x_min":0,"x_max":0,"o":"m 565 -11 b 339 130 455 -11 374 42 l 334 130 l 334 0 l 56 0 l 56 979 l 334 979 l 334 614 l 339 614 b 562 760 374 705 454 760 b 855 374 751 760 855 622 b 565 -11 855 127 751 -11 m 452 545 b 332 374 379 545 333 478 b 452 203 333 268 378 203 b 570 374 524 203 570 270 b 452 545 570 478 524 545 m 682 -268 l 205 -268 l 205 -134 l 682 -134 "},"ḅ":{"ha":888,"x_min":0,"x_max":0,"o":"m 565 -11 b 339 130 455 -11 374 42 l 334 130 l 334 0 l 56 0 l 56 979 l 334 979 l 334 614 l 339 614 b 562 760 374 705 454 760 b 855 374 751 760 855 622 b 565 -11 855 127 751 -11 m 452 545 b 332 374 379 545 333 478 b 452 203 333 268 378 203 b 570 374 524 203 570 270 b 452 545 570 478 524 545 m 442 -330 b 310 -201 368 -330 310 -271 b 442 -71 310 -130 368 -71 b 574 -201 516 -71 574 -130 b 442 -330 574 -271 516 -330 "},"ḃ":{"ha":888,"x_min":0,"x_max":0,"o":"m 193 1034 b 61 1163 119 1034 61 1093 b 193 1293 61 1234 119 1293 b 326 1163 267 1293 326 1234 b 193 1034 326 1093 267 1034 m 565 -11 b 339 130 455 -11 374 42 l 334 130 l 334 0 l 56 0 l 56 979 l 334 979 l 334 614 l 339 614 b 562 760 374 705 454 760 b 855 374 751 760 855 622 b 565 -11 855 127 751 -11 m 452 545 b 332 374 379 545 333 478 b 452 203 333 268 378 203 b 570 374 524 203 570 270 b 452 545 570 478 524 545 "},"c":{"ha":817,"x_min":0,"x_max":0,"o":"m 534 439 b 427 561 529 515 487 561 b 315 375 354 561 315 496 b 427 188 315 253 353 188 b 534 305 490 188 530 231 l 787 305 b 424 -19 785 102 646 -19 b 33 375 181 -19 33 128 b 422 768 33 619 182 768 b 787 439 640 768 784 642 "},"ć":{"ha":817,"x_min":0,"x_max":0,"o":"m 315 844 l 411 1066 l 640 1066 l 492 844 m 534 439 b 427 561 529 515 487 561 b 315 375 354 561 315 496 b 427 188 315 253 353 188 b 534 305 490 188 530 231 l 787 305 b 424 -19 785 102 646 -19 b 33 375 181 -19 33 128 b 422 768 33 619 182 768 b 787 439 640 768 784 642 "},"č":{"ha":817,"x_min":0,"x_max":0,"o":"m 125 1066 l 318 1066 l 402 950 l 408 950 l 492 1066 l 684 1066 l 511 844 l 298 844 m 534 439 b 427 561 529 515 487 561 b 315 375 354 561 315 496 b 427 188 315 253 353 188 b 534 305 490 188 530 231 l 787 305 b 424 -19 785 102 646 -19 b 33 375 181 -19 33 128 b 422 768 33 619 182 768 b 787 439 640 768 784 642 "},"ĉ":{"ha":817,"x_min":0,"x_max":0,"o":"m 684 844 l 492 844 l 408 960 l 402 960 l 318 844 l 125 844 l 298 1066 l 511 1066 m 534 439 b 427 561 529 515 487 561 b 315 375 354 561 315 496 b 427 188 315 253 353 188 b 534 305 490 188 530 231 l 787 305 b 424 -19 785 102 646 -19 b 33 375 181 -19 33 128 b 422 768 33 619 182 768 b 787 439 640 768 784 642 "},"ċ":{"ha":817,"x_min":0,"x_max":0,"o":"m 404 820 b 271 949 330 820 271 879 b 404 1079 271 1020 330 1079 b 536 949 477 1079 536 1020 b 404 820 536 879 477 820 m 534 439 b 427 561 529 515 487 561 b 315 375 354 561 315 496 b 427 188 315 253 353 188 b 534 305 490 188 530 231 l 787 305 b 424 -19 785 102 646 -19 b 33 375 181 -19 33 128 b 422 768 33 619 182 768 b 787 439 640 768 784 642 "},"ç":{"ha":817,"x_min":0,"x_max":0,"o":"m 318 -66 l 347 -14 b 33 375 151 15 33 155 b 422 768 33 619 182 768 b 787 439 640 768 784 642 l 534 439 b 427 561 529 515 487 561 b 315 375 354 561 315 496 b 427 188 315 253 353 188 b 534 305 490 188 530 231 l 787 305 b 474 -17 785 118 667 1 l 452 -60 b 562 -174 517 -60 562 -105 b 383 -307 562 -262 502 -307 b 293 -296 346 -307 311 -303 l 293 -201 b 360 -209 310 -206 336 -209 b 424 -184 405 -209 424 -201 b 356 -153 424 -160 407 -153 l 318 -153 "},"ḉ":{"ha":817,"x_min":0,"x_max":0,"o":"m 315 844 l 411 1066 l 640 1066 l 492 844 m 318 -66 l 347 -14 b 33 375 151 15 33 155 b 422 768 33 619 182 768 b 787 439 640 768 784 642 l 534 439 b 427 561 529 515 487 561 b 315 375 354 561 315 496 b 427 188 315 253 353 188 b 534 305 490 188 530 231 l 787 305 b 474 -17 785 118 667 1 l 452 -60 b 562 -174 517 -60 562 -105 b 383 -307 562 -262 502 -307 b 293 -296 346 -307 311 -303 l 293 -201 b 360 -209 310 -206 336 -209 b 424 -184 405 -209 424 -201 b 356 -153 424 -160 407 -153 l 318 -153 "},"d":{"ha":885,"x_min":0,"x_max":0,"o":"m 325 -11 b 33 376 140 -11 33 132 b 330 760 33 617 143 760 b 549 614 439 760 520 698 l 555 614 l 555 979 l 833 979 l 833 0 l 555 0 l 555 130 l 549 130 b 325 -11 524 51 437 -11 m 437 545 b 318 374 362 545 318 480 b 437 203 318 267 361 203 b 556 374 512 203 556 266 b 437 545 556 481 511 545 "},"ḋ":{"ha":885,"x_min":0,"x_max":0,"o":"m 692 1034 b 560 1163 618 1034 560 1093 b 692 1293 560 1234 618 1293 b 825 1163 766 1293 825 1234 b 692 1034 825 1093 766 1034 m 325 -11 b 33 376 140 -11 33 132 b 330 760 33 617 143 760 b 549 614 439 760 520 698 l 555 614 l 555 979 l 833 979 l 833 0 l 555 0 l 555 130 l 549 130 b 325 -11 524 51 437 -11 m 437 545 b 318 374 362 545 318 480 b 437 203 318 267 361 203 b 556 374 512 203 556 266 b 437 545 556 481 511 545 "},"ḓ":{"ha":885,"x_min":0,"x_max":0,"o":"m 325 -11 b 33 376 140 -11 33 132 b 330 760 33 617 143 760 b 549 614 439 760 520 698 l 555 614 l 555 979 l 833 979 l 833 0 l 555 0 l 555 130 l 549 130 b 325 -11 524 51 437 -11 m 437 545 b 318 374 362 545 318 480 b 437 203 318 267 361 203 b 556 374 512 203 556 266 b 437 545 556 481 511 545 m 723 -315 l 530 -315 l 446 -199 l 441 -199 l 357 -315 l 164 -315 l 337 -94 l 550 -94 "},"ḑ":{"ha":885,"x_min":0,"x_max":0,"o":"m 325 -11 b 33 376 140 -11 33 132 b 330 760 33 617 143 760 b 549 614 439 760 520 698 l 555 614 l 555 979 l 833 979 l 833 0 l 555 0 l 555 130 l 549 130 b 325 -11 524 51 437 -11 m 437 545 b 318 374 362 545 318 480 b 437 203 318 267 361 203 b 556 374 512 203 556 266 b 437 545 556 481 511 545 m 245 -314 l 321 -94 l 566 -94 l 434 -314 "},"ḏ":{"ha":885,"x_min":0,"x_max":0,"o":"m 325 -11 b 33 376 140 -11 33 132 b 330 760 33 617 143 760 b 549 614 439 760 520 698 l 555 614 l 555 979 l 833 979 l 833 0 l 555 0 l 555 130 l 549 130 b 325 -11 524 51 437 -11 m 437 545 b 318 374 362 545 318 480 b 437 203 318 267 361 203 b 556 374 512 203 556 266 b 437 545 556 481 511 545 m 682 -268 l 205 -268 l 205 -134 l 682 -134 "},"ď":{"ha":1085,"x_min":0,"x_max":0,"o":"m 1139 1066 l 1091 721 l 935 721 l 935 1066 m 325 -11 b 33 376 140 -11 33 132 b 330 760 33 617 143 760 b 549 614 439 760 520 698 l 555 614 l 555 979 l 833 979 l 833 0 l 555 0 l 555 130 l 549 130 b 325 -11 524 51 437 -11 m 437 545 b 318 374 362 545 318 480 b 437 203 318 267 361 203 b 556 374 512 203 556 266 b 437 545 556 481 511 545 "},"ḍ":{"ha":885,"x_min":0,"x_max":0,"o":"m 325 -11 b 33 376 140 -11 33 132 b 330 760 33 617 143 760 b 549 614 439 760 520 698 l 555 614 l 555 979 l 833 979 l 833 0 l 555 0 l 555 130 l 549 130 b 325 -11 524 51 437 -11 m 437 545 b 318 374 362 545 318 480 b 437 203 318 267 361 203 b 556 374 512 203 556 266 b 437 545 556 481 511 545 m 442 -330 b 310 -201 368 -330 310 -271 b 442 -71 310 -130 368 -71 b 574 -201 516 -71 574 -130 b 442 -330 574 -271 516 -330 "},"đ":{"ha":885,"x_min":0,"x_max":0,"o":"m 325 -11 b 33 376 140 -11 33 132 b 330 760 33 617 143 760 b 549 614 439 760 520 698 l 555 614 l 555 791 l 439 791 l 439 910 l 555 910 l 555 979 l 833 979 l 833 910 l 911 910 l 911 791 l 833 791 l 833 0 l 555 0 l 555 130 l 549 130 b 325 -11 524 51 437 -11 m 437 545 b 318 374 362 545 318 480 b 437 203 318 267 361 203 b 556 374 512 203 556 266 b 437 545 556 481 511 545 "},"e":{"ha":830,"x_min":0,"x_max":0,"o":"m 794 243 b 425 -19 771 81 630 -19 b 33 370 179 -19 33 127 b 416 768 33 615 180 768 b 798 391 648 768 798 620 l 798 315 l 301 315 l 301 298 b 429 172 301 224 354 172 b 547 243 485 172 530 198 m 422 576 b 305 466 359 576 311 530 l 538 466 b 422 576 534 533 487 576 "},"è":{"ha":830,"x_min":0,"x_max":0,"o":"m 180 1066 l 409 1066 l 505 844 l 328 844 m 794 243 b 425 -19 771 81 630 -19 b 33 370 179 -19 33 127 b 416 768 33 615 180 768 b 798 391 648 768 798 620 l 798 315 l 301 315 l 301 298 b 429 172 301 224 354 172 b 547 243 485 172 530 198 m 422 576 b 305 466 359 576 311 530 l 538 466 b 422 576 534 533 487 576 "},"ȅ":{"ha":830,"x_min":0,"x_max":0,"o":"m 472 844 l 376 1066 l 579 1066 l 630 844 m 198 844 l 51 1066 l 274 1066 l 370 844 m 794 243 b 425 -19 771 81 630 -19 b 33 370 179 -19 33 127 b 416 768 33 615 180 768 b 798 391 648 768 798 620 l 798 315 l 301 315 l 301 298 b 429 172 301 224 354 172 b 547 243 485 172 530 198 m 422 576 b 305 466 359 576 311 530 l 538 466 b 422 576 534 533 487 576 "},"é":{"ha":830,"x_min":0,"x_max":0,"o":"m 325 844 l 421 1066 l 650 1066 l 503 844 m 794 243 b 425 -19 771 81 630 -19 b 33 370 179 -19 33 127 b 416 768 33 615 180 768 b 798 391 648 768 798 620 l 798 315 l 301 315 l 301 298 b 429 172 301 224 354 172 b 547 243 485 172 530 198 m 422 576 b 305 466 359 576 311 530 l 538 466 b 422 576 534 533 487 576 "},"ê":{"ha":830,"x_min":0,"x_max":0,"o":"m 694 844 l 502 844 l 418 960 l 412 960 l 328 844 l 136 844 l 309 1066 l 522 1066 m 794 243 b 425 -19 771 81 630 -19 b 33 370 179 -19 33 127 b 416 768 33 615 180 768 b 798 391 648 768 798 620 l 798 315 l 301 315 l 301 298 b 429 172 301 224 354 172 b 547 243 485 172 530 198 m 422 576 b 305 466 359 576 311 530 l 538 466 b 422 576 534 533 487 576 "},"ể":{"ha":830,"x_min":0,"x_max":0,"o":"m 515 1299 b 604 1313 538 1308 571 1313 b 786 1166 716 1313 786 1257 b 654 991 786 1085 743 1027 l 583 1073 b 643 1147 623 1090 643 1119 b 574 1197 643 1179 617 1197 b 515 1188 552 1197 531 1194 m 694 838 l 502 838 l 418 960 l 412 960 l 328 838 l 136 838 l 309 1066 l 522 1066 m 794 243 b 425 -19 771 81 630 -19 b 33 370 179 -19 33 127 b 416 768 33 615 180 768 b 798 391 648 768 798 620 l 798 315 l 301 315 l 301 298 b 429 172 301 224 354 172 b 547 243 485 172 530 198 m 422 576 b 305 466 359 576 311 530 l 538 466 b 422 576 534 533 487 576 "},"ề":{"ha":830,"x_min":0,"x_max":0,"o":"m 559 1106 l 397 1297 l 616 1297 l 753 1106 m 694 838 l 502 838 l 418 960 l 412 960 l 328 838 l 136 838 l 309 1066 l 522 1066 m 794 243 b 425 -19 771 81 630 -19 b 33 370 179 -19 33 127 b 416 768 33 615 180 768 b 798 391 648 768 798 620 l 798 315 l 301 315 l 301 298 b 429 172 301 224 354 172 b 547 243 485 172 530 198 m 422 576 b 305 466 359 576 311 530 l 538 466 b 422 576 534 533 487 576 "},"ễ":{"ha":830,"x_min":0,"x_max":0,"o":"m 512 1098 b 331 1179 413 1098 378 1179 b 284 1110 300 1179 286 1146 l 148 1110 b 318 1309 148 1237 227 1309 b 499 1228 417 1309 452 1228 b 546 1300 530 1228 544 1258 l 682 1300 b 512 1098 682 1173 603 1098 m 694 838 l 502 838 l 418 949 l 412 949 l 328 838 l 136 838 l 309 1053 l 522 1053 m 794 243 b 425 -19 771 81 630 -19 b 33 370 179 -19 33 127 b 416 768 33 615 180 768 b 798 391 648 768 798 620 l 798 315 l 301 315 l 301 298 b 429 172 301 224 354 172 b 547 243 485 172 530 198 m 422 576 b 305 466 359 576 311 530 l 538 466 b 422 576 534 533 487 576 "},"ệ":{"ha":830,"x_min":0,"x_max":0,"o":"m 694 844 l 502 844 l 418 960 l 412 960 l 328 844 l 136 844 l 309 1066 l 522 1066 m 794 243 b 425 -19 771 81 630 -19 b 33 370 179 -19 33 127 b 416 768 33 615 180 768 b 798 391 648 768 798 620 l 798 315 l 301 315 l 301 298 b 429 172 301 224 354 172 b 547 243 485 172 530 198 m 422 576 b 305 466 359 576 311 530 l 538 466 b 422 576 534 533 487 576 m 414 -330 b 281 -201 340 -330 281 -271 b 414 -71 281 -130 340 -71 b 546 -201 488 -71 546 -130 b 414 -330 546 -271 488 -330 "},"ế":{"ha":830,"x_min":0,"x_max":0,"o":"m 643 1297 l 861 1297 l 700 1106 l 506 1106 m 694 838 l 502 838 l 418 960 l 412 960 l 328 838 l 136 838 l 309 1066 l 522 1066 m 794 243 b 425 -19 771 81 630 -19 b 33 370 179 -19 33 127 b 416 768 33 615 180 768 b 798 391 648 768 798 620 l 798 315 l 301 315 l 301 298 b 429 172 301 224 354 172 b 547 243 485 172 530 198 m 422 576 b 305 466 359 576 311 530 l 538 466 b 422 576 534 533 487 576 "},"ë":{"ha":830,"x_min":0,"x_max":0,"o":"m 257 830 b 136 949 189 830 136 884 b 257 1069 136 1015 189 1069 b 380 949 326 1069 380 1015 b 257 830 380 884 326 830 m 572 830 b 450 949 504 830 450 884 b 572 1069 450 1015 504 1069 b 694 949 641 1069 694 1015 b 572 830 694 884 641 830 m 794 243 b 425 -19 771 81 630 -19 b 33 370 179 -19 33 127 b 416 768 33 615 180 768 b 798 391 648 768 798 620 l 798 315 l 301 315 l 301 298 b 429 172 301 224 354 172 b 547 243 485 172 530 198 m 422 576 b 305 466 359 576 311 530 l 538 466 b 422 576 534 533 487 576 "},"ẹ":{"ha":830,"x_min":0,"x_max":0,"o":"m 794 243 b 425 -19 771 81 630 -19 b 33 370 179 -19 33 127 b 416 768 33 615 180 768 b 798 391 648 768 798 620 l 798 315 l 301 315 l 301 298 b 429 172 301 224 354 172 b 547 243 485 172 530 198 m 422 576 b 305 466 359 576 311 530 l 538 466 b 422 576 534 533 487 576 m 414 -330 b 281 -201 340 -330 281 -271 b 414 -71 281 -130 340 -71 b 546 -201 488 -71 546 -130 b 414 -330 546 -271 488 -330 "},"ȇ":{"ha":830,"x_min":0,"x_max":0,"o":"m 523 838 b 415 940 520 897 483 940 b 307 838 347 940 310 897 l 147 838 b 415 1066 151 960 244 1066 b 683 838 586 1066 679 960 m 794 243 b 425 -19 771 81 630 -19 b 33 370 179 -19 33 127 b 416 768 33 615 180 768 b 798 391 648 768 798 620 l 798 315 l 301 315 l 301 298 b 429 172 301 224 354 172 b 547 243 485 172 530 198 m 422 576 b 305 466 359 576 311 530 l 538 466 b 422 576 534 533 487 576 "},"ẻ":{"ha":830,"x_min":0,"x_max":0,"o":"m 288 1141 b 399 1161 313 1152 366 1161 b 587 1000 514 1161 587 1098 b 441 818 587 929 534 863 l 368 903 b 435 985 417 928 435 950 b 357 1042 435 1019 404 1042 b 288 1029 332 1042 307 1037 m 794 243 b 425 -19 771 81 630 -19 b 33 370 179 -19 33 127 b 416 768 33 615 180 768 b 798 391 648 768 798 620 l 798 315 l 301 315 l 301 298 b 429 172 301 224 354 172 b 547 243 485 172 530 198 m 422 576 b 305 466 359 576 311 530 l 538 466 b 422 576 534 533 487 576 "},"ě":{"ha":830,"x_min":0,"x_max":0,"o":"m 136 1066 l 328 1066 l 412 950 l 418 950 l 502 1066 l 694 1066 l 522 844 l 309 844 m 794 243 b 425 -19 771 81 630 -19 b 33 370 179 -19 33 127 b 416 768 33 615 180 768 b 798 391 648 768 798 620 l 798 315 l 301 315 l 301 298 b 429 172 301 224 354 172 b 547 243 485 172 530 198 m 422 576 b 305 466 359 576 311 530 l 538 466 b 422 576 534 533 487 576 "},"ē":{"ha":830,"x_min":0,"x_max":0,"o":"m 654 888 l 176 888 l 176 1022 l 654 1022 m 794 243 b 425 -19 771 81 630 -19 b 33 370 179 -19 33 127 b 416 768 33 615 180 768 b 798 391 648 768 798 620 l 798 315 l 301 315 l 301 298 b 429 172 301 224 354 172 b 547 243 485 172 530 198 m 422 576 b 305 466 359 576 311 530 l 538 466 b 422 576 534 533 487 576 "},"ḕ":{"ha":830,"x_min":0,"x_max":0,"o":"m 330 1102 l 172 1297 l 391 1297 l 507 1102 m 654 874 l 176 874 l 176 1008 l 654 1008 m 794 243 b 425 -19 771 81 630 -19 b 33 370 179 -19 33 127 b 416 768 33 615 180 768 b 798 391 648 768 798 620 l 798 315 l 301 315 l 301 298 b 429 172 301 224 354 172 b 547 243 485 172 530 198 m 422 576 b 305 466 359 576 311 530 l 538 466 b 422 576 534 533 487 576 "},"ḗ":{"ha":830,"x_min":0,"x_max":0,"o":"m 456 1297 l 674 1297 l 513 1106 l 319 1106 m 654 874 l 176 874 l 176 1008 l 654 1008 m 794 243 b 425 -19 771 81 630 -19 b 33 370 179 -19 33 127 b 416 768 33 615 180 768 b 798 391 648 768 798 620 l 798 315 l 301 315 l 301 298 b 429 172 301 224 354 172 b 547 243 485 172 530 198 m 422 576 b 305 466 359 576 311 530 l 538 466 b 422 576 534 533 487 576 "},"ẽ":{"ha":830,"x_min":0,"x_max":0,"o":"m 515 838 b 332 918 412 838 382 918 b 280 844 300 918 280 893 l 146 844 b 313 1056 146 987 221 1056 b 498 975 416 1056 451 975 b 550 1050 536 975 550 1004 l 684 1050 b 515 838 682 912 608 838 m 794 243 b 425 -19 771 81 630 -19 b 33 370 179 -19 33 127 b 416 768 33 615 180 768 b 798 391 648 768 798 620 l 798 315 l 301 315 l 301 298 b 429 172 301 224 354 172 b 547 243 485 172 530 198 m 422 576 b 305 466 359 576 311 530 l 538 466 b 422 576 534 533 487 576 "},"ḙ":{"ha":830,"x_min":0,"x_max":0,"o":"m 794 243 b 425 -19 771 81 630 -19 b 33 370 179 -19 33 127 b 416 768 33 615 180 768 b 798 391 648 768 798 620 l 798 315 l 301 315 l 301 298 b 429 172 301 224 354 172 b 547 243 485 172 530 198 m 422 576 b 305 466 359 576 311 530 l 538 466 b 422 576 534 533 487 576 m 694 -315 l 502 -315 l 418 -199 l 412 -199 l 328 -315 l 136 -315 l 309 -94 l 522 -94 "},"ĕ":{"ha":830,"x_min":0,"x_max":0,"o":"m 307 1066 b 415 964 310 1008 347 964 b 523 1066 483 964 520 1008 l 683 1066 b 415 838 679 944 586 838 b 147 1066 244 838 151 944 m 794 243 b 425 -19 771 81 630 -19 b 33 370 179 -19 33 127 b 416 768 33 615 180 768 b 798 391 648 768 798 620 l 798 315 l 301 315 l 301 298 b 429 172 301 224 354 172 b 547 243 485 172 530 198 m 422 576 b 305 466 359 576 311 530 l 538 466 b 422 576 534 533 487 576 "},"ḛ":{"ha":830,"x_min":0,"x_max":0,"o":"m 794 243 b 425 -19 771 81 630 -19 b 33 370 179 -19 33 127 b 416 768 33 615 180 768 b 798 391 648 768 798 620 l 798 315 l 301 315 l 301 298 b 429 172 301 224 354 172 b 547 243 485 172 530 198 m 422 576 b 305 466 359 576 311 530 l 538 466 b 422 576 534 533 487 576 m 515 -310 b 332 -229 412 -310 382 -229 b 280 -303 300 -229 280 -254 l 146 -303 b 313 -92 146 -160 221 -92 b 498 -172 416 -92 451 -172 b 550 -97 536 -172 550 -144 l 684 -97 b 515 -310 682 -235 608 -310 "},"ė":{"ha":830,"x_min":0,"x_max":0,"o":"m 414 820 b 281 949 340 820 281 879 b 414 1079 281 1020 340 1079 b 546 949 488 1079 546 1020 b 414 820 546 879 488 820 m 794 243 b 425 -19 771 81 630 -19 b 33 370 179 -19 33 127 b 416 768 33 615 180 768 b 798 391 648 768 798 620 l 798 315 l 301 315 l 301 298 b 429 172 301 224 354 172 b 547 243 485 172 530 198 m 422 576 b 305 466 359 576 311 530 l 538 466 b 422 576 534 533 487 576 "},"ȩ":{"ha":830,"x_min":0,"x_max":0,"o":"m 329 -66 l 357 -15 b 33 370 153 9 33 150 b 416 768 33 615 180 768 b 798 391 648 768 798 620 l 798 315 l 301 315 l 301 298 b 429 172 301 224 354 172 b 547 243 485 172 530 198 l 794 243 b 486 -16 773 98 658 2 l 463 -60 b 572 -174 528 -60 572 -105 b 394 -307 572 -262 513 -307 b 304 -296 357 -307 321 -303 l 304 -201 b 371 -209 321 -206 347 -209 b 435 -184 416 -209 435 -201 b 367 -153 435 -160 418 -153 l 329 -153 m 422 576 b 305 466 359 576 311 530 l 538 466 b 422 576 534 533 487 576 "},"ḝ":{"ha":830,"x_min":0,"x_max":0,"o":"m 307 1066 b 415 964 310 1008 347 964 b 523 1066 483 964 520 1008 l 683 1066 b 415 838 679 944 586 838 b 147 1066 244 838 151 944 m 329 -66 l 357 -15 b 33 370 153 9 33 150 b 416 768 33 615 180 768 b 798 391 648 768 798 620 l 798 315 l 301 315 l 301 298 b 429 172 301 224 354 172 b 547 243 485 172 530 198 l 794 243 b 486 -16 773 98 658 2 l 463 -60 b 572 -174 528 -60 572 -105 b 394 -307 572 -262 513 -307 b 304 -296 357 -307 321 -303 l 304 -201 b 371 -209 321 -206 347 -209 b 435 -184 416 -209 435 -201 b 367 -153 435 -160 418 -153 l 329 -153 m 422 576 b 305 466 359 576 311 530 l 538 466 b 422 576 534 533 487 576 "},"ę":{"ha":830,"x_min":0,"x_max":0,"o":"m 794 243 b 671 47 782 159 739 92 b 550 -115 595 -12 550 -59 b 635 -188 550 -161 590 -188 b 683 -182 649 -188 665 -186 l 683 -313 b 571 -330 644 -324 606 -330 b 360 -176 429 -330 360 -263 b 442 -19 360 -119 390 -63 b 425 -19 437 -19 431 -19 b 33 370 179 -19 33 127 b 416 768 33 615 180 768 b 798 391 648 768 798 620 l 798 315 l 301 315 l 301 298 b 429 172 301 224 354 172 b 547 243 485 172 530 198 m 422 576 b 305 466 359 576 311 530 l 538 466 b 422 576 534 533 487 576 "},"f":{"ha":566,"x_min":0,"x_max":0,"o":"m 119 547 l 20 547 l 20 742 l 119 742 l 119 773 b 405 990 119 922 192 990 b 535 979 452 990 506 985 l 535 812 b 482 817 522 815 501 817 b 389 760 416 817 389 793 l 389 742 l 533 742 l 533 547 l 397 547 l 397 0 l 119 0 "},"ḟ":{"ha":566,"x_min":0,"x_max":0,"o":"m 358 1034 b 226 1163 284 1034 226 1093 b 358 1293 226 1234 284 1293 b 490 1163 432 1293 490 1234 b 358 1034 490 1093 432 1034 m 119 547 l 20 547 l 20 742 l 119 742 l 119 773 b 405 990 119 922 192 990 b 535 979 452 990 506 985 l 535 812 b 482 817 522 815 501 817 b 389 760 416 817 389 793 l 389 742 l 533 742 l 533 547 l 397 547 l 397 0 l 119 0 "},"g":{"ha":885,"x_min":0,"x_max":0,"o":"m 426 -282 b 50 -45 199 -282 62 -184 l 317 -45 b 432 -106 326 -81 370 -106 b 555 -1 515 -106 555 -64 l 555 143 l 549 143 b 326 9 525 64 437 9 b 33 376 151 9 33 142 b 330 760 33 617 143 760 b 549 614 439 760 520 698 l 555 614 l 555 749 l 833 749 l 833 6 b 426 -282 833 -172 667 -282 m 437 210 b 556 374 512 210 556 266 b 437 545 556 480 511 545 b 318 374 362 545 318 480 b 437 210 318 267 361 210 "},"ǵ":{"ha":885,"x_min":0,"x_max":0,"o":"m 353 844 l 449 1066 l 677 1066 l 530 844 m 426 -282 b 50 -45 199 -282 62 -184 l 317 -45 b 432 -106 326 -81 370 -106 b 555 -1 515 -106 555 -64 l 555 143 l 549 143 b 326 9 525 64 437 9 b 33 376 151 9 33 142 b 330 760 33 617 143 760 b 549 614 439 760 520 698 l 555 614 l 555 749 l 833 749 l 833 6 b 426 -282 833 -172 667 -282 m 437 210 b 556 374 512 210 556 266 b 437 545 556 480 511 545 b 318 374 362 545 318 480 b 437 210 318 267 361 210 "},"ǧ":{"ha":885,"x_min":0,"x_max":0,"o":"m 163 1066 l 356 1066 l 440 950 l 446 950 l 530 1066 l 722 1066 l 549 844 l 336 844 m 426 -282 b 50 -45 199 -282 62 -184 l 317 -45 b 432 -106 326 -81 370 -106 b 555 -1 515 -106 555 -64 l 555 143 l 549 143 b 326 9 525 64 437 9 b 33 376 151 9 33 142 b 330 760 33 617 143 760 b 549 614 439 760 520 698 l 555 614 l 555 749 l 833 749 l 833 6 b 426 -282 833 -172 667 -282 m 437 210 b 556 374 512 210 556 266 b 437 545 556 480 511 545 b 318 374 362 545 318 480 b 437 210 318 267 361 210 "},"ĝ":{"ha":885,"x_min":0,"x_max":0,"o":"m 722 844 l 530 844 l 446 960 l 440 960 l 356 844 l 163 844 l 336 1066 l 549 1066 m 426 -282 b 50 -45 199 -282 62 -184 l 317 -45 b 432 -106 326 -81 370 -106 b 555 -1 515 -106 555 -64 l 555 143 l 549 143 b 326 9 525 64 437 9 b 33 376 151 9 33 142 b 330 760 33 617 143 760 b 549 614 439 760 520 698 l 555 614 l 555 749 l 833 749 l 833 6 b 426 -282 833 -172 667 -282 m 437 210 b 556 374 512 210 556 266 b 437 545 556 480 511 545 b 318 374 362 545 318 480 b 437 210 318 267 361 210 "},"ğ":{"ha":885,"x_min":0,"x_max":0,"o":"m 335 1066 b 443 964 338 1008 375 964 b 551 1066 511 964 548 1008 l 711 1066 b 443 838 707 944 614 838 b 175 1066 272 838 179 944 m 426 -282 b 50 -45 199 -282 62 -184 l 317 -45 b 432 -106 326 -81 370 -106 b 555 -1 515 -106 555 -64 l 555 143 l 549 143 b 326 9 525 64 437 9 b 33 376 151 9 33 142 b 330 760 33 617 143 760 b 549 614 439 760 520 698 l 555 614 l 555 749 l 833 749 l 833 6 b 426 -282 833 -172 667 -282 m 437 210 b 556 374 512 210 556 266 b 437 545 556 480 511 545 b 318 374 362 545 318 480 b 437 210 318 267 361 210 "},"ḡ":{"ha":885,"x_min":0,"x_max":0,"o":"m 682 888 l 204 888 l 204 1022 l 682 1022 m 426 -282 b 50 -45 199 -282 62 -184 l 317 -45 b 432 -106 326 -81 370 -106 b 555 -1 515 -106 555 -64 l 555 143 l 549 143 b 326 9 525 64 437 9 b 33 376 151 9 33 142 b 330 760 33 617 143 760 b 549 614 439 760 520 698 l 555 614 l 555 749 l 833 749 l 833 6 b 426 -282 833 -172 667 -282 m 437 210 b 556 374 512 210 556 266 b 437 545 556 480 511 545 b 318 374 362 545 318 480 b 437 210 318 267 361 210 "},"ġ":{"ha":885,"x_min":0,"x_max":0,"o":"m 441 820 b 309 949 368 820 309 879 b 441 1079 309 1020 368 1079 b 574 949 515 1079 574 1020 b 441 820 574 879 515 820 m 426 -282 b 50 -45 199 -282 62 -184 l 317 -45 b 432 -106 326 -81 370 -106 b 555 -1 515 -106 555 -64 l 555 143 l 549 143 b 326 9 525 64 437 9 b 33 376 151 9 33 142 b 330 760 33 617 143 760 b 549 614 439 760 520 698 l 555 614 l 555 749 l 833 749 l 833 6 b 426 -282 833 -172 667 -282 m 437 210 b 556 374 512 210 556 266 b 437 545 556 480 511 545 b 318 374 362 545 318 480 b 437 210 318 267 361 210 "},"ģ":{"ha":885,"x_min":0,"x_max":0,"o":"m 642 1065 l 566 844 l 320 844 l 452 1065 m 426 -282 b 50 -45 199 -282 62 -184 l 317 -45 b 432 -106 326 -81 370 -106 b 555 -1 515 -106 555 -64 l 555 143 l 549 143 b 326 9 525 64 437 9 b 33 376 151 9 33 142 b 330 760 33 617 143 760 b 549 614 439 760 520 698 l 555 614 l 555 749 l 833 749 l 833 6 b 426 -282 833 -172 667 -282 m 437 210 b 556 374 512 210 556 266 b 437 545 556 480 511 545 b 318 374 362 545 318 480 b 437 210 318 267 361 210 "},"h":{"ha":874,"x_min":0,"x_max":0,"o":"m 56 979 l 327 979 l 327 602 l 332 602 b 566 764 370 707 452 764 b 825 479 734 764 825 659 l 825 0 l 547 0 l 547 418 b 440 539 547 493 510 539 b 334 418 371 539 334 488 l 334 0 l 56 0 "},"ḧ":{"ha":874,"x_min":0,"x_max":0,"o":"m 33 1044 b -88 1163 -35 1044 -88 1098 b 33 1282 -88 1228 -35 1282 b 157 1163 102 1282 157 1228 b 33 1044 157 1098 102 1044 m 349 1044 b 226 1163 280 1044 226 1098 b 349 1282 226 1228 280 1282 b 471 1163 417 1282 471 1228 b 349 1044 471 1098 417 1044 m 56 979 l 327 979 l 327 602 l 332 602 b 566 764 370 707 452 764 b 825 479 734 764 825 659 l 825 0 l 547 0 l 547 418 b 440 539 547 493 510 539 b 334 418 371 539 334 488 l 334 0 l 56 0 "},"ȟ":{"ha":874,"x_min":0,"x_max":0,"o":"m 85 1055 l -81 1272 l 106 1272 l 189 1152 l 194 1152 l 277 1272 l 464 1272 l 298 1055 m 56 979 l 327 979 l 327 602 l 332 602 b 566 764 370 707 452 764 b 825 479 734 764 825 659 l 825 0 l 547 0 l 547 418 b 440 539 547 493 510 539 b 334 418 371 539 334 488 l 334 0 l 56 0 "},"ĥ":{"ha":874,"x_min":0,"x_max":0,"o":"m 298 1272 l 464 1055 l 277 1055 l 194 1175 l 189 1175 l 106 1055 l -81 1055 l 85 1272 m 56 979 l 327 979 l 327 602 l 332 602 b 566 764 370 707 452 764 b 825 479 734 764 825 659 l 825 0 l 547 0 l 547 418 b 440 539 547 493 510 539 b 334 418 371 539 334 488 l 334 0 l 56 0 "},"ḥ":{"ha":874,"x_min":0,"x_max":0,"o":"m 56 979 l 327 979 l 327 602 l 332 602 b 566 764 370 707 452 764 b 825 479 734 764 825 659 l 825 0 l 547 0 l 547 418 b 440 539 547 493 510 539 b 334 418 371 539 334 488 l 334 0 l 56 0 m 439 -330 b 307 -201 365 -330 307 -271 b 439 -71 307 -130 365 -71 b 571 -201 513 -71 571 -130 b 439 -330 571 -271 513 -330 "},"ḣ":{"ha":874,"x_min":0,"x_max":0,"o":"m 190 1034 b 58 1163 116 1034 58 1093 b 190 1293 58 1234 116 1293 b 322 1163 264 1293 322 1234 b 190 1034 322 1093 264 1034 m 56 979 l 327 979 l 327 602 l 332 602 b 566 764 370 707 452 764 b 825 479 734 764 825 659 l 825 0 l 547 0 l 547 418 b 440 539 547 493 510 539 b 334 418 371 539 334 488 l 334 0 l 56 0 "},"ḫ":{"ha":874,"x_min":0,"x_max":0,"o":"m 56 979 l 327 979 l 327 602 l 332 602 b 566 764 370 707 452 764 b 825 479 734 764 825 659 l 825 0 l 547 0 l 547 418 b 440 539 547 493 510 539 b 334 418 371 539 334 488 l 334 0 l 56 0 m 332 -87 b 440 -189 335 -145 372 -189 b 548 -87 508 -189 545 -145 l 708 -87 b 440 -315 704 -209 611 -315 b 172 -87 269 -315 176 -209 "},"ḩ":{"ha":874,"x_min":0,"x_max":0,"o":"m 56 979 l 327 979 l 327 602 l 332 602 b 566 764 370 707 452 764 b 825 479 734 764 825 659 l 825 0 l 547 0 l 547 418 b 440 539 547 493 510 539 b 334 418 371 539 334 488 l 334 0 l 302 -60 b 412 -174 368 -60 412 -105 b 234 -307 412 -262 353 -307 b 144 -296 197 -307 161 -303 l 144 -201 b 211 -209 161 -206 186 -209 b 275 -184 256 -209 275 -201 b 207 -153 275 -160 258 -153 l 169 -153 l 169 -66 l 205 0 l 56 0 "},"ħ":{"ha":874,"x_min":0,"x_max":0,"o":"m 56 791 l -54 791 l -54 910 l 56 910 l 56 979 l 327 979 l 327 910 l 446 910 l 446 791 l 327 791 l 327 602 l 332 602 b 566 764 370 707 452 764 b 825 479 734 764 825 659 l 825 0 l 547 0 l 547 418 b 440 539 547 493 510 539 b 334 418 371 539 334 488 l 334 0 l 56 0 "},"ẖ":{"ha":874,"x_min":0,"x_max":0,"o":"m 56 979 l 327 979 l 327 602 l 332 602 b 566 764 370 707 452 764 b 825 479 734 764 825 659 l 825 0 l 547 0 l 547 418 b 440 539 547 493 510 539 b 334 418 371 539 334 488 l 334 0 l 56 0 m 679 -268 l 201 -268 l 201 -134 l 679 -134 "},"i":{"ha":382,"x_min":0,"x_max":0,"o":"m 190 820 b 58 949 116 820 58 879 b 190 1079 58 1020 116 1079 b 322 949 264 1079 322 1020 b 190 820 322 879 264 820 m 52 749 l 330 749 l 330 0 l 52 0 "},"ì":{"ha":382,"x_min":0,"x_max":0,"o":"m -43 1066 l 185 1066 l 281 844 l 104 844 m 52 749 l 330 749 l 330 0 l 52 0 "},"ȉ":{"ha":382,"x_min":0,"x_max":0,"o":"m 248 844 l 152 1066 l 355 1066 l 406 844 m -26 844 l -173 1066 l 50 1066 l 146 844 m 52 749 l 330 749 l 330 0 l 52 0 "},"í":{"ha":382,"x_min":0,"x_max":0,"o":"m 101 844 l 197 1066 l 426 1066 l 279 844 m 52 749 l 330 749 l 330 0 l 52 0 "},"î":{"ha":382,"x_min":0,"x_max":0,"o":"m 471 844 l 278 844 l 194 960 l 189 960 l 104 844 l -88 844 l 85 1066 l 298 1066 m 52 749 l 330 749 l 330 0 l 52 0 "},"ǐ":{"ha":382,"x_min":0,"x_max":0,"o":"m -88 1066 l 104 1066 l 189 950 l 194 950 l 278 1066 l 471 1066 l 298 844 l 85 844 m 52 749 l 330 749 l 330 0 l 52 0 "},"ï":{"ha":382,"x_min":0,"x_max":0,"o":"m 33 830 b -88 949 -35 830 -88 884 b 33 1069 -88 1015 -35 1069 b 157 949 102 1069 157 1015 b 33 830 157 884 102 830 m 349 830 b 226 949 280 830 226 884 b 349 1069 226 1015 280 1069 b 471 949 417 1069 471 1015 b 349 830 471 884 417 830 m 52 749 l 330 749 l 330 0 l 52 0 "},"ḯ":{"ha":382,"x_min":0,"x_max":0,"o":"m 232 1297 l 450 1297 l 289 1106 l 95 1106 m 33 817 b -88 936 -35 817 -88 871 b 33 1055 -88 1001 -35 1055 b 157 936 102 1055 157 1001 b 33 817 157 871 102 817 m 349 817 b 226 936 280 817 226 871 b 349 1055 226 1001 280 1055 b 471 936 417 1055 471 1001 b 349 817 471 871 417 817 m 52 749 l 330 749 l 330 0 l 52 0 "},"ĭ":{"ha":382,"x_min":0,"x_max":0,"o":"m 83 1066 b 191 964 86 1008 123 964 b 299 1066 259 964 296 1008 l 459 1066 b 191 838 455 944 362 838 b -77 1066 20 838 -73 944 m 52 749 l 330 749 l 330 0 l 52 0 "},"ị":{"ha":382,"x_min":0,"x_max":0,"o":"m 190 820 b 58 949 116 820 58 879 b 190 1079 58 1020 116 1079 b 322 949 264 1079 322 1020 b 190 820 322 879 264 820 m 52 749 l 330 749 l 330 0 l 52 0 m 190 -330 b 58 -201 116 -330 58 -271 b 190 -71 58 -130 116 -71 b 322 -201 264 -71 322 -130 b 190 -330 322 -271 264 -330 "},"ȋ":{"ha":382,"x_min":0,"x_max":0,"o":"m 299 838 b 191 940 296 897 259 940 b 83 838 123 940 86 897 l -77 838 b 191 1066 -73 960 20 1066 b 459 838 362 1066 455 960 m 52 749 l 330 749 l 330 0 l 52 0 "},"ī":{"ha":382,"x_min":0,"x_max":0,"o":"m 394 888 l -12 888 l -12 1022 l 394 1022 m 52 749 l 330 749 l 330 0 l 52 0 "},"ḭ":{"ha":382,"x_min":0,"x_max":0,"o":"m 190 820 b 58 949 116 820 58 879 b 190 1079 58 1020 116 1079 b 322 949 264 1079 322 1020 b 190 820 322 879 264 820 m 52 749 l 330 749 l 330 0 l 52 0 m 291 -310 b 109 -229 189 -310 159 -229 b 56 -303 77 -229 56 -254 l -77 -303 b 90 -92 -77 -160 -3 -92 b 275 -172 193 -92 227 -172 b 326 -97 312 -172 326 -144 l 460 -97 b 291 -310 458 -235 384 -310 "},"ỉ":{"ha":382,"x_min":0,"x_max":0,"o":"m 64 1141 b 176 1161 89 1152 142 1161 b 363 1000 290 1161 363 1098 b 217 818 363 929 311 863 l 144 903 b 211 985 193 928 211 950 b 133 1042 211 1019 180 1042 b 64 1029 109 1042 83 1037 m 52 749 l 330 749 l 330 0 l 52 0 "},"ĩ":{"ha":382,"x_min":0,"x_max":0,"o":"m 291 838 b 109 918 189 838 159 918 b 56 844 77 918 56 893 l -77 844 b 90 1056 -77 987 -3 1056 b 275 975 193 1056 227 975 b 326 1050 312 975 326 1004 l 460 1050 b 291 838 458 912 384 838 m 52 749 l 330 749 l 330 0 l 52 0 "},"į":{"ha":382,"x_min":0,"x_max":0,"o":"m 190 820 b 58 949 116 820 58 879 b 190 1079 58 1020 116 1079 b 322 949 264 1079 322 1020 b 190 820 322 879 264 820 m 170 -335 b -41 -169 27 -335 -41 -256 b 52 0 -41 -112 -13 -49 l 52 749 l 330 749 l 330 0 l 326 0 b 149 -119 204 0 149 -62 b 234 -193 149 -149 164 -193 b 281 -188 248 -193 263 -192 l 281 -319 b 170 -335 243 -330 205 -335 "},"j":{"ha":382,"x_min":0,"x_max":0,"o":"m 190 820 b 58 949 116 820 58 879 b 190 1079 58 1020 116 1079 b 322 949 264 1079 322 1020 b 190 820 322 879 264 820 m 330 -33 b 28 -273 330 -184 218 -273 b -58 -269 -1 -273 -41 -271 l -58 -76 b -26 -78 -50 -77 -38 -78 b 52 -20 28 -78 52 -60 l 52 749 l 330 749 "},"ĵ":{"ha":382,"x_min":0,"x_max":0,"o":"m 471 844 l 278 844 l 194 960 l 189 960 l 104 844 l -88 844 l 85 1066 l 298 1066 m 330 -33 b 28 -273 330 -184 218 -273 b -58 -269 -1 -273 -41 -271 l -58 -76 b -26 -78 -50 -77 -38 -78 b 52 -20 28 -78 52 -60 l 52 749 l 330 749 "},"k":{"ha":820,"x_min":0,"x_max":0,"o":"m 521 749 l 827 749 l 578 429 l 844 0 l 525 0 l 370 263 l 334 214 l 334 0 l 56 0 l 56 979 l 334 979 l 334 478 l 339 478 "},"ḱ":{"ha":820,"x_min":0,"x_max":0,"o":"m 103 1055 l 197 1272 l 425 1272 l 281 1055 m 521 749 l 827 749 l 578 429 l 844 0 l 525 0 l 370 263 l 334 214 l 334 0 l 56 0 l 56 979 l 334 979 l 334 478 l 339 478 "},"ǩ":{"ha":820,"x_min":0,"x_max":0,"o":"m 87 1055 l -79 1272 l 108 1272 l 191 1152 l 196 1152 l 279 1272 l 466 1272 l 300 1055 m 521 749 l 827 749 l 578 429 l 844 0 l 525 0 l 370 263 l 334 214 l 334 0 l 56 0 l 56 979 l 334 979 l 334 478 l 339 478 "},"ḳ":{"ha":820,"x_min":0,"x_max":0,"o":"m 521 749 l 827 749 l 578 429 l 844 0 l 525 0 l 370 263 l 334 214 l 334 0 l 56 0 l 56 979 l 334 979 l 334 478 l 339 478 m 412 -330 b 280 -201 338 -330 280 -271 b 412 -71 280 -130 338 -71 b 545 -201 486 -71 545 -130 b 412 -330 545 -271 486 -330 "},"ḵ":{"ha":820,"x_min":0,"x_max":0,"o":"m 521 749 l 827 749 l 578 429 l 844 0 l 525 0 l 370 263 l 334 214 l 334 0 l 56 0 l 56 979 l 334 979 l 334 478 l 339 478 m 652 -268 l 175 -268 l 175 -134 l 652 -134 "},"ķ":{"ha":820,"x_min":0,"x_max":0,"o":"m 521 749 l 827 749 l 578 429 l 844 0 l 525 0 l 370 263 l 334 214 l 334 0 l 56 0 l 56 979 l 334 979 l 334 478 l 339 478 m 215 -314 l 291 -94 l 536 -94 l 404 -314 "},"l":{"ha":389,"x_min":0,"x_max":0,"o":"m 56 979 l 334 979 l 334 0 l 56 0 "},"ĺ":{"ha":389,"x_min":0,"x_max":0,"o":"m 104 1055 l 199 1272 l 427 1272 l 282 1055 m 56 979 l 334 979 l 334 0 l 56 0 "},"ḽ":{"ha":389,"x_min":0,"x_max":0,"o":"m 56 979 l 334 979 l 334 0 l 56 0 m 474 -315 l 281 -315 l 197 -199 l 192 -199 l 108 -315 l -85 -315 l 88 -94 l 301 -94 "},"ŀ":{"ha":671,"x_min":0,"x_max":0,"o":"m 56 979 l 334 979 l 334 0 l 56 0 m 530 346 b 389 487 452 346 389 409 b 530 628 389 565 452 628 b 671 487 608 628 671 565 b 530 346 671 409 608 346 "},"ḷ":{"ha":389,"x_min":0,"x_max":0,"o":"m 56 979 l 334 979 l 334 0 l 56 0 m 193 -330 b 61 -201 119 -330 61 -271 b 193 -71 61 -130 119 -71 b 326 -201 267 -71 326 -130 b 193 -330 326 -271 267 -330 "},"ḹ":{"ha":389,"x_min":0,"x_max":0,"o":"m 433 1101 l -44 1101 l -44 1236 l 433 1236 m 56 979 l 334 979 l 334 0 l 56 0 m 193 -330 b 61 -201 119 -330 61 -271 b 193 -71 61 -130 119 -71 b 326 -201 267 -71 326 -130 b 193 -330 326 -271 267 -330 "},"ḻ":{"ha":389,"x_min":0,"x_max":0,"o":"m 56 979 l 334 979 l 334 0 l 56 0 m 433 -268 l -44 -268 l -44 -134 l 433 -134 "},"ļ":{"ha":389,"x_min":0,"x_max":0,"o":"m 56 979 l 334 979 l 334 0 l 56 0 m -4 -314 l 72 -94 l 317 -94 l 185 -314 "},"ľ":{"ha":553,"x_min":0,"x_max":0,"o":"m 608 1066 l 559 721 l 403 721 l 403 1066 m 56 979 l 334 979 l 334 0 l 56 0 "},"ł":{"ha":389,"x_min":0,"x_max":0,"o":"m 56 382 l -3 347 l -3 520 l 56 555 l 56 979 l 334 979 l 334 719 l 393 753 l 393 581 l 334 547 l 334 0 l 56 0 "},"m":{"ha":1282,"x_min":0,"x_max":0,"o":"m 52 749 l 323 749 l 323 597 l 329 597 b 543 764 357 699 441 764 b 751 599 657 764 733 704 l 757 599 b 987 764 782 698 873 764 b 1233 506 1133 764 1233 659 l 1233 0 l 955 0 l 955 434 b 864 541 955 505 924 541 b 774 435 808 541 774 500 l 774 0 l 511 0 l 511 433 b 420 541 511 505 480 541 b 330 435 364 541 330 500 l 330 0 l 52 0 "},"ḿ":{"ha":1282,"x_min":0,"x_max":0,"o":"m 553 844 l 649 1066 l 878 1066 l 730 844 m 52 749 l 323 749 l 323 597 l 329 597 b 543 764 357 699 441 764 b 751 599 657 764 733 704 l 757 599 b 987 764 782 698 873 764 b 1233 506 1133 764 1233 659 l 1233 0 l 955 0 l 955 434 b 864 541 955 505 924 541 b 774 435 808 541 774 500 l 774 0 l 511 0 l 511 433 b 420 541 511 505 480 541 b 330 435 364 541 330 500 l 330 0 l 52 0 "},"ṁ":{"ha":1282,"x_min":0,"x_max":0,"o":"m 642 820 b 509 949 568 820 509 879 b 642 1079 509 1020 568 1079 b 774 949 715 1079 774 1020 b 642 820 774 879 715 820 m 52 749 l 323 749 l 323 597 l 329 597 b 543 764 357 699 441 764 b 751 599 657 764 733 704 l 757 599 b 987 764 782 698 873 764 b 1233 506 1133 764 1233 659 l 1233 0 l 955 0 l 955 434 b 864 541 955 505 924 541 b 774 435 808 541 774 500 l 774 0 l 511 0 l 511 433 b 420 541 511 505 480 541 b 330 435 364 541 330 500 l 330 0 l 52 0 "},"ṃ":{"ha":1282,"x_min":0,"x_max":0,"o":"m 52 749 l 323 749 l 323 597 l 329 597 b 543 764 357 699 441 764 b 751 599 657 764 733 704 l 757 599 b 987 764 782 698 873 764 b 1233 506 1133 764 1233 659 l 1233 0 l 955 0 l 955 434 b 864 541 955 505 924 541 b 774 435 808 541 774 500 l 774 0 l 511 0 l 511 433 b 420 541 511 505 480 541 b 330 435 364 541 330 500 l 330 0 l 52 0 m 642 -330 b 509 -201 568 -330 509 -271 b 642 -71 509 -130 568 -71 b 774 -201 715 -71 774 -130 b 642 -330 774 -271 715 -330 "},"n":{"ha":868,"x_min":0,"x_max":0,"o":"m 52 749 l 323 749 l 323 602 l 329 602 b 559 764 367 707 445 764 b 819 479 727 764 819 659 l 819 0 l 541 0 l 541 418 b 436 539 541 493 506 539 b 330 418 370 539 330 488 l 330 0 l 52 0 "},"ǹ":{"ha":868,"x_min":0,"x_max":0,"o":"m 201 1066 l 430 1066 l 526 844 l 349 844 m 52 749 l 323 749 l 323 602 l 329 602 b 559 764 367 707 445 764 b 819 479 727 764 819 659 l 819 0 l 541 0 l 541 418 b 436 539 541 493 506 539 b 330 418 370 539 330 488 l 330 0 l 52 0 "},"ń":{"ha":868,"x_min":0,"x_max":0,"o":"m 346 844 l 442 1066 l 671 1066 l 524 844 m 52 749 l 323 749 l 323 602 l 329 602 b 559 764 367 707 445 764 b 819 479 727 764 819 659 l 819 0 l 541 0 l 541 418 b 436 539 541 493 506 539 b 330 418 370 539 330 488 l 330 0 l 52 0 "},"ñ":{"ha":868,"x_min":0,"x_max":0,"o":"m 536 838 b 353 918 433 838 404 918 b 301 844 321 918 301 893 l 168 844 b 334 1056 168 987 242 1056 b 519 975 437 1056 472 975 b 571 1050 557 975 571 1004 l 705 1050 b 536 838 703 912 629 838 m 52 749 l 323 749 l 323 602 l 329 602 b 559 764 367 707 445 764 b 819 479 727 764 819 659 l 819 0 l 541 0 l 541 418 b 436 539 541 493 506 539 b 330 418 370 539 330 488 l 330 0 l 52 0 "},"ṇ":{"ha":868,"x_min":0,"x_max":0,"o":"m 52 749 l 323 749 l 323 602 l 329 602 b 559 764 367 707 445 764 b 819 479 727 764 819 659 l 819 0 l 541 0 l 541 418 b 436 539 541 493 506 539 b 330 418 370 539 330 488 l 330 0 l 52 0 m 435 -330 b 302 -201 361 -330 302 -271 b 435 -71 302 -130 361 -71 b 567 -201 509 -71 567 -130 b 435 -330 567 -271 509 -330 "},"ṅ":{"ha":868,"x_min":0,"x_max":0,"o":"m 435 820 b 302 949 361 820 302 879 b 435 1079 302 1020 361 1079 b 567 949 509 1079 567 1020 b 435 820 567 879 509 820 m 52 749 l 323 749 l 323 602 l 329 602 b 559 764 367 707 445 764 b 819 479 727 764 819 659 l 819 0 l 541 0 l 541 418 b 436 539 541 493 506 539 b 330 418 370 539 330 488 l 330 0 l 52 0 "},"ň":{"ha":868,"x_min":0,"x_max":0,"o":"m 157 1066 l 349 1066 l 433 950 l 439 950 l 523 1066 l 715 1066 l 543 844 l 330 844 m 52 749 l 323 749 l 323 602 l 329 602 b 559 764 367 707 445 764 b 819 479 727 764 819 659 l 819 0 l 541 0 l 541 418 b 436 539 541 493 506 539 b 330 418 370 539 330 488 l 330 0 l 52 0 "},"ṋ":{"ha":868,"x_min":0,"x_max":0,"o":"m 52 749 l 323 749 l 323 602 l 329 602 b 559 764 367 707 445 764 b 819 479 727 764 819 659 l 819 0 l 541 0 l 541 418 b 436 539 541 493 506 539 b 330 418 370 539 330 488 l 330 0 l 52 0 m 715 -315 l 523 -315 l 439 -199 l 433 -199 l 349 -315 l 157 -315 l 330 -94 l 543 -94 "},"ṉ":{"ha":868,"x_min":0,"x_max":0,"o":"m 52 749 l 323 749 l 323 602 l 329 602 b 559 764 367 707 445 764 b 819 479 727 764 819 659 l 819 0 l 541 0 l 541 418 b 436 539 541 493 506 539 b 330 418 370 539 330 488 l 330 0 l 52 0 m 675 -268 l 197 -268 l 197 -134 l 675 -134 "},"ņ":{"ha":868,"x_min":0,"x_max":0,"o":"m 52 749 l 323 749 l 323 602 l 329 602 b 559 764 367 707 445 764 b 819 479 727 764 819 659 l 819 0 l 541 0 l 541 418 b 436 539 541 493 506 539 b 330 418 370 539 330 488 l 330 0 l 52 0 m 237 -314 l 313 -94 l 559 -94 l 427 -314 "},"o":{"ha":854,"x_min":0,"x_max":0,"o":"m 427 -19 b 33 375 182 -19 33 122 b 427 768 33 621 186 768 b 821 375 668 768 821 623 b 427 -19 821 121 671 -19 m 427 180 b 538 374 496 180 538 249 b 427 569 538 496 495 569 b 315 374 359 569 315 496 b 427 180 315 249 357 180 "},"ö":{"ha":854,"x_min":0,"x_max":0,"o":"m 269 830 b 148 949 201 830 148 884 b 269 1069 148 1015 201 1069 b 393 949 338 1069 393 1015 b 269 830 393 884 338 830 m 585 830 b 462 949 516 830 462 884 b 585 1069 462 1015 516 1069 b 707 949 653 1069 707 1015 b 585 830 707 884 653 830 m 427 -19 b 33 375 182 -19 33 122 b 427 768 33 621 186 768 b 821 375 668 768 821 623 b 427 -19 821 121 671 -19 m 427 180 b 538 374 496 180 538 249 b 427 569 538 496 495 569 b 315 374 359 569 315 496 b 427 180 315 249 357 180 "},"ø":{"ha":854,"x_min":0,"x_max":0,"o":"m 427 -19 b 175 52 325 -19 239 5 l 96 -27 l 33 35 l 111 114 b 33 375 60 178 33 267 b 427 768 33 621 186 768 b 682 692 530 768 616 741 l 758 769 l 821 707 l 744 630 b 821 375 793 565 821 479 b 427 -19 821 121 671 -19 m 309 374 b 312 317 309 354 310 334 l 514 522 b 427 579 494 559 463 579 b 309 374 355 579 309 503 m 427 170 b 545 374 499 170 545 242 b 543 425 545 393 545 410 l 341 221 b 427 170 361 187 391 170 "},"õ":{"ha":854,"x_min":0,"x_max":0,"o":"m 527 838 b 345 918 425 838 395 918 b 292 844 313 918 292 893 l 159 844 b 326 1056 159 987 233 1056 b 511 975 429 1056 463 975 b 562 1050 548 975 562 1004 l 696 1050 b 527 838 694 912 620 838 m 427 -19 b 33 375 182 -19 33 122 b 427 768 33 621 186 768 b 821 375 668 768 821 623 b 427 -19 821 121 671 -19 m 427 180 b 538 374 496 180 538 249 b 427 569 538 496 495 569 b 315 374 359 569 315 496 b 427 180 315 249 357 180 "},"ó":{"ha":854,"x_min":0,"x_max":0,"o":"m 337 844 l 433 1066 l 662 1066 l 515 844 m 427 -19 b 33 375 182 -19 33 122 b 427 768 33 621 186 768 b 821 375 668 768 821 623 b 427 -19 821 121 671 -19 m 427 180 b 538 374 496 180 538 249 b 427 569 538 496 495 569 b 315 374 359 569 315 496 b 427 180 315 249 357 180 "},"ô":{"ha":854,"x_min":0,"x_max":0,"o":"m 707 844 l 514 844 l 430 960 l 425 960 l 340 844 l 148 844 l 321 1066 l 534 1066 m 427 -19 b 33 375 182 -19 33 122 b 427 768 33 621 186 768 b 821 375 668 768 821 623 b 427 -19 821 121 671 -19 m 427 180 b 538 374 496 180 538 249 b 427 569 538 496 495 569 b 315 374 359 569 315 496 b 427 180 315 249 357 180 "},"ò":{"ha":854,"x_min":0,"x_max":0,"o":"m 193 1066 l 421 1066 l 517 844 l 340 844 m 427 -19 b 33 375 182 -19 33 122 b 427 768 33 621 186 768 b 821 375 668 768 821 623 b 427 -19 821 121 671 -19 m 427 180 b 538 374 496 180 538 249 b 427 569 538 496 495 569 b 315 374 359 569 315 496 b 427 180 315 249 357 180 "},"ổ":{"ha":854,"x_min":0,"x_max":0,"o":"m 528 1299 b 616 1313 551 1308 583 1313 b 798 1166 728 1313 798 1257 b 667 991 798 1085 755 1027 l 595 1073 b 655 1147 635 1090 655 1119 b 586 1197 655 1179 629 1197 b 528 1188 564 1197 543 1194 m 707 838 l 514 838 l 430 960 l 425 960 l 340 838 l 148 838 l 321 1066 l 534 1066 m 427 -19 b 33 375 182 -19 33 122 b 427 768 33 621 186 768 b 821 375 668 768 821 623 b 427 -19 821 121 671 -19 m 427 180 b 538 374 496 180 538 249 b 427 569 538 496 495 569 b 315 374 359 569 315 496 b 427 180 315 249 357 180 "},"ồ":{"ha":854,"x_min":0,"x_max":0,"o":"m 571 1106 l 410 1297 l 628 1297 l 765 1106 m 707 838 l 514 838 l 430 960 l 425 960 l 340 838 l 148 838 l 321 1066 l 534 1066 m 427 -19 b 33 375 182 -19 33 122 b 427 768 33 621 186 768 b 821 375 668 768 821 623 b 427 -19 821 121 671 -19 m 427 180 b 538 374 496 180 538 249 b 427 569 538 496 495 569 b 315 374 359 569 315 496 b 427 180 315 249 357 180 "},"ọ":{"ha":854,"x_min":0,"x_max":0,"o":"m 427 -19 b 33 375 182 -19 33 122 b 427 768 33 621 186 768 b 821 375 668 768 821 623 b 427 -19 821 121 671 -19 m 427 180 b 538 374 496 180 538 249 b 427 569 538 496 495 569 b 315 374 359 569 315 496 b 427 180 315 249 357 180 m 426 -330 b 294 -201 352 -330 294 -271 b 426 -71 294 -130 352 -71 b 558 -201 500 -71 558 -130 b 426 -330 558 -271 500 -330 "},"ȍ":{"ha":854,"x_min":0,"x_max":0,"o":"m 484 844 l 388 1066 l 591 1066 l 642 844 m 210 844 l 63 1066 l 286 1066 l 382 844 m 427 -19 b 33 375 182 -19 33 122 b 427 768 33 621 186 768 b 821 375 668 768 821 623 b 427 -19 821 121 671 -19 m 427 180 b 538 374 496 180 538 249 b 427 569 538 496 495 569 b 315 374 359 569 315 496 b 427 180 315 249 357 180 "},"ṍ":{"ha":854,"x_min":0,"x_max":0,"o":"m 468 1297 l 686 1297 l 525 1106 l 331 1106 m 527 824 b 345 905 425 824 395 905 b 292 831 313 905 292 880 l 159 831 b 326 1042 159 974 233 1042 b 511 962 429 1042 463 962 b 562 1037 548 962 562 990 l 696 1037 b 527 824 694 899 620 824 m 427 -19 b 33 375 182 -19 33 122 b 427 768 33 621 186 768 b 821 375 668 768 821 623 b 427 -19 821 121 671 -19 m 427 180 b 538 374 496 180 538 249 b 427 569 538 496 495 569 b 315 374 359 569 315 496 b 427 180 315 249 357 180 "},"ṓ":{"ha":854,"x_min":0,"x_max":0,"o":"m 468 1297 l 686 1297 l 525 1106 l 331 1106 m 666 874 l 189 874 l 189 1008 l 666 1008 m 427 -19 b 33 375 182 -19 33 122 b 427 768 33 621 186 768 b 821 375 668 768 821 623 b 427 -19 821 121 671 -19 m 427 180 b 538 374 496 180 538 249 b 427 569 538 496 495 569 b 315 374 359 569 315 496 b 427 180 315 249 357 180 "},"ỗ":{"ha":854,"x_min":0,"x_max":0,"o":"m 524 1098 b 343 1179 425 1098 390 1179 b 296 1110 312 1179 298 1146 l 160 1110 b 330 1309 160 1237 239 1309 b 511 1228 429 1309 465 1228 b 558 1300 543 1228 556 1258 l 694 1300 b 524 1098 694 1173 615 1098 m 707 838 l 514 838 l 430 949 l 425 949 l 340 838 l 148 838 l 321 1053 l 534 1053 m 427 -19 b 33 375 182 -19 33 122 b 427 768 33 621 186 768 b 821 375 668 768 821 623 b 427 -19 821 121 671 -19 m 427 180 b 538 374 496 180 538 249 b 427 569 538 496 495 569 b 315 374 359 569 315 496 b 427 180 315 249 357 180 "},"ȱ":{"ha":854,"x_min":0,"x_max":0,"o":"m 666 1141 l 189 1141 l 189 1276 l 666 1276 m 427 829 b 307 946 359 829 307 882 b 427 1063 307 1010 359 1063 b 547 946 495 1063 547 1010 b 427 829 547 882 495 829 m 427 -19 b 33 375 182 -19 33 122 b 427 768 33 621 186 768 b 821 375 668 768 821 623 b 427 -19 821 121 671 -19 m 427 180 b 538 374 496 180 538 249 b 427 569 538 496 495 569 b 315 374 359 569 315 496 b 427 180 315 249 357 180 "},"ṑ":{"ha":854,"x_min":0,"x_max":0,"o":"m 342 1102 l 184 1297 l 403 1297 l 519 1102 m 666 874 l 189 874 l 189 1008 l 666 1008 m 427 -19 b 33 375 182 -19 33 122 b 427 768 33 621 186 768 b 821 375 668 768 821 623 b 427 -19 821 121 671 -19 m 427 180 b 538 374 496 180 538 249 b 427 569 538 496 495 569 b 315 374 359 569 315 496 b 427 180 315 249 357 180 "},"ǒ":{"ha":854,"x_min":0,"x_max":0,"o":"m 148 1066 l 340 1066 l 425 950 l 430 950 l 514 1066 l 707 1066 l 534 844 l 321 844 m 427 -19 b 33 375 182 -19 33 122 b 427 768 33 621 186 768 b 821 375 668 768 821 623 b 427 -19 821 121 671 -19 m 427 180 b 538 374 496 180 538 249 b 427 569 538 496 495 569 b 315 374 359 569 315 496 b 427 180 315 249 357 180 "}}}
